<svg id="Layer_1" enable-background="new 0 0 512 512" height="512" viewBox="0 0 512 512" width="512" xmlns="http://www.w3.org/2000/svg"><g><g fill="#d2d5d4"><path d="m77 230.998h-45.904c-5.576 0-10.096-4.52-10.096-10.096v-17.808c0-5.576 4.52-10.096 10.096-10.096h26.051c10.964 0 19.853 8.888 19.853 19.853z"/><path d="m435 230.998h45.904c5.576 0 10.096-4.52 10.096-10.096v-17.808c0-5.576-4.52-10.096-10.096-10.096h-26.051c-10.964 0-19.853 8.888-19.853 19.853z"/></g><g><path d="m115 445h-38c-6.627 0-12-5.373-12-12v-104.001c0-6.627 5.373-12 12-12h38c6.627 0 12 5.373 12 12v104.001c0 6.627-5.373 12-12 12z" fill="#497285"/><path d="m115 316.999h-30c6.627 0 12 5.373 12 12v104.001c0 6.627-5.373 12-12 12h30c6.627 0 12-5.373 12-12v-104.001c0-6.628-5.373-12-12-12z" fill="#426778"/><path d="m429 445h-38c-6.627 0-12-5.373-12-12v-104.001c0-6.627 5.373-12 12-12h38c6.627 0 12 5.373 12 12v104.001c0 6.627-5.373 12-12 12z" fill="#497285"/><path d="m429 316.999h-30c6.627 0 12 5.373 12 12v104.001c0 6.627-5.373 12-12 12h30c6.627 0 12-5.373 12-12v-104.001c0-6.628-5.373-12-12-12z" fill="#426778"/></g><path d="m440 224.998h-368l16.21-138.001h335.58z" fill="#b9f5ff"/><path d="m423.79 86.997h-30l16.21 138.001h30z" fill="#8aeeff"/><path d="m424.154 86.997h-336.308c-4.333 0-7.846-3.513-7.846-7.846 0-11.131 9.023-20.154 20.154-20.154h311.692c11.131 0 20.154 9.023 20.154 20.154 0 4.333-3.513 7.846-7.846 7.846z" fill="#ffde5c"/><path d="m411.846 58.997h-30c11.131 0 20.154 9.023 20.154 20.154 0 4.333-3.513 7.846-7.846 7.846h30c4.333 0 7.846-3.513 7.846-7.846 0-11.131-9.023-20.154-20.154-20.154z" fill="#ffc736"/><path d="m453.231 354.999h-394.462c-10.918 0-19.769-8.851-19.769-19.769v-72.885c0-26.149 21.198-47.347 47.346-47.347h339.308c26.149 0 47.346 21.198 47.346 47.347v72.885c0 10.918-8.851 19.769-19.769 19.769z" fill="#ffde5c"/><path d="m425.654 214.998h-30c26.149 0 47.346 21.198 47.346 47.347v72.885c0 10.918-8.851 19.769-19.769 19.769h30c10.918 0 19.769-8.851 19.769-19.769v-72.885c0-26.149-21.198-47.347-47.346-47.347z" fill="#ffc736"/><path d="m459 394.999h-406c-7.732 0-14-6.268-14-14v-12c0-7.732 6.268-14 14-14h406c7.732 0 14 6.268 14 14v12c0 7.732-6.268 14-14 14z" fill="#d2d5d4"/><path d="m459 354.999h-30c7.732 0 14 6.268 14 14v12c0 7.732-6.268 14-14 14h30c7.732 0 14-6.268 14-14v-12c0-7.732-6.268-14-14-14z" fill="#c7c9c8"/><path d="m124.821 320.999h-37.436c-10.154 0-18.385-8.231-18.385-18.385v-13.346c0-12.299 9.97-22.269 22.269-22.269h15.91c19.783 0 35.821 16.038 35.821 35.821 0 10.039-8.139 18.179-18.179 18.179z" fill="#b9f5ff"/><path d="m107.18 266.998h-15.91c-2.153 0-4.233.312-6.202.882 15.985 3.594 27.932 17.867 27.932 34.939 0 10.04-8.139 18.18-18.179 18.18h30c10.04 0 18.179-8.139 18.179-18.18 0-19.783-16.037-35.821-35.82-35.821z" fill="#8aeeff"/><path d="m387.179 320.999h37.436c10.154 0 18.385-8.231 18.385-18.385v-13.346c0-12.299-9.97-22.269-22.269-22.269h-15.91c-19.783 0-35.821 16.038-35.821 35.821 0 10.039 8.139 18.179 18.179 18.179z" fill="#b9f5ff"/><path d="m420.731 266.998h-15.91c-2.711 0-5.348.311-7.887.882 9.28 2.687 16.067 11.242 16.067 21.387v13.346c0 10.154-8.231 18.385-18.385 18.385h30c10.154 0 18.385-8.231 18.385-18.385v-13.346c-.001-12.298-9.971-22.269-22.27-22.269z" fill="#8aeeff"/><path d="m296.5 331.999h-81c-17.673 0-32-14.327-32-32 0-17.673 14.327-32 32-32h81c17.673 0 32 14.327 32 32 0 17.673-14.327 32-32 32z" fill="#497285"/><path d="m391.052 245.002h-270.104c-5.263 0-10.221-2.473-13.387-6.677l-17.561-23.324h332l-17.562 23.323c-3.166 4.205-8.123 6.678-13.386 6.678z" fill="#426778"/><path d="m402 215.001h-292l11.165-164.852c.501-7.401 6.651-13.149 14.07-13.149h241.53c7.418 0 13.568 5.748 14.07 13.149z" fill="#ffc736"/><path d="m489.5 475h-467c-8.284 0-15-6.716-15-15 0-8.284 6.716-15 15-15h467c8.284 0 15 6.716 15 15 0 8.284-6.716 15-15 15z" fill="#d2d5d4"/><path d="m489.5 445h-30c8.284 0 15 6.716 15 15 0 8.284-6.716 15-15 15h30c8.284 0 15-6.716 15-15 0-8.284-6.716-15-15-15z" fill="#c7c9c8"/><g><path d="m87.385 328.498h37.436c14.16 0 25.679-11.52 25.679-25.68 0-23.888-19.434-43.321-43.32-43.321h-15.911c-16.415 0-29.769 13.354-29.769 29.77v13.347c0 14.272 11.612 25.884 25.885 25.884zm-10.885-39.231c0-8.144 6.625-14.77 14.769-14.77h15.911c15.616 0 28.32 12.705 28.32 28.321 0 5.889-4.791 10.68-10.679 10.68h-37.436c-6.002 0-10.885-4.883-10.885-10.885z"/><path d="m387.18 328.498h37.436c14.272 0 25.885-11.612 25.885-25.885v-13.347c0-16.415-13.354-29.77-29.77-29.77h-15.91c-23.887 0-43.32 19.434-43.32 43.321-.001 14.162 11.519 25.681 25.679 25.681zm17.64-54.001h15.91c8.144 0 14.77 6.626 14.77 14.77v13.347c0 6.002-4.883 10.885-10.885 10.885h-37.435c-5.889 0-10.68-4.791-10.68-10.68 0-15.617 12.704-28.322 28.32-28.322z"/><path d="m215.5 339.498h81c21.78 0 39.5-17.72 39.5-39.5 0-21.781-17.72-39.501-39.5-39.501h-81c-21.78 0-39.5 17.72-39.5 39.501 0 21.78 17.72 39.5 39.5 39.5zm0-64.001h81c13.51 0 24.5 10.991 24.5 24.501s-10.99 24.5-24.5 24.5h-81c-13.509 0-24.5-10.99-24.5-24.5s10.991-24.501 24.5-24.501z"/><path d="m489.5 437.5h-41.545c.344-1.447.545-2.949.545-4.5v-30.382h10.5c11.855 0 21.5-9.645 21.5-21.5v-12c0-6.228-2.678-11.829-6.924-15.759 4.302-4.823 6.924-11.175 6.924-18.131v-72.885c0-8.541-1.964-16.63-5.462-23.845h5.862c9.704 0 17.6-7.896 17.6-17.6v-17.811c0-9.699-7.896-17.59-17.6-17.59h-26.05c-4.096 0-8.052.929-11.632 2.613l-11.248-95.77c1.089-.648 2.114-1.42 3.034-2.34 2.899-2.9 4.496-6.755 4.496-10.854 0-15.246-12.404-27.65-27.65-27.65h-13.406l-.126-1.855c-.764-11.295-10.23-20.143-21.552-20.143h-24.278c-4.143 0-7.5 3.357-7.5 7.5s3.357 7.5 7.5 7.5h24.278c3.46 0 6.353 2.704 6.587 6.156l.613 9.049c.002.024.002.048.005.072l10.004 147.72h-224.268l20.25-134.76h167.043c4.143 0 7.5-3.357 7.5-7.5s-3.357-7.5-7.5-7.5h-202c-4.142 0-7.5 3.357-7.5 7.5s3.358 7.5 7.5 7.5h19.789l-20.25 134.76h-36.514l10.006-147.731c0-.002 0-.005 0-.007l.616-9.103c.234-3.452 3.127-6.156 6.587-6.156h184.74c4.143 0 7.5-3.357 7.5-7.5s-3.357-7.5-7.5-7.5h-184.74c-11.32 0-20.788 8.848-21.553 20.143l-.126 1.855h-13.405c-7.373 0-14.314 2.873-19.561 8.104-5.216 5.234-8.089 12.175-8.089 19.548 0 5.607 3.031 10.507 7.532 13.186l-6.615 56.328c-.483 4.114 2.46 7.841 6.574 8.324.297.034.592.052.884.052 3.751 0 6.991-2.81 7.439-6.626l6.567-55.914h15.763l-7.653 112.999h-16.645c-1.606 0-3.192.084-4.763.22l3-25.539c.483-4.114-2.46-7.841-6.574-8.324-4.118-.47-7.84 2.461-8.324 6.574l-.903 7.685c-3.58-1.685-7.536-2.613-11.633-2.613h-26.049c-9.705 0-17.6 7.891-17.6 17.59v17.811c0 9.704 7.896 17.6 17.6 17.6h5.862c-3.497 7.214-5.462 15.304-5.462 23.845v72.885c0 6.956 2.622 13.308 6.924 18.131-4.246 3.93-6.924 9.531-6.924 15.759v12c0 11.855 9.645 21.5 21.5 21.5h4.5v30.379c0 1.551.201 3.053.545 4.5h-35.545c-12.407 0-22.5 10.094-22.5 22.5s10.093 22.5 22.5 22.5h467c12.406 0 22.5-10.094 22.5-22.5s-10.094-22.5-22.5-22.5zm-401.65-358.002c-.2 0-.35-.15-.35-.35 0-3.375 1.318-6.555 3.696-8.939 2.4-2.393 5.58-3.711 8.954-3.711h12.391l-.88 13zm345.65 353.502c0 2.481-2.019 4.5-4.5 4.5h-38c-2.481 0-4.5-2.019-4.5-4.5v-30.382h47zm-347.242-210.501 15.312 20.335c4.557 6.053 11.801 9.667 19.378 9.667h35.535c.004 0 .009.001.013.001.007 0 .014-.001.021-.001h234.534c7.577 0 14.821-3.613 19.378-9.666l15.313-20.336c21.93.048 39.758 17.902 39.758 39.844v72.885c0 6.766-5.504 12.27-12.27 12.27h-394.461c-6.765 0-12.269-5.504-12.269-12.27v-72.885c0-21.941 17.827-39.796 39.758-39.844zm34.69 15.002c-2.892 0-5.656-1.379-7.395-3.689l-8.517-11.311h47.248l-2.254 15zm46.504-15h239.512l-8.517 11.312c-1.739 2.31-4.504 3.688-7.396 3.688h-225.853zm287.398-22.002h26.05c1.434 0 2.6 1.162 2.6 2.59v17.811c0 1.434-1.166 2.6-2.6 2.6h-16.567c-5.206-5.184-11.449-9.319-18.38-12.091l-.737-6.274c2.32-2.898 5.848-4.636 9.634-4.636zm-43-134.001c6.976 0 12.65 5.675 12.65 12.65 0 .043 0 .144-.104.246-.103.104-.203.104-.246.104h-23.811l-.88-13zm-10.495 28h15.764l13.297 113.219c-1.571-.136-3.156-.22-4.762-.22h-16.646zm-372.855 126.401v-17.811c0-1.428 1.167-2.59 2.6-2.59h26.05c3.787 0 7.315 1.737 9.634 4.635l-.737 6.273c-6.931 2.772-13.175 6.908-18.38 12.092h-16.567c-1.433.001-2.6-1.165-2.6-2.599zm18 160.219v-12c0-3.584 2.916-6.5 6.5-6.5h406c3.584 0 6.5 2.916 6.5 6.5v12c0 3.584-2.916 6.5-6.5 6.5h-106.205c-4.143 0-7.5 3.357-7.5 7.5s3.357 7.5 7.5 7.5h18.705v30.382c0 1.551.201 3.053.545 4.5h-238.09c.344-1.447.545-2.949.545-4.5v-30.382h186.09c4.143 0 7.5-3.357 7.5-7.5s-3.357-7.5-7.5-7.5h-267.59c-3.584 0-6.5-2.916-6.5-6.5zm26 51.882v-30.382h47v30.382c0 2.481-2.019 4.5-4.5 4.5h-38c-2.481 0-4.5-2.019-4.5-4.5zm417 34.5h-467c-4.136 0-7.5-3.364-7.5-7.5s3.364-7.5 7.5-7.5h467c4.136 0 7.5 3.364 7.5 7.5s-3.364 7.5-7.5 7.5z"/></g></g></svg>