<svg id="Layer_1" enable-background="new 0 0 512 512" height="512" viewBox="0 0 512 512" width="512" xmlns="http://www.w3.org/2000/svg"><g><path d="m478.5 76.5h-445c-14.36 0-26 11.64-26 26v292c0 14.36 11.64 26 26 26h445c14.36 0 26-11.64 26-26v-292c0-14.36-11.64-26-26-26zm-133.36 64.14c-3.62 3.62-8.62 5.86-14.14 5.86h-150c-11.05 0-20-8.95-20-20s8.95-20 20-20h150c11.05 0 20 8.95 20 20 0 5.52-2.24 10.52-5.86 14.14z" fill="#ffde5c"/><g><path d="m478.5 76.5h-30c14.36 0 26 11.64 26 26v292c0 14.36-11.64 26-26 26h30c14.36 0 26-11.64 26-26v-292c0-14.36-11.64-26-26-26z" fill="#ffc736"/></g><g fill="#faaa0a"><path d="m27.314 191.678h-19.814v-52h19.814c8.387 0 15.186 6.799 15.186 15.186v21.628c0 8.387-6.799 15.186-15.186 15.186z"/><path d="m27.314 274.885h-19.814v-52h19.814c8.387 0 15.186 6.799 15.186 15.186v21.628c0 8.387-6.799 15.186-15.186 15.186z"/><path d="m27.314 358.092h-19.814v-52h19.814c8.387 0 15.186 6.799 15.186 15.186v21.628c0 8.387-6.799 15.186-15.186 15.186z"/><path d="m484.686 191.678h19.814v-52h-19.814c-8.387 0-15.186 6.799-15.186 15.186v21.628c0 8.387 6.799 15.186 15.186 15.186z"/><path d="m484.686 274.885h19.814v-52h-19.814c-8.387 0-15.186 6.799-15.186 15.186v21.628c0 8.387 6.799 15.186 15.186 15.186z"/><path d="m484.686 358.092h19.814v-52h-19.814c-8.387 0-15.186 6.799-15.186 15.186v21.628c0 8.387 6.799 15.186 15.186 15.186z"/></g><path d="m240 164.662h32v180h-32z" fill="#c7c9c8" transform="matrix(0 1 -1 0 510.662 -1.338)"/><path d="m316 238.662h30v32h-30z" fill="#b8bab9"/><path d="m99.797 200.828h41.536c1.185 0 2.301.56 3.009 1.511l19.724 26.5c1.256 1.687 1.934 3.735 1.934 5.838v39.986c0 2.104-.679 4.152-1.936 5.84l-19.723 26.485c-.708.951-1.823 1.511-3.008 1.511h-41.536c-.999 0-1.957-.399-2.661-1.108l-22.937-23.094c-2.35-2.366-.674-6.394 2.661-6.394h24.436c12.831 0 23.233-10.402 23.233-23.233 0-12.831-10.402-23.233-23.233-23.233h-24.44c-3.335 0-5.011-4.026-2.662-6.393l22.941-23.108c.704-.709 1.663-1.108 2.662-1.108z" fill="#d2d5d4"/><path d="m412.203 200.828h-41.536c-1.185 0-2.301.56-3.009 1.511l-19.724 26.5c-1.256 1.687-1.934 3.735-1.934 5.838v39.986c0 2.104.679 4.152 1.935 5.84l19.723 26.485c.708.951 1.823 1.511 3.008 1.511h41.537c.999 0 1.957-.399 2.661-1.108l22.937-23.094c2.35-2.366.674-6.394-2.661-6.394h-24.436c-12.831 0-23.233-10.402-23.233-23.233 0-12.831 10.402-23.233 23.233-23.233h24.439c3.335 0 5.011-4.026 2.662-6.393l-22.941-23.108c-.704-.709-1.662-1.108-2.661-1.108z" fill="#d2d5d4"/><g fill="#497285"><path d="m144.108 435.5h-54.79c-3.648 0-6.605-2.957-6.605-6.605v-16.79c0-3.648 2.957-6.605 6.605-6.605h54.79c3.648 0 6.605 2.957 6.605 6.605v16.79c0 3.648-2.957 6.605-6.605 6.605z"/><path d="m422.682 435.5h-54.79c-3.648 0-6.605-2.957-6.605-6.605v-16.79c0-3.648 2.957-6.605 6.605-6.605h54.79c3.648 0 6.605 2.957 6.605 6.605v16.79c0 3.648-2.957 6.605-6.605 6.605z"/></g><g><path d="m410.704 238.938h24.439c4.558 0 8.635-2.719 10.387-6.927s.809-9.016-2.402-12.25l-22.942-23.109c-2.097-2.112-5.007-3.323-7.982-3.323h-41.536c-3.538 0-6.912 1.694-9.025 4.533l-19.724 26.5c-1.498 2.012-2.525 4.351-3.038 6.8h-165.761c-.513-2.449-1.541-4.788-3.038-6.8l-19.723-26.498c-2.112-2.84-5.486-4.535-9.026-4.535h-41.536c-2.976 0-5.886 1.211-7.984 3.324l-22.94 23.108c-3.211 3.234-4.154 8.043-2.402 12.25 1.752 4.208 5.829 6.927 10.387 6.927h24.439c8.675 0 15.733 7.058 15.733 15.733s-7.058 15.733-15.733 15.733h-24.438c-4.558 0-8.635 2.719-10.387 6.928-1.751 4.208-.808 9.017 2.405 12.251l22.937 23.094c2.097 2.111 5.007 3.322 7.983 3.322h41.537c3.538 0 6.911-1.694 9.024-4.531l19.722-26.485c1.503-2.018 2.532-4.365 3.044-6.822h165.752c.512 2.457 1.541 4.804 3.044 6.821l19.725 26.487c2.112 2.836 5.485 4.529 9.021 4.529h41.537c2.977 0 5.886-1.211 7.982-3.322l22.938-23.094c3.212-3.234 4.156-8.043 2.404-12.251-1.751-4.208-5.828-6.928-10.387-6.928h-24.437c-8.676 0-15.733-7.058-15.733-15.733s7.058-15.732 15.734-15.732zm-252.204 35.726c0 .486-.16.969-.451 1.36l-18.598 24.976h-38.094l-15.49-15.595h15.429c16.946 0 30.733-13.787 30.733-30.733s-13.787-30.733-30.733-30.733h-15.435l15.497-15.609h38.092l18.6 24.988c.291.391.451.874.451 1.361v39.985zm15-28.502h165v17h-165zm237.204 39.242h15.429l-15.49 15.596h-38.094l-18.599-24.976c-.29-.39-.45-.873-.45-1.359v-39.986c0-.486.16-.97.451-1.36l18.599-24.989h38.092l15.497 15.609h-15.435c-16.946 0-30.733 13.787-30.733 30.733s13.787 30.732 30.733 30.732z"/><path d="m478.5 69h-30.54c-4.143 0-7.5 3.358-7.5 7.5s3.357 7.5 7.5 7.5h30.54c10.201 0 18.5 8.299 18.5 18.5v29.678h-12.314c-12.509 0-22.686 10.177-22.686 22.686v21.628c0 12.509 10.177 22.686 22.686 22.686h12.314v16.208h-12.314c-12.509 0-22.686 10.177-22.686 22.686v21.628c0 12.509 10.177 22.686 22.686 22.686h12.314v16.207h-12.314c-12.509 0-22.686 10.177-22.686 22.686v21.628c0 12.509 10.177 22.686 22.686 22.686h12.314v28.907c0 10.201-8.299 18.5-18.5 18.5h-41.713v-.895c0-7.777-6.328-14.105-14.105-14.105h-54.79c-7.777 0-14.104 6.328-14.104 14.105v.895h-33.734c-4.143 0-7.5 3.358-7.5 7.5s3.357 7.5 7.5 7.5h33.734v.895c0 7.777 6.327 14.105 14.104 14.105h54.79c7.777 0 14.105-6.328 14.105-14.105v-.895h41.713c18.472 0 33.5-15.028 33.5-33.5v-292c0-18.472-15.028-33.5-33.5-33.5zm-56.713 359h-53v-7.442c0-.02.003-.038.003-.058s-.003-.038-.003-.058v-7.442h53zm62.899-243.822c-4.238 0-7.686-3.448-7.686-7.686v-21.628c0-4.238 3.447-7.686 7.686-7.686h12.314v37zm0 83.207c-4.238 0-7.686-3.448-7.686-7.686v-21.628c0-4.238 3.447-7.686 7.686-7.686h12.314v37zm0 83.207c-4.238 0-7.686-3.448-7.686-7.686v-21.628c0-4.238 3.447-7.686 7.686-7.686h12.314v37z"/><path d="m288.239 413h-130.026v-.895c0-7.777-6.328-14.105-14.105-14.105h-54.79c-7.777 0-14.105 6.328-14.105 14.105v.895h-41.713c-10.201 0-18.5-8.299-18.5-18.5v-28.908h12.314c12.509 0 22.686-10.177 22.686-22.686v-21.628c0-12.509-10.177-22.686-22.686-22.686h-12.314v-16.207h12.314c12.509 0 22.686-10.177 22.686-22.686v-21.628c0-12.509-10.177-22.686-22.686-22.686h-12.314v-16.208h12.314c12.509 0 22.686-10.177 22.686-22.686v-21.628c0-12.509-10.177-22.686-22.686-22.686h-12.314v-29.677c0-10.201 8.299-18.5 18.5-18.5h382.367c4.143 0 7.5-3.358 7.5-7.5s-3.357-7.5-7.5-7.5h-382.367c-18.472 0-33.5 15.028-33.5 33.5v292c0 18.472 15.028 33.5 33.5 33.5h41.713v.895c0 7.777 6.328 14.105 14.105 14.105h54.79c7.777 0 14.105-6.328 14.105-14.105v-.895h130.026c4.143 0 7.5-3.358 7.5-7.5s-3.357-7.5-7.5-7.5zm-260.925-99.408c4.238 0 7.686 3.448 7.686 7.686v21.628c0 4.238-3.448 7.686-7.686 7.686h-12.314v-37zm0-83.207c4.238 0 7.686 3.448 7.686 7.686v21.628c0 4.238-3.448 7.686-7.686 7.686h-12.314v-37zm0-83.207c4.238 0 7.686 3.448 7.686 7.686v21.628c0 4.238-3.448 7.686-7.686 7.686h-12.314v-37zm62.899 280.822v-15h53v7.442c0 .02-.003.038-.003.058s.003.038.003.058v7.442z"/><path d="m331 139h-107.133c-4.142 0-7.5 3.358-7.5 7.5s3.358 7.5 7.5 7.5h107.133c15.163 0 27.5-12.336 27.5-27.5s-12.337-27.5-27.5-27.5h-150c-15.164 0-27.5 12.336-27.5 27.5s12.336 27.5 27.5 27.5h10.774c4.142 0 7.5-3.358 7.5-7.5s-3.358-7.5-7.5-7.5h-10.774c-6.893 0-12.5-5.607-12.5-12.5s5.607-12.5 12.5-12.5h150c6.893 0 12.5 5.607 12.5 12.5s-5.607 12.5-12.5 12.5z"/></g></g></svg>