<svg id="Layer_1" enable-background="new 0 0 512 512" height="512" viewBox="0 0 512 512" width="512" xmlns="http://www.w3.org/2000/svg"><g><path d="m387.626 139.31-81.237-70.4c-14.447-12.52-32.929-19.41-52.062-19.41h-135.461c-12.074 0-21.866 9.78-21.866 21.84v411.32c0 12.06 9.792 21.84 21.866 21.84h274.276c12.074 0 21.856-9.78 21.856-21.84v-283.42c.001-22.99-9.981-44.86-27.372-59.93zm-2.663 169.69c0 12.7-10.312 23-23.027 23s-23.027-10.3-23.027-23v-90c0-12.7 10.312-23 23.027-23 6.357 0 12.114 2.58 16.279 6.74s6.748 9.91 6.748 16.26z" fill="#ffde5c"/><g><path d="m387.626 139.31-81.237-70.4c-14.447-12.52-32.929-19.41-52.062-19.41h-30.036c19.133 0 37.615 6.89 52.062 19.41l81.237 70.4c17.391 15.07 27.373 36.94 27.373 59.93v283.42c0 12.06-9.782 21.84-21.856 21.84h30.036c12.074 0 21.856-9.78 21.856-21.84v-283.42c0-22.99-9.982-44.86-27.373-59.93z" fill="#ffc736"/></g><path d="m219.165 49.5h-70.083v-33.995c0-4.421 3.584-8.005 8.005-8.005h54.074c4.421 0 8.005 3.584 8.005 8.005v33.995z" fill="#497285"/><path d="m211.156 7.5h-30.036c4.423 0 8.01 3.582 8.01 8v34h30.036v-34c-.001-4.418-3.587-8-8.01-8z" fill="#426778"/><path d="m273.226 460h-176.224v-324h176.224c13.263 0 24.014 10.752 24.014 24.014v275.971c0 13.263-10.751 24.015-24.014 24.015z" fill="#ef483c"/><path d="m242.3 235h-96.328c-3.812 0-6.902-3.09-6.902-6.902v-30.197c0-3.812 3.09-6.902 6.902-6.902h96.328c3.812 0 6.902 3.09 6.902 6.902v30.197c-.001 3.812-3.091 6.902-6.902 6.902z" fill="#f1f1f1"/><g><path d="m97 95.326c4.143 0 7.5-3.358 7.5-7.5v-16.49c0-7.905 6.443-14.336 14.362-14.336h135.467c17.32 0 34.063 6.244 47.146 17.581 3.13 2.712 7.867 2.375 10.58-.756 2.713-3.13 2.374-7.867-.756-10.58-15.81-13.7-36.042-21.245-56.97-21.245h-27.665v-26.495c0-8.549-6.955-15.505-15.505-15.505h-54.074c-8.55 0-15.505 6.956-15.505 15.505v26.495h-22.718c-16.19 0-29.362 13.16-29.362 29.336v16.49c0 4.142 3.357 7.5 7.5 7.5zm59.58-79.821c0-.278.227-.505.505-.505h54.074c.278 0 .505.227.505.505v26.495h-55.084z"/><path d="m333.98 497h-215.118c-7.919 0-14.362-6.431-14.362-14.336v-15.164h168.726c17.377 0 31.514-14.137 31.514-31.514v-275.972c0-17.377-14.137-31.514-31.514-31.514h-168.726v-8.302c0-4.142-3.357-7.5-7.5-7.5s-7.5 3.358-7.5 7.5v362.466c0 16.176 13.172 29.336 29.362 29.336h215.118c4.143 0 7.5-3.358 7.5-7.5s-3.357-7.5-7.5-7.5zm-60.754-353.5c9.105 0 16.514 7.408 16.514 16.514v275.972c0 9.106-7.408 16.514-16.514 16.514h-168.726v-309z"/><path d="m392.536 133.646-56.468-48.936c-3.13-2.712-7.867-2.375-10.58.756-2.713 3.13-2.374 7.867.756 10.58l56.468 48.936c15.753 13.652 24.788 33.428 24.788 54.257v283.424c0 7.905-6.443 14.336-14.362 14.336h-27.025c-4.143 0-7.5 3.358-7.5 7.5s3.357 7.5 7.5 7.5h27.025c16.19 0 29.362-13.16 29.362-29.336v-283.423c0-25.183-10.922-49.091-29.964-65.594z"/><path d="m361.923 339.5h.027c16.825 0 30.514-13.688 30.514-30.514v-89.973c0-16.825-13.688-30.514-30.541-30.514-16.825 0-30.514 13.688-30.514 30.514v89.973c0 16.826 13.689 30.514 30.514 30.514zm-15.514-120.486c0-8.554 6.959-15.514 15.541-15.514 8.555 0 15.514 6.959 15.514 15.514v89.973c0 8.554-6.959 15.514-15.514 15.514h-.027c-8.555 0-15.514-6.959-15.514-15.514z"/><path d="m145.97 242.5h96.329c7.941 0 14.401-6.46 14.401-14.401v-30.197c0-7.941-6.46-14.401-14.401-14.401h-96.329c-7.941 0-14.401 6.46-14.401 14.401v30.197c-.001 7.941 6.459 14.401 14.401 14.401zm.598-44h95.132v29h-95.132z"/><path d="m139.068 287h110.132c4.143 0 7.5-3.358 7.5-7.5s-3.357-7.5-7.5-7.5h-110.132c-4.143 0-7.5 3.358-7.5 7.5s3.358 7.5 7.5 7.5z"/><path d="m139.068 323.5h110.132c4.143 0 7.5-3.358 7.5-7.5s-3.357-7.5-7.5-7.5h-110.132c-4.143 0-7.5 3.358-7.5 7.5s3.358 7.5 7.5 7.5z"/><path d="m139.068 360h110.132c4.143 0 7.5-3.358 7.5-7.5s-3.357-7.5-7.5-7.5h-110.132c-4.143 0-7.5 3.358-7.5 7.5s3.358 7.5 7.5 7.5z"/></g></g></svg>