<svg id="Layer_1" enable-background="new 0 0 512 512" height="512" viewBox="0 0 512 512" width="512" xmlns="http://www.w3.org/2000/svg"><g><path d="m24 68h464v60h-464z" fill="#497285"/><path d="m458 68h30v60h-30z" fill="#426778"/><path d="m478.5 444h-445c-14.359 0-26-11.641-26-26v-260h497v260c0 14.359-11.641 26-26 26z" fill="#f1f1f1"/><path d="m474.5 158v260c0 14.359-11.641 26-26 26h30c14.359 0 26-11.641 26-26v-260z" fill="#e2e2e2"/><path d="m7.5 128h497v30h-497z" fill="#ffde5c"/><path d="m474.5 128h30v30h-30z" fill="#ffc736"/><g><path d="m458 128h-60l7.341-30h45.318z" fill="#ef483c"/><path d="m114 128h-60l7.341-30h45.318z" fill="#8aeeff"/></g><path d="m154 68h204v60h-204z" fill="#426778"/><path d="m328 68h30v60h-30z" fill="#3a5a69"/><g fill="#d0d0d0"><path d="m138.331 444h-68v-100c0-18.778 15.222-34 34-34 18.778 0 34 15.222 34 34z"/><path d="m441.669 444h-68v-100c0-18.778 15.222-34 34-34 18.778 0 34 15.222 34 34z"/><path d="m290 444h-68v-100c0-18.778 15.222-34 34-34 18.778 0 34 15.222 34 34z"/></g><path d="m504.5 120.5h-9v-52.5c0-4.142-3.358-7.5-7.5-7.5h-72.436c-4.142 0-7.5 3.358-7.5 7.5s3.358 7.5 7.5 7.5h64.936v45h-16.614l-5.942-24.283c-.821-3.356-3.83-5.717-7.285-5.717h-45.317c-3.456 0-6.464 2.361-7.285 5.717l-5.942 24.283h-26.615v-45h18.474c4.142 0 7.5-3.358 7.5-7.5s-3.358-7.5-7.5-7.5h-359.974c-4.142 0-7.5 3.358-7.5 7.5v52.5h-9c-4.142 0-7.5 3.358-7.5 7.5v63.974c0 4.142 3.358 7.5 7.5 7.5s7.5-3.358 7.5-7.5v-26.474h482v252.5c0 10.201-8.299 18.5-18.5 18.5h-29.331v-20.32c0-4.142-3.358-7.5-7.5-7.5s-7.5 3.358-7.5 7.5v20.32h-53v-92.5c0-14.612 11.888-26.5 26.5-26.5s26.5 11.888 26.5 26.5v39.302c0 4.142 3.358 7.5 7.5 7.5s7.5-3.358 7.5-7.5v-39.302c0-22.883-18.617-41.5-41.5-41.5s-41.5 18.617-41.5 41.5v92.5h-68.669v-92.5c0-22.883-18.617-41.5-41.5-41.5s-41.5 18.617-41.5 41.5v92.5h-68.669v-92.5c0-22.883-18.617-41.5-41.5-41.5s-41.5 18.617-41.5 41.5v92.5h-29.331c-10.201 0-18.5-8.299-18.5-18.5v-193.82c0-4.142-3.358-7.5-7.5-7.5s-7.5 3.358-7.5 7.5v193.82c0 18.472 15.028 33.5 33.5 33.5h445c18.472 0 33.5-15.028 33.5-33.5v-290c0-4.142-3.358-7.5-7.5-7.5zm-426.669 316v-92.5c0-14.612 11.888-26.5 26.5-26.5s26.5 11.888 26.5 26.5v92.5zm151.669 0v-92.5c0-14.612 11.888-26.5 26.5-26.5s26.5 11.888 26.5 26.5v92.5zm181.727-331h33.546l3.67 15h-40.887zm-60.727-30v45h-189v-45zm-319 0h115v45h-26.614l-5.942-24.283c-.821-3.356-3.83-5.717-7.285-5.717h-45.318c-3.456 0-6.464 2.361-7.285 5.717l-5.942 24.283h-16.614zm72.943 45h-40.886l3.67-15h33.546zm-89.443 30v-15h482v15z"/></g></svg>