<svg id="Layer_1" enable-background="new 0 0 512 512" height="512" viewBox="0 0 512 512" width="512" xmlns="http://www.w3.org/2000/svg"><g><path d="m429.5 102.432v172.776c0 6.314-5.118 11.432-11.432 11.432h-303.974c-3.642 0-6.594 2.952-6.594 6.594v77.766c0 27.614-22.386 50-50 50-27.614 0-50-22.386-50-50v-160c0-66.274 53.726-120 120-120h290.568c6.314 0 11.432 5.118 11.432 11.432z" fill="#ffde5c"/><g fill="#ffc736"><path d="m77.5 293.234v77.766c0 22.388-14.715 41.336-35 47.708 4.736 1.488 9.773 2.292 15 2.292 27.614 0 50-22.386 50-50v-77.766c0-3.642 2.952-6.594 6.594-6.594h-30c-3.642 0-6.594 2.952-6.594 6.594z"/><path d="m418.068 91h-30c6.314 0 11.432 5.118 11.432 11.432v172.776c0 6.314-5.118 11.432-11.432 11.432h30c6.314 0 11.432-5.118 11.432-11.432v-172.776c0-6.314-5.118-11.432-11.432-11.432z"/></g><path d="m455.5 263.82h-26v-150h26c2.209 0 4 1.791 4 4v142c0 2.209-1.791 4-4 4z" fill="#d2d5d4"/><path d="m459.5 171.82h45v34h-45z" fill="#497285"/><path d="m128.889 340.64h-21.389v-47.406c0-3.642 2.952-6.594 6.594-6.594h29.406v39.389c0 8.069-6.542 14.611-14.611 14.611z" fill="#497285"/><path d="m357.589 237h-140.115c-11.014 0-19.942-8.928-19.942-19.942v-126.058h180v126.058c0 11.014-8.929 19.942-19.943 19.942z" fill="#ef483c"/><circle cx="83.202" cy="176.312" fill="#497285" r="23.5"/><g><path d="m202.813 279.14h-88.72c-2.914 0-5.625.889-7.875 2.41-3.75 2.535-6.219 6.826-6.219 11.683v77.767c0 23.435-19.065 42.5-42.5 42.5s-42.499-19.065-42.499-42.5v-160c0-25.595 8.373-49.71 24.215-69.736 2.57-3.249 2.02-7.965-1.229-10.535-3.249-2.569-7.967-2.02-10.535 1.229-17.959 22.702-27.451 50.035-27.451 79.042v160c0 31.706 25.794 57.5 57.5 57.5s57.5-25.794 57.5-57.5v-22.86h13.889c12.192 0 22.111-9.919 22.111-22.112v-31.888h51.813c4.143 0 7.5-3.358 7.5-7.5s-3.357-7.5-7.5-7.5zm-66.813 46.888c0 3.921-3.19 7.112-7.111 7.112h-13.889v-39h21z"/><path d="m504.5 164.319h-37.5v-46.5c0-6.341-5.159-11.5-11.5-11.5h-18.5v-3.887c0-10.439-8.493-18.932-18.932-18.932h-290.568c-27.504 0-53.697 8.621-75.748 24.931-3.33 2.463-4.033 7.16-1.57 10.49 2.464 3.33 7.159 4.033 10.49 1.57 19.45-14.387 42.558-21.991 66.828-21.991h62.531v118.558c0 15.132 12.311 27.442 27.442 27.442h140.115c15.132 0 27.442-12.311 27.442-27.442v-118.558h33.037c2.168 0 3.932 1.764 3.932 3.932v25.439c0 4.142 3.357 7.5 7.5 7.5s7.5-3.358 7.5-7.5v-6.552h15v135h-15v-96.448c0-4.142-3.357-7.5-7.5-7.5s-7.5 3.358-7.5 7.5v115.336c0 2.168-1.764 3.932-3.932 3.932h-182.64c-4.143 0-7.5 3.358-7.5 7.5s3.357 7.5 7.5 7.5h182.64c10.438 0 18.932-8.493 18.932-18.932v-3.889h18.5c6.341 0 11.5-5.159 11.5-11.5v-46.5h37.5c4.143 0 7.5-3.358 7.5-7.5v-34c.001-4.141-3.356-7.499-7.499-7.499zm-134.469 52.739c0 6.861-5.582 12.442-12.442 12.442h-140.115c-6.86 0-12.442-5.582-12.442-12.442v-118.558h165v118.558zm126.969-18.739h-30v-19h30z"/><path d="m237.359 131.93h100c4.143 0 7.5-3.358 7.5-7.5s-3.357-7.5-7.5-7.5h-100c-4.143 0-7.5 3.358-7.5 7.5s3.358 7.5 7.5 7.5z"/><path d="m237.359 166.93h100c4.143 0 7.5-3.358 7.5-7.5s-3.357-7.5-7.5-7.5h-100c-4.143 0-7.5 3.358-7.5 7.5s3.358 7.5 7.5 7.5z"/><path d="m237.359 201.93h100c4.143 0 7.5-3.358 7.5-7.5s-3.357-7.5-7.5-7.5h-100c-4.143 0-7.5 3.358-7.5 7.5s3.358 7.5 7.5 7.5z"/><path d="m83.202 207.312c17.094 0 31-13.907 31-31s-13.906-31-31-31-31 13.907-31 31 13.906 31 31 31zm0-47c8.822 0 16 7.178 16 16s-7.178 16-16 16-16-7.178-16-16 7.178-16 16-16z"/></g></g></svg>