<svg id="Layer_1" enable-background="new 0 0 512 512" height="512" viewBox="0 0 512 512" width="512" xmlns="http://www.w3.org/2000/svg"><g><g fill="#d2d5d4"><path d="m77 290.5h-45.904c-5.576 0-10.096-4.52-10.096-10.096v-17.808c0-5.576 4.52-10.096 10.096-10.096h26.051c10.965 0 19.853 8.888 19.853 19.853z"/><path d="m435 290.5h45.904c5.576 0 10.096-4.52 10.096-10.096v-17.808c0-5.576-4.52-10.096-10.096-10.096h-26.051c-10.964 0-19.853 8.888-19.853 19.853z"/></g><g><path d="m115 504.5h-38c-6.627 0-12-5.373-12-12v-104c0-6.627 5.373-12 12-12h38c6.627 0 12 5.373 12 12v104c0 6.627-5.373 12-12 12z" fill="#497285"/><path d="m115 376.5h-30c6.627 0 12 5.373 12 12v104c0 6.627-5.373 12-12 12h30c6.627 0 12-5.373 12-12v-104c0-6.627-5.373-12-12-12z" fill="#426778"/><path d="m429 504.5h-38c-6.627 0-12-5.373-12-12v-104c0-6.627 5.373-12 12-12h38c6.627 0 12 5.373 12 12v104c0 6.627-5.373 12-12 12z" fill="#497285"/><path d="m429 376.5h-30c6.627 0 12 5.373 12 12v104c0 6.627-5.373 12-12 12h30c6.627 0 12-5.373 12-12v-104c0-6.627-5.373-12-12-12z" fill="#426778"/></g><path d="m440 284.5h-368l16.21-138h335.58z" fill="#b9f5ff"/><path d="m423.79 146.5h-30l16.21 138h30z" fill="#8aeeff"/><path d="m424.154 146.5h-336.308c-4.333 0-7.846-3.513-7.846-7.846 0-11.131 9.023-20.154 20.154-20.154h311.692c11.131 0 20.154 9.023 20.154 20.154 0 4.333-3.513 7.846-7.846 7.846z" fill="#ffde5c"/><path d="m411.846 118.5h-30c11.131 0 20.154 9.023 20.154 20.154 0 4.333-3.513 7.846-7.846 7.846h30c4.333 0 7.846-3.513 7.846-7.846 0-11.131-9.023-20.154-20.154-20.154z" fill="#ffc736"/><path d="m453.231 414.5h-394.462c-10.918 0-19.769-8.851-19.769-19.769v-72.885c0-26.149 21.198-47.346 47.346-47.346h339.308c26.149 0 47.346 21.198 47.346 47.346v72.885c0 10.918-8.851 19.769-19.769 19.769z" fill="#ffde5c"/><path d="m425.654 274.5h-30c26.149 0 47.346 21.198 47.346 47.346v72.885c0 10.918-8.851 19.769-19.769 19.769h30c10.918 0 19.769-8.851 19.769-19.769v-72.885c0-26.148-21.198-47.346-47.346-47.346z" fill="#ffc736"/><path d="m459 454.5h-406c-7.732 0-14-6.268-14-14v-12c0-7.732 6.268-14 14-14h406c7.732 0 14 6.268 14 14v12c0 7.732-6.268 14-14 14z" fill="#d2d5d4"/><path d="m459 414.5h-30c7.732 0 14 6.268 14 14v12c0 7.732-6.268 14-14 14h30c7.732 0 14-6.268 14-14v-12c0-7.732-6.268-14-14-14z" fill="#c7c9c8"/><path d="m124.821 380.5h-37.436c-10.154 0-18.385-8.231-18.385-18.385v-13.346c0-12.299 9.97-22.269 22.269-22.269h15.91c19.783 0 35.821 16.037 35.821 35.821 0 10.04-8.139 18.179-18.179 18.179z" fill="#b9f5ff"/><path d="m107.18 326.5h-15.91c-2.153 0-4.233.312-6.202.882 15.985 3.594 27.932 17.867 27.932 34.938 0 10.04-8.139 18.179-18.179 18.179h30c10.04 0 18.179-8.139 18.179-18.179 0-19.783-16.037-35.82-35.82-35.82z" fill="#8aeeff"/><path d="m387.179 380.5h37.436c10.154 0 18.385-8.231 18.385-18.385v-13.346c0-12.299-9.97-22.269-22.269-22.269h-15.91c-19.783 0-35.821 16.037-35.821 35.821 0 10.04 8.139 18.179 18.179 18.179z" fill="#b9f5ff"/><path d="m420.731 326.5h-15.91c-2.711 0-5.348.311-7.887.882 9.28 2.687 16.067 11.242 16.067 21.387v13.346c0 10.154-8.231 18.385-18.385 18.385h30c10.154 0 18.385-8.231 18.385-18.385v-13.346c-.001-12.299-9.971-22.269-22.27-22.269z" fill="#8aeeff"/><path d="m296.5 391.5h-81c-17.673 0-32-14.327-32-32 0-17.673 14.327-32 32-32h81c17.673 0 32 14.327 32 32 0 17.673-14.327 32-32 32z" fill="#497285"/><path d="m391.052 304.504h-270.104c-5.263 0-10.221-2.473-13.387-6.677l-17.561-23.323h332l-17.562 23.323c-3.166 4.204-8.123 6.677-13.386 6.677z" fill="#ffc736"/><path d="m219.123 53.132c0 18.951-10.646 30.796-23.779 30.796s-23.779-11.845-23.779-30.796 16.207-45.632 23.779-45.632c7.571 0 23.779 26.68 23.779 45.632z" fill="#b9f5ff"/><path d="m195.089 7.5c-.756 0-1.601.277-2.505.775 2.861 6.994 4.811 14.492 4.811 21.062 0 18.951-10.646 30.796-23.779 30.796-.605 0-1.203-.034-1.797-.083 2.26 14.87 11.819 23.878 23.271 23.878 13.133 0 23.779-11.845 23.779-30.796s-16.208-45.632-23.78-45.632z" fill="#8aeeff"/><path d="m336.06 98.761c0 18.951-10.646 30.796-23.779 30.796s-23.779-11.845-23.779-30.796 16.208-45.631 23.779-45.631 23.779 26.68 23.779 45.631z" fill="#b9f5ff"/><path d="m312.281 53.13c-.756 0-1.601.277-2.505.775 2.861 6.994 4.811 14.492 4.811 21.062 0 18.951-10.646 30.796-23.779 30.796-.605 0-1.203-.034-1.797-.083 2.26 14.87 11.819 23.878 23.271 23.878 13.133 0 23.779-11.845 23.779-30.796s-16.209-45.632-23.78-45.632z" fill="#8aeeff"/><g><path d="m480.9 245h-26.05c-4.094 0-8.05.93-11.632 2.616l-11.248-95.771c1.09-.648 2.115-1.421 3.035-2.342 2.898-2.9 4.495-6.754 4.495-10.853 0-15.246-12.408-27.65-27.66-27.65h-69.736c.945-3.799 1.454-7.9 1.454-12.239 0-13.982-6.984-28.122-9.987-33.552-8.948-16.183-16.518-19.58-21.292-19.58-8.649 0-16.353 10.647-21.292 19.58-3.003 5.43-9.987 19.57-9.987 33.552 0 4.339.509 8.44 1.454 12.239h-124.72c-4.143 0-7.5 3.358-7.5 7.5s3.357 7.5 7.5 7.5h131.93c5.565 6.937 13.453 11.057 22.615 11.057s17.05-4.12 22.615-11.057h76.947c6.98 0 12.66 5.675 12.66 12.65 0 .043 0 .144-.104.247-.047.047-.128.103-.246.103h-336.311c-.19 0-.34-.154-.34-.35 0-3.381 1.315-6.559 3.697-8.94 2.398-2.393 5.578-3.71 8.953-3.71h25.121c4.143 0 7.5-3.358 7.5-7.5s-3.357-7.5-7.5-7.5h-25.121c-7.375 0-14.316 2.873-19.553 8.096-5.222 5.221-8.098 12.166-8.098 19.554 0 5.608 3.031 10.51 7.531 13.188l-11.249 95.777c-3.581-1.685-7.536-2.615-11.631-2.615h-26.06c-9.699 0-17.59 7.896-17.59 17.6v17.8c0 9.705 7.891 17.6 17.59 17.6h5.871c-3.498 7.215-5.462 15.305-5.462 23.846v72.885c0 6.924 2.599 13.25 6.866 18.064-4.211 3.927-6.864 9.506-6.864 15.705v12c0 11.855 9.645 21.5 21.5 21.5h4.5v30.5c0 10.752 8.748 19.5 19.5 19.5h38c10.752 0 19.5-8.748 19.5-19.5v-30.5h55.287c4.143 0 7.5-3.358 7.5-7.5s-3.357-7.5-7.5-7.5h-136.788c-3.584 0-6.5-2.916-6.5-6.5v-12c0-3.584 2.916-6.5 6.5-6.5h406c3.584 0 6.5 2.916 6.5 6.5v12c0 3.584-2.916 6.5-6.5 6.5h-236.905c-4.143 0-7.5 3.358-7.5 7.5s3.357 7.5 7.5 7.5h149.405v30.5c0 10.752 8.748 19.5 19.5 19.5h38c10.752 0 19.5-8.748 19.5-19.5v-30.5h10.5c11.855 0 21.5-9.645 21.5-21.5v-12c0-6.2-2.654-11.779-6.866-15.707 4.266-4.814 6.865-11.139 6.865-18.062v-10.346c0-4.142-3.357-7.5-7.5-7.5s-7.5 3.358-7.5 7.5v10.346c0 6.765-5.504 12.269-12.27 12.269h-394.462c-6.765 0-12.269-5.504-12.269-12.269v-72.885c0-21.942 17.828-39.796 39.758-39.844l15.312 20.336c4.558 6.052 11.802 9.666 19.378 9.666h270.104c7.576 0 14.819-3.613 19.377-9.666l15.313-20.336c21.931.048 39.758 17.902 39.758 39.844v30.128c0 4.142 3.357 7.5 7.5 7.5s7.5-3.358 7.5-7.5v-30.128c0-8.541-1.965-16.632-5.463-23.846h5.865c9.704 0 17.6-7.896 17.6-17.6v-17.8c0-9.704-7.896-17.6-17.6-17.6zm-168.622-122.943c-9.585 0-16.279-9.58-16.279-23.296 0-14.379 10.899-33.118 16.279-37.55 5.38 4.432 16.279 23.17 16.279 37.55.001 13.717-6.694 23.296-16.279 23.296zm-192.778 370.443c0 2.481-2.019 4.5-4.5 4.5h-38c-2.481 0-4.5-2.019-4.5-4.5v-30.5h47zm314 0c0 2.481-2.019 4.5-4.5 4.5h-38c-2.481 0-4.5-2.019-4.5-4.5v-30.5h47zm-16.381-338.5 13.297 113.22c-1.572-.136-3.158-.22-4.765-.22h-115.091l71.327-77.701c2.801-3.051 2.598-7.796-.453-10.597-3.052-2.802-7.796-2.599-10.598.453l-80.638 87.845h-142.217l71.328-77.701c2.801-3.051 2.598-7.796-.453-10.597-3.053-2.802-7.796-2.599-10.598.453l-80.639 87.845h-41.275c-1.605 0-3.19.084-4.76.22l13.297-113.22zm-388.619 126.4v-17.8c0-1.434 1.162-2.6 2.59-2.6h26.06c3.78 0 7.307 1.737 9.633 4.634l-.737 6.276c-6.931 2.772-13.175 6.907-18.38 12.09h-16.576c-1.428 0-2.59-1.167-2.59-2.6zm369.944 12.915c-1.739 2.31-4.504 3.688-7.395 3.688h-270.103c-2.892 0-5.656-1.379-7.396-3.688l-8.517-11.312h301.928zm85.056-12.915c0 1.434-1.166 2.6-2.6 2.6h-16.571c-5.205-5.182-11.446-9.316-18.375-12.088l-.737-6.278c2.326-2.897 5.854-4.634 9.633-4.634h26.05c1.434 0 2.6 1.167 2.6 2.6z"/><path d="m91.267 319c-16.414 0-29.769 13.354-29.769 29.769v13.346c0 14.273 11.611 25.885 25.884 25.885h37.437c14.16 0 25.68-11.52 25.68-25.68 0-23.887-19.434-43.32-43.321-43.32zm44.231 43.321c0 5.889-4.791 10.679-10.68 10.679h-37.436c-6.001 0-10.884-4.883-10.884-10.885v-13.346c0-8.144 6.625-14.769 14.769-14.769h15.91c15.616 0 28.321 12.705 28.321 28.321z"/><path d="m404.818 319c-23.887 0-43.32 19.434-43.32 43.321 0 14.16 11.52 25.679 25.679 25.679h37.437c14.272 0 25.885-11.612 25.885-25.885v-13.346c0-16.415-13.354-29.769-29.77-29.769zm30.68 29.769v13.346c0 6.002-4.883 10.885-10.885 10.885h-37.437c-5.889 0-10.679-4.791-10.679-10.68 0-15.616 12.704-28.32 28.32-28.32h15.91c8.145 0 14.771 6.625 14.771 14.769z"/><path d="m215.498 320c-21.78 0-39.5 17.72-39.5 39.5s17.72 39.5 39.5 39.5h81c21.78 0 39.5-17.72 39.5-39.5s-17.72-39.5-39.5-39.5zm105.5 39.5c0 13.509-10.99 24.5-24.5 24.5h-81c-13.51 0-24.5-10.991-24.5-24.5s10.99-24.5 24.5-24.5h81c13.51 0 24.5 10.991 24.5 24.5z"/><path d="m195.342 91.428c18.124 0 31.279-16.106 31.279-38.296 0-13.982-6.984-28.122-9.987-33.552-8.948-16.183-16.518-19.58-21.292-19.58-8.649 0-16.353 10.647-21.292 19.58-3.003 5.43-9.987 19.57-9.987 33.552 0 22.19 13.155 38.296 31.279 38.296zm0-75.846c5.38 4.432 16.279 23.171 16.279 37.55 0 13.716-6.694 23.296-16.279 23.296s-16.279-9.58-16.279-23.296c0-14.38 10.899-33.118 16.279-37.55z"/></g></g></svg>