<svg id="Layer_1" enable-background="new 0 0 512 512" height="512" viewBox="0 0 512 512" width="512" xmlns="http://www.w3.org/2000/svg"><g><path d="m419.173 326.5h-399.673c-6.627 0-12-5.373-12-12v-66c0-6.627 5.373-12 12-12h399.673c5.703 0 10.327 4.624 10.327 10.327v69.346c0 5.703-4.624 10.327-10.327 10.327z" fill="#d2d5d4"/><path d="m103.5 326.5h-84c-6.627 0-12-5.373-12-12v-66c0-6.627 5.373-12 12-12h84z" fill="#497285"/><path d="m419.173 236.5h-30c5.703 0 10.327 4.624 10.327 10.327v69.346c0 5.703-4.624 10.327-10.327 10.327h30c5.703 0 10.327-4.624 10.327-10.327v-69.346c0-5.703-4.624-10.327-10.327-10.327z" fill="#c7c9c8"/><path d="m453.981 309.5h-24.481v-56h24.481c3.048 0 5.519 2.471 5.519 5.519v44.962c0 3.048-2.471 5.519-5.519 5.519z" fill="#497285"/><path d="m501.494 296.87-41.994 5.168v-41.077l41.994 5.168c1.716.211 3.006 1.669 3.006 3.399v23.943c0 1.73-1.29 3.188-3.006 3.399z" fill="#d2d5d4"/><path d="m362.577 195.5h-61.154c-25.086 0-45.423-20.337-45.423-45.423v-74.577h152v74.577c0 25.086-20.337 45.423-45.423 45.423z" fill="#d2d5d4"/><path d="m378 75.5v74.577c0 25.086-20.337 45.423-45.423 45.423h30c25.086 0 45.423-20.337 45.423-45.423v-74.577z" fill="#c7c9c8"/><path d="m142.97 326.5h60v110h-60z" fill="#497285"/><path d="m316 195.5h32v41h-32z" fill="#497285"/><path d="m187.97 213.5h-30c-8.284 0-15-6.716-15-15 0-8.284 6.716-15 15-15h30c8.284 0 15 6.716 15 15 0 8.284-6.716 15-15 15z" fill="#d2d5d4"/><path d="m187.969 183.5h-30c8.284 0 15 6.716 15 15s-6.716 15-15 15h30c8.284 0 15-6.716 15-15s-6.715-15-15-15z" fill="#c7c9c8"/><path d="m202.97 466.5h-60c-8.284 0-15-6.716-15-15 0-8.284 6.716-15 15-15h60c8.284 0 15 6.716 15 15 0 8.284-6.716 15-15 15z" fill="#d2d5d4"/><path d="m202.969 436.5h-30c8.284 0 15 6.716 15 15 0 8.284-6.716 15-15 15h30c8.284 0 15-6.716 15-15 0-8.284-6.715-15-15-15z" fill="#c7c9c8"/><path d="m408 75.5h-152c-8.284 0-15-6.716-15-15 0-8.284 6.716-15 15-15h152c8.284 0 15 6.716 15 15 0 8.284-6.716 15-15 15z" fill="#497285"/><path d="m502.41 258.686-36.341-4.473c-1.917-4.805-6.609-8.213-12.089-8.213h-17.022c-.437-9.445-8.234-17-17.785-17h-63.673v-26h7.077c29.182 0 52.923-23.741 52.923-52.923v-68.367c8.729-3.096 15-11.432 15-21.21 0-12.407-10.094-22.5-22.5-22.5h-23.577c-4.143 0-7.5 3.358-7.5 7.5s3.357 7.5 7.5 7.5h23.577c4.136 0 7.5 3.364 7.5 7.5s-3.364 7.5-7.5 7.5h-152c-4.136 0-7.5-3.364-7.5-7.5s3.364-7.5 7.5-7.5h96.051c4.143 0 7.5-3.358 7.5-7.5s-3.357-7.5-7.5-7.5h-96.051c-12.406 0-22.5 10.093-22.5 22.5 0 9.777 6.271 18.114 15 21.21v68.367c0 29.182 23.741 52.923 52.923 52.923h7.077v26h-128.03v-8h7.5c12.406 0 22.5-10.093 22.5-22.5s-10.094-22.5-22.5-22.5h-30c-12.406 0-22.5 10.093-22.5 22.5s10.094 22.5 22.5 22.5h7.5v8h-101.418c-4.143 0-7.5 3.358-7.5 7.5s3.357 7.5 7.5 7.5h31.948v75h-76.5c-2.481 0-4.5-2.019-4.5-4.5v-66c0-2.481 2.019-4.5 4.5-4.5h12.459c4.143 0 7.5-3.358 7.5-7.5s-3.357-7.5-7.5-7.5h-12.459c-10.752 0-19.5 8.748-19.5 19.5v66c0 10.752 8.748 19.5 19.5 19.5h115.97v96.29c-8.729 3.096-15 11.433-15 21.21 0 12.407 10.094 22.5 22.5 22.5h60c12.406 0 22.5-10.093 22.5-22.5 0-9.777-6.271-18.114-15-21.21v-13.863c0-4.142-3.357-7.5-7.5-7.5s-7.5 3.358-7.5 7.5v12.573h-45v-95h45v49.775c0 4.142 3.357 7.5 7.5 7.5s7.5-3.358 7.5-7.5v-49.775h208.703c9.551 0 17.349-7.555 17.785-17h17.022c5.48 0 10.172-3.409 12.089-8.213l36.341-4.473h.001c5.467-.673 9.589-5.334 9.589-10.843v-23.942c0-5.508-4.122-10.17-9.59-10.843zm-351.94-60.186c0-4.136 3.364-7.5 7.5-7.5h30c4.136 0 7.5 3.364 7.5 7.5s-3.364 7.5-7.5 7.5h-30c-4.136 0-7.5-3.364-7.5-7.5zm52.5 245.5c4.136 0 7.5 3.364 7.5 7.5s-3.364 7.5-7.5 7.5h-60c-4.136 0-7.5-3.364-7.5-7.5s3.364-7.5 7.5-7.5zm60.53-293.923v-67.077h137v67.077c0 20.911-17.012 37.923-37.923 37.923h-61.154c-20.911 0-37.923-17.012-37.923-37.923zm60 52.923h17v26h-17zm98.5 113.173c0 1.559-1.269 2.827-2.827 2.827h-308.173v-75h308.173c1.559 0 2.827 1.268 2.827 2.827zm15-55.173h15v41h-15zm60 28.867-30 3.692v-24.118l30 3.692z"/></g></svg>