<svg id="Layer_1" enable-background="new 0 0 512 512" height="512" viewBox="0 0 512 512" width="512" xmlns="http://www.w3.org/2000/svg"><g><path d="m53.5 379.298h-28.409c-9.715 0-17.591-7.876-17.591-17.591v-211.413c0-9.715 7.876-17.591 17.591-17.591h28.409z" fill="#d2d5d4"/><path d="m486.909 379.298h-28.409v-246.596h28.409c9.715 0 17.591 7.876 17.591 17.591v211.413c0 9.716-7.876 17.592-17.591 17.592z" fill="#d2d5d4"/><path d="m486.909 132.702h-28.409v.08c8.969.805 16 8.333 16 17.511v211.413c0 9.178-7.031 16.705-16 17.511v.08h28.409c9.715 0 17.591-7.876 17.591-17.591v-211.413c0-9.715-7.876-17.591-17.591-17.591z" fill="#c7c9c8"/><path d="m454.558 398h-397.116c-2.177 0-3.942-1.765-3.942-3.942v-276.116c0-2.177 1.765-3.942 3.942-3.942h397.115c2.177 0 3.942 1.765 3.942 3.942v276.115c.001 2.178-1.764 3.943-3.941 3.943z" fill="#426778"/><path d="m454.558 114h-30c2.177 0 3.942 1.765 3.942 3.942v276.115c0 2.177-1.765 3.942-3.942 3.942h30c2.177 0 3.942-1.765 3.942-3.942v-276.115c0-2.177-1.765-3.942-3.942-3.942z" fill="#3a5a69"/><path d="m83.5 364.058v-216.116c0-2.177 1.765-3.942 3.942-3.942h337.115c2.177 0 3.942 1.765 3.942 3.942v216.115c0 2.177-1.765 3.942-3.942 3.942h-337.115c-2.177.001-3.942-1.764-3.942-3.941z" fill="#497285"/><g><path d="m486.909 125.203h-20.909v-7.26c0-6.31-5.133-11.442-11.442-11.442h-38.135c-4.143 0-7.5 3.358-7.5 7.5s3.357 7.5 7.5 7.5h34.577v269h-390v-269h322.865c4.143 0 7.5-3.358 7.5-7.5s-3.357-7.5-7.5-7.5h-326.423c-6.31 0-11.442 5.133-11.442 11.442v7.26h-20.909c-13.835 0-25.091 11.255-25.091 25.09v41.388c0 4.142 3.357 7.5 7.5 7.5s7.5-3.358 7.5-7.5v-15.489h11.538c4.143 0 7.5-3.358 7.5-7.5s-3.357-7.5-7.5-7.5h-11.538v-10.899c0-5.564 4.526-10.091 10.091-10.091h20.909v231.595h-20.909c-5.564 0-10.091-4.527-10.091-10.091v-10.899h11.538c4.143 0 7.5-3.358 7.5-7.5s-3.357-7.5-7.5-7.5h-11.538v-72.307h11.538c4.143 0 7.5-3.358 7.5-7.5s-3.357-7.5-7.5-7.5h-11.538v-24.632c0-4.142-3.357-7.5-7.5-7.5s-7.5 3.358-7.5 7.5v137.839c0 13.835 11.256 25.091 25.091 25.091h20.909v7.26c0 6.31 5.133 11.442 11.442 11.442h397.115c6.31 0 11.442-5.133 11.442-11.442v-7.26h20.909c13.835 0 25.091-11.256 25.091-25.091v-211.414c.001-13.835-11.255-25.09-25.09-25.09zm0 246.594h-20.909v-231.594h20.909c5.564 0 10.091 4.527 10.091 10.091v10.899h-11.538c-4.143 0-7.5 3.358-7.5 7.5s3.357 7.5 7.5 7.5h11.538v72.307h-11.538c-4.143 0-7.5 3.358-7.5 7.5s3.357 7.5 7.5 7.5h11.538v72.308h-11.538c-4.143 0-7.5 3.358-7.5 7.5s3.357 7.5 7.5 7.5h11.538v10.899c0 5.564-4.526 10.09-10.091 10.09z"/><path d="m160.051 360.5c-4.143 0-7.5 3.358-7.5 7.5s3.357 7.5 7.5 7.5h264.507c6.31 0 11.442-5.133 11.442-11.442v-216.116c0-6.309-5.133-11.442-11.442-11.442h-337.116c-6.31 0-11.442 5.133-11.442 11.442v216.115c0 6.309 5.133 11.442 11.442 11.442h39.958c4.143 0 7.5-3.358 7.5-7.5s-3.357-7.5-7.5-7.5h-36.4v-12.715h330v12.716zm260.949-133.122v9.082h-330v-9.082zm-330-15v-9.081h330v9.081zm330 39.081v9.081h-330v-9.081zm0 24.082v9.082h-330v-9.082zm0-87.244h-330v-9.082h330zm-330 111.325h330v9.081h-330zm330-148.122v12.715h-330v-12.715zm-330 181.285v-9.082h330v9.082z"/></g></g></svg>