<svg id="Layer_1" enable-background="new 0 0 512 512" height="512" viewBox="0 0 512 512" width="512" xmlns="http://www.w3.org/2000/svg"><g><path d="m237.5 44.5c-127.03 0-230 102.97-230 230s102.97 230 230 230 230-102.97 230-230-102.97-230-230-230zm0 320.88c-50.19 0-90.88-40.69-90.88-90.88s40.69-90.88 90.88-90.88 90.88 40.69 90.88 90.88-40.69 90.88-90.88 90.88z" fill="#d2d5d4"/><g><path d="m237.5 44.5c-5.041 0-10.04.18-15 .5 120.036 7.729 215 107.511 215 229.5s-94.964 221.771-215 229.5c4.96.319 9.959.5 15 .5 127.03 0 230-102.97 230-230s-102.97-230-230-230z" fill="#c7c9c8"/></g><path d="m237.5 152.5c-67.38 0-122 54.62-122 122s54.62 122 122 122 122-54.62 122-122-54.62-122-122-122zm0 212.88c-50.19 0-90.88-40.69-90.88-90.88s40.69-90.88 90.88-90.88 90.88 40.69 90.88 90.88-40.69 90.88-90.88 90.88z" fill="#497285"/><path d="m420.28 88.955c-53.365-52.653-125.79-81.455-200.757-81.455h-22.112c-8.235 0-14.91 6.676-14.91 14.91v48.561c0 8.235 6.676 14.91 14.91 14.91h24.28c112.902 0 204.428 91.525 204.428 204.428v24.28c0 8.235 6.676 14.91 14.91 14.91h48.561c8.235 0 14.91-6.676 14.91-14.91v-24.28c0-76.192-29.927-147.785-84.22-201.354z" fill="#ef483c"/><path d="m420.28 88.955c-53.365-52.653-125.79-81.455-200.757-81.455h-22.113c-.511 0-1.016.026-1.515.076 72.689 1.584 142.534 30.22 194.385 81.379 54.293 53.569 84.22 125.162 84.22 201.354v24.281c0 8.235-6.676 14.91-14.91 14.91h30c8.235 0 14.91-6.676 14.91-14.91v-24.281c0-76.192-29.927-147.785-84.22-201.354z" fill="#de4135"/><path d="m420.28 88.955c-18.705-18.456-39.759-33.969-62.437-46.351l-7.264 7.264c-7.674 7.674-7.674 20.116 0 27.79l78.412 78.412c7.674 7.674 20.116 7.674 27.79 0l8.92-8.92c-12.382-21.024-27.576-40.588-45.421-58.195z" fill="#497285"/><path d="m357.654 42.503-7.075 7.365c-1.334 1.333-2.42 2.818-3.29 4.389 15.333 10.051 29.752 21.635 42.991 34.698 21.924 21.631 39.869 46.204 53.48 72.829 4.734-.209 9.407-2.099 13.021-5.714l8.92-8.92c-12.383-21.024-27.576-40.588-45.421-58.195-18.757-18.507-39.876-34.053-62.626-46.452z" fill="#426778"/><circle cx="227" cy="47" fill="#497285" r="15"/><circle cx="466" cy="291" fill="#497285" r="15"/><g><path d="m108 274.5c0 71.406 58.093 129.5 129.5 129.5 12.099 0 24.078-1.668 35.603-4.958 3.983-1.137 6.29-5.287 5.153-9.271-1.137-3.982-5.286-6.288-9.271-5.153-10.186 2.907-20.779 4.382-31.485 4.382-63.136 0-114.5-51.364-114.5-114.5s51.364-114.5 114.5-114.5 114.5 51.364 114.5 114.5c0 20.112-5.286 39.891-15.286 57.197-9.708 16.801-23.63 30.972-40.261 40.981-3.549 2.136-4.694 6.744-2.558 10.293 2.135 3.549 6.743 4.695 10.293 2.559 18.8-11.315 34.539-27.335 45.514-46.328 11.316-19.585 17.298-41.959 17.298-64.702 0-71.406-58.093-129.5-129.5-129.5s-129.5 58.094-129.5 129.5z"/><path d="m335.885 274.5c0-54.25-44.135-98.385-98.385-98.385s-98.385 44.135-98.385 98.385 44.135 98.385 98.385 98.385 98.385-44.135 98.385-98.385zm-98.385 83.385c-45.979 0-83.385-37.406-83.385-83.385s37.406-83.385 83.385-83.385 83.385 37.406 83.385 83.385-37.406 83.385-83.385 83.385z"/><path d="m227.308 120.726v-4c0-4.143-3.358-7.5-7.5-7.5s-7.5 3.357-7.5 7.5v4c0 4.143 3.358 7.5 7.5 7.5s7.5-3.358 7.5-7.5z"/><path d="m212.308 428.274v4c0 4.143 3.358 7.5 7.5 7.5s7.5-3.357 7.5-7.5v-4c0-4.143-3.358-7.5-7.5-7.5s-7.5 3.358-7.5 7.5z"/><path d="m247.692 469.197v4c0 4.143 3.358 7.5 7.5 7.5s7.5-3.357 7.5-7.5v-4c0-4.143-3.358-7.5-7.5-7.5s-7.5 3.358-7.5 7.5z"/><path d="m114.812 116.186c-2.929-2.93-7.678-2.929-10.606.001-2.929 2.929-2.928 7.678.001 10.606l2.829 2.828c1.464 1.465 3.383 2.196 5.303 2.196s3.839-.732 5.304-2.197c2.929-2.929 2.928-7.678-.001-10.606z"/><path d="m118.729 170.144c-2.929-2.928-7.678-2.928-10.606 0-2.929 2.93-2.929 7.678 0 10.607l2.828 2.828c1.464 1.464 3.384 2.196 5.303 2.196s3.839-.732 5.303-2.196c2.929-2.93 2.929-7.678 0-10.607z"/><path d="m328.422 390.441c-2.929 2.929-2.93 7.678-.001 10.606l2.829 2.829c1.464 1.465 3.384 2.197 5.304 2.197 1.919 0 3.838-.732 5.303-2.196 2.929-2.929 2.93-7.678.001-10.606l-2.829-2.829c-2.929-2.929-7.678-2.928-10.607-.001z"/><path d="m382.379 404.966 2.829 2.828c1.464 1.465 3.383 2.196 5.303 2.196s3.839-.732 5.304-2.197c2.929-2.929 2.928-7.678-.001-10.606l-2.829-2.828c-2.929-2.93-7.678-2.929-10.606.001-2.929 2.928-2.929 7.677 0 10.606z"/><path d="m38.802 264.308h4c4.142 0 7.5-3.357 7.5-7.5s-3.358-7.5-7.5-7.5h-4c-4.142 0-7.5 3.357-7.5 7.5s3.358 7.5 7.5 7.5z"/><path d="m83.726 284.692h-4c-4.142 0-7.5 3.357-7.5 7.5s3.358 7.5 7.5 7.5h4c4.142 0 7.5-3.357 7.5-7.5s-3.358-7.5-7.5-7.5z"/><path d="m395.274 299.692c4.142 0 7.5-3.357 7.5-7.5s-3.358-7.5-7.5-7.5h-4c-4.142 0-7.5 3.357-7.5 7.5s3.358 7.5 7.5 7.5z"/><path d="m82.015 394.358-2.829 2.828c-2.929 2.929-2.93 7.678-.001 10.606 1.464 1.465 3.384 2.197 5.304 2.197 1.919 0 3.838-.732 5.303-2.196l2.829-2.828c2.929-2.929 2.93-7.678.001-10.606-2.929-2.929-7.678-2.928-10.607-.001z"/><path d="m135.972 390.442-2.829 2.829c-2.929 2.929-2.928 7.678.001 10.606 1.464 1.465 3.383 2.196 5.303 2.196s3.839-.732 5.304-2.197l2.829-2.829c2.929-2.929 2.928-7.678-.001-10.606-2.93-2.929-7.679-2.928-10.607.001z"/><path d="m364.049 183.579 2.828-2.828c2.929-2.93 2.929-7.678 0-10.607-2.929-2.928-7.678-2.928-10.606 0l-2.828 2.828c-2.929 2.93-2.929 7.678 0 10.607 1.464 1.464 3.384 2.196 5.303 2.196s3.838-.732 5.303-2.196z"/><path d="m425.548 83.616c-23.583-23.268-50.909-42.187-81.218-56.231-3.759-1.743-8.217-.106-9.958 3.651-1.741 3.758-.106 8.217 3.652 9.958 2.456 1.138 4.882 2.322 7.296 3.527l-.044.043c-10.586 10.586-10.586 27.812 0 38.397l78.413 78.412c5.293 5.293 12.245 7.939 19.198 7.938 6.952 0 13.906-2.646 19.199-7.938l1.962-1.962c21.526 39.719 32.952 84.401 32.952 130.899v24.28c0 4.086-3.324 7.41-7.411 7.41h-48.561c-4.086 0-7.41-3.324-7.41-7.41v-24.28c0-116.857-95.07-211.928-211.928-211.928h-24.28c-4.086 0-7.411-3.324-7.411-7.411v-48.561c0-4.086 3.324-7.41 7.411-7.41h22.112c30.612 0 60.765 4.887 89.623 14.524 3.928 1.314 8.178-.809 9.49-4.737s-.809-8.178-4.738-9.489c-30.392-10.152-62.144-15.298-94.374-15.298h-22.112c-12.358 0-22.411 10.053-22.411 22.41v22.905c-58.962 16.074-110.412 55.184-141.812 108.024-2.116 3.561-.945 8.162 2.616 10.278 1.202.714 2.521 1.054 3.824 1.054 2.559 0 5.053-1.311 6.455-3.67 28.72-48.33 75.337-84.386 128.917-100.084v10.054c0 12.357 10.053 22.411 22.411 22.411h24.28c108.586 0 196.928 88.342 196.928 196.928v24.28c0 12.357 10.053 22.41 22.41 22.41h10.064c-12.824 43.788-39.301 83.21-75.286 111.804-39.682 31.53-87.507 48.196-138.307 48.196-59.434 0-115.309-23.144-157.333-65.167-42.023-42.023-65.167-97.898-65.167-157.333 0-29.779 5.783-58.683 17.187-85.906 1.601-3.82-.199-8.215-4.02-9.815-3.82-1.6-8.215.2-9.815 4.021-12.178 29.067-18.352 59.92-18.352 91.7 0 63.44 24.704 123.083 69.561 167.939s104.498 69.561 167.939 69.561c54.224 0 105.276-17.792 147.638-51.452 39.551-31.427 68.339-75.123 81.538-123.548h22.913c12.358 0 22.411-10.053 22.411-22.41v-24.28c0-78.283-30.703-151.687-86.452-206.694zm25.931 67.151c-4.738 4.737-12.446 4.739-17.184 0l-78.413-78.412c-2.295-2.295-3.559-5.346-3.559-8.592 0-3.245 1.264-6.296 3.559-8.591l3.266-3.266c20.412 11.683 39.134 25.881 55.865 42.388 15.969 15.756 29.754 33.112 41.241 51.698z"/><path d="m204.5 47c0 12.406 10.093 22.5 22.5 22.5s22.5-10.094 22.5-22.5-10.093-22.5-22.5-22.5-22.5 10.094-22.5 22.5zm30 0c0 4.136-3.364 7.5-7.5 7.5s-7.5-3.364-7.5-7.5 3.364-7.5 7.5-7.5 7.5 3.364 7.5 7.5z"/><path d="m488.5 291c0-12.406-10.093-22.5-22.5-22.5s-22.5 10.094-22.5 22.5 10.093 22.5 22.5 22.5 22.5-10.094 22.5-22.5zm-30 0c0-4.136 3.364-7.5 7.5-7.5s7.5 3.364 7.5 7.5-3.364 7.5-7.5 7.5-7.5-3.364-7.5-7.5z"/></g></g></svg>