<svg id="Layer_1" enable-background="new 0 0 512 512" height="512" viewBox="0 0 512 512" width="512" xmlns="http://www.w3.org/2000/svg"><g><path d="m267.99 208.462h53.318v95.077h-53.318z" fill="#d2d5d4"/><path d="m273.525 474.5h-208v-311.718c0-6.783 5.499-12.282 12.282-12.282h183.436c6.783 0 12.282 5.499 12.282 12.282z" fill="#ef483c"/><path d="m261.243 150.5h-30c6.783 0 12.282 5.499 12.282 12.282v311.718h30v-311.718c0-6.783-5.499-12.282-12.282-12.282z" fill="#de4135"/><path d="m107.305 308.28h124.439v148h-124.439z" fill="#d2d5d4" transform="matrix(0 1 -1 0 551.805 212.755)"/><path d="m213.525 320.061h30v124.439h-30z" fill="#c7c9c8"/><path d="m229.448 111.5h-119.846c-6.117 0-11.077-4.959-11.077-11.077v-81.846c0-6.117 4.959-11.077 11.077-11.077h119.847c6.117 0 11.077 4.959 11.077 11.077v81.847c-.001 6.117-4.96 11.076-11.078 11.076z" fill="#497285"/><path d="m229.448 7.5h-30c6.117 0 11.077 4.959 11.077 11.077v81.847c0 6.117-4.959 11.077-11.077 11.077h30c6.117 0 11.077-4.959 11.077-11.077v-81.847c0-6.118-4.959-11.077-11.077-11.077z" fill="#426778"/><path d="m147.525 18.5h44v82h-44z" fill="#b9f5ff" transform="matrix(0 1 -1 0 229.025 -110.025)"/><path d="m416.655 401h-80c-12.15 0-22-9.85-22-22v-246c0-12.15 9.85-22 22-22h80c12.15 0 22 9.85 22 22v246c0 12.15-9.85 22-22 22z" fill="#497285"/><path d="m416.655 111h-30c12.15 0 22 9.85 22 22v246c0 12.15-9.85 22-22 22h30c12.15 0 22-9.85 22-22v-246c0-12.15-9.85-22-22-22z" fill="#426778"/><path d="m100.525 196h138v52h-138z" fill="#497285"/><path d="m208.525 196h30v52h-30z" fill="#426778"/><path d="m154.525 111.5h30v38.738h-30z" fill="#d2d5d4"/><path d="m489.5 504.5h-467c-8.284 0-15-6.716-15-15 0-8.284 6.716-15 15-15h467c8.284 0 15 6.716 15 15 0 8.284-6.716 15-15 15z" fill="#d2d5d4"/><path d="m489.5 474.5h-30c8.284 0 15 6.716 15 15 0 8.284-6.716 15-15 15h30c8.284 0 15-6.716 15-15 0-8.284-6.716-15-15-15z" fill="#c7c9c8"/><path d="m483.122 311h-12.217c-4.911 0-8.892-3.981-8.892-8.892v-92.217c0-4.911 3.981-8.892 8.892-8.892h12.217c4.911 0 8.892 3.981 8.892 8.892v92.217c0 4.911-3.981 8.892-8.892 8.892z" fill="#ef483c"/><g><path d="m489.5 467h-208.475v-155.962h26.13v67.962c0 16.267 13.234 29.5 29.5 29.5h80c16.266 0 29.5-13.233 29.5-29.5v-16.01h12.835c14.071 0 25.52-11.448 25.52-25.521v-19.04c8.39-.708 15.004-7.751 15.004-16.321v-92.217c0-8.57-6.614-15.613-15.004-16.321v-19.04c0-14.072-11.448-25.521-25.52-25.521h-12.835v-16.009c0-16.267-13.234-29.5-29.5-29.5h-8.886c-4.142 0-7.5 3.357-7.5 7.5s3.358 7.5 7.5 7.5h8.886c7.995 0 14.5 6.505 14.5 14.5v23.413c0 .032-.005.064-.005.097s.004.064.005.097v198.787c0 .032-.005.064-.005.097s.004.064.005.097v23.412c0 7.995-6.505 14.5-14.5 14.5h-80c-7.995 0-14.5-6.505-14.5-14.5v-246c0-7.995 6.505-14.5 14.5-14.5h40c4.142 0 7.5-3.357 7.5-7.5s-3.358-7.5-7.5-7.5h-40c-16.266 0-29.5 13.233-29.5 29.5v67.962h-26.13v-38.18c0-10.908-8.874-19.782-19.782-19.782h-69.218v-24h37.423c10.243 0 18.577-8.334 18.577-18.577v-81.846c0-10.243-8.334-18.577-18.577-18.577h-68.653c-4.142 0-7.5 3.357-7.5 7.5s3.358 7.5 7.5 7.5h68.653c1.972 0 3.577 1.604 3.577 3.577v81.846c0 1.973-1.604 3.577-3.577 3.577h-119.846c-1.972 0-3.577-1.604-3.577-3.577v-81.846c0-1.973 1.604-3.577 3.577-3.577h18.923c4.142 0 7.5-3.357 7.5-7.5s-3.358-7.5-7.5-7.5h-18.923c-10.244 0-18.577 8.334-18.577 18.577v81.846c0 10.243 8.333 18.577 18.577 18.577h37.424v24h-69.219c-10.908 0-19.782 8.874-19.782 19.782v219.498c0 4.143 3.358 7.5 7.5 7.5s7.5-3.357 7.5-7.5v-219.498c0-2.637 2.145-4.782 4.782-4.782h183.437c2.637 0 4.782 2.146 4.782 4.782v304.218h-193v-51.23c0-4.143-3.358-7.5-7.5-7.5s-7.5 3.357-7.5 7.5v51.23h-35.526c-12.407 0-22.5 10.094-22.5 22.5s10.093 22.5 22.5 22.5h467c12.407 0 22.5-10.094 22.5-22.5s-10.093-22.5-22.5-22.5zm-4.986-164.892c0 .768-.624 1.392-1.391 1.392h-12.217c-.768 0-1.392-.624-1.392-1.392v-92.217c0-.768.624-1.392 1.392-1.392h12.217c.767 0 1.391.624 1.391 1.392zm-25.524-138.098c5.8 0 10.52 4.72 10.52 10.521v19.041c-8.386.712-14.996 7.754-14.996 16.321v92.217c0 8.567 6.61 15.609 14.996 16.321v19.041c0 5.801-4.719 10.521-10.52 10.521h-12.835v-183.983zm-281.965-45.01v23.738h-15v-23.738zm130.13 96.962v80.076h-26.13v-80.076zm182.345 281.038h-467c-4.136 0-7.5-3.364-7.5-7.5s3.364-7.5 7.5-7.5h467c4.136 0 7.5 3.364 7.5 7.5s-3.364 7.5-7.5 7.5z"/><path d="m88.025 320.061v124.439c0 4.143 3.358 7.5 7.5 7.5h148c4.142 0 7.5-3.357 7.5-7.5v-124.439c0-4.143-3.358-7.5-7.5-7.5h-148c-4.142 0-7.5 3.357-7.5 7.5zm15 7.5h133v109.439h-133z"/><path d="m121.025 37.5v44c0 4.143 3.358 7.5 7.5 7.5h82c4.142 0 7.5-3.357 7.5-7.5v-44c0-4.143-3.358-7.5-7.5-7.5h-82c-4.142 0-7.5 3.357-7.5 7.5zm15 7.5h67v29h-67z"/><path d="m418.914 139.257c-1.042-4.008-5.139-6.414-9.145-5.372l-33.114 8.604-33.114-8.604c-4.008-1.04-8.104 1.363-9.145 5.372-1.042 4.01 1.364 8.104 5.373 9.146l35 9.095c.619.161 1.252.241 1.886.241s1.268-.08 1.886-.241l35-9.095c4.009-1.043 6.415-5.136 5.373-9.146z"/><path d="m418.914 167.62c-1.042-4.009-5.139-6.412-9.145-5.372l-33.114 8.604-33.114-8.604c-4.008-1.038-8.104 1.363-9.145 5.372-1.042 4.01 1.364 8.104 5.373 9.146l35 9.095c.619.161 1.252.241 1.886.241s1.268-.08 1.886-.241l35-9.095c4.009-1.042 6.415-5.136 5.373-9.146z"/><path d="m418.914 195.982c-1.042-4.009-5.139-6.412-9.145-5.372l-33.114 8.605-33.114-8.605c-4.008-1.039-8.104 1.363-9.145 5.372-1.042 4.009 1.363 8.104 5.373 9.146l35 9.096c.618.161 1.252.241 1.886.241s1.268-.08 1.886-.241l35-9.096c4.009-1.042 6.415-5.137 5.373-9.146z"/><path d="m418.914 224.346c-1.042-4.009-5.139-6.413-9.145-5.372l-33.114 8.605-33.114-8.605c-4.008-1.04-8.104 1.364-9.145 5.372-1.042 4.009 1.363 8.104 5.373 9.146l35 9.096c.618.161 1.252.241 1.886.241s1.268-.08 1.886-.241l35-9.096c4.009-1.043 6.415-5.138 5.373-9.146z"/><path d="m418.914 252.709c-1.042-4.009-5.139-6.411-9.145-5.372l-33.114 8.604-33.114-8.604c-4.008-1.039-8.104 1.363-9.145 5.372-1.042 4.01 1.364 8.104 5.373 9.146l35 9.095c.619.161 1.252.241 1.886.241s1.268-.08 1.886-.241l35-9.095c4.009-1.042 6.415-5.136 5.373-9.146z"/><path d="m418.914 281.072c-1.042-4.009-5.139-6.413-9.145-5.372l-33.114 8.604-33.114-8.604c-4.008-1.041-8.104 1.363-9.145 5.372-1.042 4.01 1.364 8.104 5.373 9.146l35 9.095c.619.161 1.252.241 1.886.241s1.268-.08 1.886-.241l35-9.095c4.009-1.042 6.415-5.136 5.373-9.146z"/><path d="m418.914 309.436c-1.042-4.008-5.139-6.414-9.145-5.372l-33.114 8.604-33.114-8.604c-4.008-1.039-8.104 1.363-9.145 5.372-1.042 4.01 1.364 8.104 5.373 9.146l35 9.095c.619.161 1.252.241 1.886.241s1.268-.08 1.886-.241l35-9.095c4.009-1.043 6.415-5.137 5.373-9.146z"/><path d="m418.914 337.799c-1.042-4.009-5.139-6.412-9.145-5.372l-33.114 8.604-33.114-8.604c-4.008-1.041-8.104 1.364-9.145 5.372-1.042 4.01 1.364 8.104 5.373 9.146l35 9.095c.619.161 1.252.241 1.886.241s1.268-.08 1.886-.241l35-9.095c4.009-1.043 6.415-5.136 5.373-9.146z"/><path d="m409.769 360.789-33.114 8.605-33.114-8.605c-4.008-1.041-8.104 1.363-9.145 5.372-1.042 4.009 1.363 8.104 5.373 9.146l35 9.096c.618.161 1.252.241 1.886.241s1.268-.08 1.886-.241l35-9.096c4.009-1.042 6.415-5.137 5.373-9.146s-5.139-6.412-9.145-5.372z"/><path d="m238.525 255.5c4.142 0 7.5-3.357 7.5-7.5v-52c0-4.143-3.358-7.5-7.5-7.5h-138c-4.142 0-7.5 3.357-7.5 7.5v52c0 4.143 3.358 7.5 7.5 7.5zm-130.5-52h123v37h-123z"/><path d="m211.614 363.952c-4.142 0-7.5 3.357-7.5 7.5v21.656c0 4.143 3.358 7.5 7.5 7.5s7.5-3.357 7.5-7.5v-21.656c0-4.142-3.358-7.5-7.5-7.5z"/></g></g></svg>