<svg id="Layer_1" enable-background="new 0 0 512 512" height="512" viewBox="0 0 512 512" width="512" xmlns="http://www.w3.org/2000/svg"><g><g fill="#d2d5d4"><path d="m110 149.5h-45.904c-5.576 0-10.096-4.52-10.096-10.096v-17.808c0-5.576 4.52-10.096 10.096-10.096h26.051c10.964 0 19.853 8.888 19.853 19.853z"/><path d="m402 149.5h45.904c5.576 0 10.096-4.52 10.096-10.096v-17.808c0-5.576-4.52-10.096-10.096-10.096h-26.051c-10.964 0-19.853 8.888-19.853 19.853z"/></g><g><path d="m148 332.5h-38c-6.627 0-12-5.373-12-12v-91c0-6.627 5.373-12 12-12h38c6.627 0 12 5.373 12 12v91c0 6.627-5.373 12-12 12z" fill="#497285"/><path d="m148 217.5h-30c6.627 0 12 5.373 12 12v91c0 6.627-5.373 12-12 12h30c6.627 0 12-5.373 12-12v-91c0-6.627-5.373-12-12-12z" fill="#426778"/><path d="m396 332.5h-38c-6.627 0-12-5.373-12-12v-91c0-6.627 5.373-12 12-12h38c6.627 0 12 5.373 12 12v91c0 6.627-5.373 12-12 12z" fill="#497285"/><path d="m396 217.5h-30c6.627 0 12 5.373 12 12v91c0 6.627-5.373 12-12 12h30c6.627 0 12-5.373 12-12v-91c0-6.627-5.373-12-12-12z" fill="#426778"/></g><path d="m407 143.5h-302l16.21-108h269.58z" fill="#b9f5ff"/><path d="m390.79 35.5h-30l16.21 108h30z" fill="#8aeeff"/><path d="m391.154 35.5h-270.308c-4.333 0-7.846-3.513-7.846-7.846 0-11.131 9.023-20.154 20.154-20.154h245.692c11.131 0 20.154 9.023 20.154 20.154 0 4.333-3.513 7.846-7.846 7.846z" fill="#ffde5c"/><path d="m378.846 7.5h-30c11.131 0 20.154 9.023 20.154 20.154 0 4.333-3.513 7.846-7.846 7.846h30c4.333 0 7.846-3.513 7.846-7.846 0-11.131-9.023-20.154-20.154-20.154z" fill="#ffc736"/><path d="m420.231 255.5h-328.462c-10.918 0-19.769-8.851-19.769-19.769v-54.885c0-26.149 21.198-47.346 47.346-47.346h273.308c26.149 0 47.346 21.198 47.346 47.346v54.885c0 10.918-8.851 19.769-19.769 19.769z" fill="#ffde5c"/><path d="m392.654 133.5h-30c26.149 0 47.346 21.198 47.346 47.346v54.885c0 10.918-8.851 19.769-19.769 19.769h30c10.918 0 19.769-8.851 19.769-19.769v-54.885c0-26.148-21.198-47.346-47.346-47.346z" fill="#ffc736"/><path d="m426 295.5h-340c-7.732 0-14-6.268-14-14v-12c0-7.732 6.268-14 14-14h340c7.732 0 14 6.268 14 14v12c0 7.732-6.268 14-14 14z" fill="#d2d5d4"/><path d="m426 255.5h-30c7.732 0 14 6.268 14 14v12c0 7.732-6.268 14-14 14h30c7.732 0 14-6.268 14-14v-12c0-7.732-6.268-14-14-14z" fill="#c7c9c8"/><path d="m358.052 163.504h-204.104c-5.263 0-10.221-2.473-13.387-6.677l-17.561-23.323h266l-17.562 23.323c-3.166 4.204-8.123 6.677-13.386 6.677z" fill="#ffc736"/><path d="m392 221.5h-38c-9.941 0-18-8.059-18-18 0-9.941 8.059-18 18-18h38c9.941 0 18 8.059 18 18 0 9.941-8.059 18-18 18z" fill="#b9f5ff"/><path d="m392 185.5h-30c9.941 0 18 8.059 18 18 0 9.941-8.059 18-18 18h30c9.941 0 18-8.059 18-18 0-9.941-8.059-18-18-18z" fill="#8aeeff"/><path d="m158 221.5h-38c-9.941 0-18-8.059-18-18 0-9.941 8.059-18 18-18h38c9.941 0 18 8.059 18 18 0 9.941-8.059 18-18 18z" fill="#b9f5ff"/><path d="m158 185.5h-30c9.941 0 18 8.059 18 18 0 9.941-8.059 18-18 18h30c9.941 0 18-8.059 18-18 0-9.941-8.059-18-18-18z" fill="#8aeeff"/><path d="m305 255.5h-98v-54.519c0-5.236 4.245-9.481 9.481-9.481h79.038c5.236 0 9.481 4.245 9.481 9.481z" fill="#497285"/><path d="m211 295.5h90v179h-90z" fill="#497285"/><path d="m271 295.5h30v179h-30z" fill="#426778"/><path d="m489.5 504.5h-467c-8.284 0-15-6.716-15-15 0-8.284 6.716-15 15-15h467c8.284 0 15 6.716 15 15 0 8.284-6.716 15-15 15z" fill="#d2d5d4"/><path d="m489.5 474.5h-30c8.284 0 15 6.716 15 15 0 8.284-6.716 15-15 15h30c8.284 0 15-6.716 15-15 0-8.284-6.716-15-15-15z" fill="#c7c9c8"/><g><path d="m354 229h38c14.061 0 25.5-11.439 25.5-25.5s-11.439-25.5-25.5-25.5h-38c-14.061 0-25.5 11.439-25.5 25.5s11.439 25.5 25.5 25.5zm0-36h38c5.79 0 10.5 4.71 10.5 10.5s-4.71 10.5-10.5 10.5h-38c-5.79 0-10.5-4.71-10.5-10.5s4.71-10.5 10.5-10.5z"/><path d="m158 178h-38c-14.061 0-25.5 11.439-25.5 25.5s11.439 25.5 25.5 25.5h38c14.061 0 25.5-11.439 25.5-25.5s-11.439-25.5-25.5-25.5zm0 36h-38c-5.79 0-10.5-4.71-10.5-10.5s4.71-10.5 10.5-10.5h38c5.79 0 10.5 4.71 10.5 10.5s-4.71 10.5-10.5 10.5z"/><path d="m489.5 467h-181v-115.23c0-4.143-3.358-7.5-7.5-7.5s-7.5 3.357-7.5 7.5v115.23h-75v-163.5h75v17.192c0 4.143 3.358 7.5 7.5 7.5s7.5-3.357 7.5-7.5v-17.692h30v17.5c0 10.752 8.748 19.5 19.5 19.5h38c10.752 0 19.5-8.748 19.5-19.5v-17.5h10.5c11.855 0 21.5-9.645 21.5-21.5v-12c0-6.2-2.653-11.778-6.865-15.706 4.267-4.814 6.865-11.14 6.865-18.064v-54.885c0-8.541-1.965-16.631-5.462-23.846h5.862c9.705 0 17.6-7.896 17.6-17.6v-17.799c0-9.704-7.896-17.6-17.6-17.6h-26.05c-4.504 0-8.855 1.134-12.717 3.17l-9.975-66.448c4.395-2.702 7.342-7.541 7.342-13.068 0-15.249-12.405-27.654-27.654-27.654h-186.769c-4.142 0-7.5 3.357-7.5 7.5s3.358 7.5 7.5 7.5h186.769c6.978 0 12.654 5.677 12.654 12.654 0 .19-.155.346-.346.346h-270.308c-.191 0-.346-.155-.346-.346 0-6.978 5.676-12.654 12.654-12.654h26.615c4.142 0 7.5-3.357 7.5-7.5s-3.358-7.5-7.5-7.5h-26.615c-15.249 0-27.654 12.405-27.654 27.654 0 5.527 2.947 10.366 7.342 13.068l-9.975 66.448c-3.861-2.036-8.212-3.17-12.717-3.17h-26.05c-9.705 0-17.6 7.896-17.6 17.6v17.8c0 9.704 7.896 17.6 17.6 17.6h5.862c-3.498 7.214-5.462 15.305-5.462 23.846v54.885c0 6.924 2.598 13.249 6.865 18.064-4.212 3.927-6.865 9.505-6.865 15.705v12c0 11.855 9.645 21.5 21.5 21.5h4.5v17.5c0 10.752 8.748 19.5 19.5 19.5h38c10.752 0 19.5-8.748 19.5-19.5v-17.5h36v164h-181c-12.407 0-22.5 10.094-22.5 22.5s10.093 22.5 22.5 22.5h41.577c4.142 0 7.5-3.357 7.5-7.5s-3.358-7.5-7.5-7.5h-41.577c-4.136 0-7.5-3.364-7.5-7.5s3.364-7.5 7.5-7.5h467c4.136 0 7.5 3.364 7.5 7.5s-3.364 7.5-7.5 7.5h-393.269c-4.142 0-7.5 3.357-7.5 7.5s3.358 7.5 7.5 7.5h393.269c12.407 0 22.5-10.094 22.5-22.5s-10.093-22.5-22.5-22.5zm-89-146.5c0 2.481-2.019 4.5-4.5 4.5h-38c-2.481 0-4.5-2.019-4.5-4.5v-17.5h47zm-103-72.5h-83v-47.02c0-1.092.889-1.98 1.981-1.98h79.038c1.092 0 1.981.889 1.981 1.98zm-1.981-64h-79.038c-9.363 0-16.981 7.617-16.981 16.98v47.02h-107.731c-6.765 0-12.269-5.504-12.269-12.27v-54.885c0-21.941 17.827-39.795 39.758-39.844l15.312 20.335c4.557 6.053 11.801 9.667 19.378 9.667h204.104c7.577 0 14.821-3.614 19.377-9.666l15.313-20.336c21.93.048 39.758 17.903 39.758 39.844v54.885c0 6.766-5.504 12.27-12.269 12.27h-107.731v-47.02c0-9.363-7.618-16.98-16.981-16.98zm78.445-42.996-8.518 11.312c-1.738 2.31-4.502 3.688-7.394 3.688h-204.104c-2.892 0-5.656-1.379-7.395-3.689l-8.517-11.311zm-88.692-15.004c3.215-10.479 12.98-18.12 24.498-18.12s21.283 7.641 24.498 18.12zm136.578-7h26.05c1.434 0 2.6 1.166 2.6 2.6v17.8c0 1.434-1.167 2.6-2.6 2.6h-16.568c-5.313-5.29-11.707-9.489-18.81-12.26l-.814-5.423c2.286-3.279 6.078-5.317 10.142-5.317zm-37.518-76 12.136 80.842c.013.099.028.198.044.296l.306 2.036c-1.376-.104-2.762-.174-4.164-.174h-42.969c-3.53-18.826-20.079-33.12-39.914-33.12s-36.384 14.294-39.914 33.12h-150.511c-1.402 0-2.788.07-4.164.174l.306-2.036c.017-.098.031-.197.044-.296l12.136-80.842zm-322.832 96.4v-17.8c0-1.434 1.167-2.6 2.6-2.6h26.05c4.064 0 7.856 2.038 10.142 5.317l-.814 5.423c-7.103 2.771-13.497 6.97-18.81 12.26h-16.568c-1.433 0-2.6-1.166-2.6-2.6zm18 142.1v-12c0-3.584 2.916-6.5 6.5-6.5h340c3.584 0 6.5 2.916 6.5 6.5v12c0 3.584-2.916 6.5-6.5 6.5h-340c-3.584 0-6.5-2.916-6.5-6.5zm73 39c0 2.481-2.019 4.5-4.5 4.5h-38c-2.481 0-4.5-2.019-4.5-4.5v-17.5h47z"/></g></g></svg>