<svg id="Layer_1" enable-background="new 0 0 512 512" height="512" viewBox="0 0 512 512" width="512" xmlns="http://www.w3.org/2000/svg"><g><g><path d="m51.38 275.5c-7.885 0-15.758-3.089-21.648-9.227-11.473-11.954-11.082-30.945.871-42.418l159.653-153.224c11.955-11.471 30.945-11.082 42.418.871 11.473 11.954 11.082 30.945-.872 42.418l-159.654 153.225c-5.815 5.581-13.297 8.355-20.768 8.355z" fill="#ffde5c"/></g><path d="m232.674 71.502c-9.762-10.17-24.963-11.962-36.646-5.207 2.393 1.383 4.636 3.113 6.646 5.207 11.473 11.954 11.082 30.945-.872 42.418l-159.654 153.225c-1.782 1.71-3.721 3.153-5.767 4.337 4.62 2.669 9.805 4.018 14.999 4.018 7.471 0 14.953-2.774 20.769-8.355l159.653-153.225c11.954-11.473 12.344-30.464.872-42.418z" fill="#ffc736"/><path d="m481.397 223.855-159.653-153.224c-11.956-11.472-30.944-11.082-42.418.871-11.473 11.954-11.082 30.945.872 42.418l159.653 153.225c5.816 5.582 13.297 8.355 20.769 8.355 7.884 0 15.758-3.09 21.648-9.227 11.473-11.954 11.083-30.945-.871-42.418z" fill="#ffde5c"/><path d="m481.397 223.855-159.653-153.224c-9.862-9.462-24.505-10.846-35.772-4.336 2.047 1.184 3.989 2.625 5.772 4.336l159.653 153.225c11.953 11.473 12.344 30.464.871 42.418-2.011 2.095-4.256 3.825-6.65 5.208 4.633 2.681 9.819 4.018 15.002 4.018 7.884 0 15.758-3.09 21.648-9.227 11.473-11.954 11.083-30.945-.871-42.418z" fill="#ffc736"/><path d="m489.5 471.5h-467c-8.284 0-15-6.716-15-15 0-8.284 6.716-15 15-15h467c8.284 0 15 6.716 15 15 0 8.284-6.716 15-15 15z" fill="#d2d5d4"/><path d="m489.5 441.5h-30c8.284 0 15 6.716 15 15 0 8.284-6.716 15-15 15h30c8.284 0 15-6.716 15-15 0-8.284-6.716-15-15-15z" fill="#c7c9c8"/><g><path d="m316.154 128.5h-120.308c-13.722 0-24.846-11.124-24.846-24.846v-38.308c0-13.722 11.124-24.846 24.846-24.846h120.308c13.722 0 24.846 11.124 24.846 24.846v38.308c0 13.722-11.124 24.846-24.846 24.846z" fill="#ef483c"/></g><path d="m316.154 40.5h-30c13.722 0 24.846 11.124 24.846 24.846v38.308c0 13.722-11.124 24.846-24.846 24.846h30c13.722 0 24.846-11.124 24.846-24.846v-38.308c0-13.722-11.124-24.846-24.846-24.846z" fill="#de4135"/><path d="m240.534 376.499-169.008-153.225c-12.275-11.13-31.247-10.2-42.376 2.075s-10.199 31.247 2.075 42.376l169.008 153.225c5.744 5.208 12.954 7.774 20.142 7.774 8.171 0 16.313-3.319 22.234-9.85 11.129-12.274 10.2-31.246-2.075-42.375z" fill="#ffc736"/><path d="m240.534 376.499-169.008-153.225c-9.905-8.98-24.167-10.104-35.153-3.757 1.811 1.047 3.541 2.295 5.153 3.757l169.008 153.225c12.274 11.129 13.204 30.101 2.075 42.376-2.149 2.37-4.593 4.311-7.222 5.83 4.639 2.684 9.818 4.019 14.988 4.019 8.171 0 16.313-3.319 22.234-9.85 11.129-12.274 10.2-31.246-2.075-42.375z" fill="#faaa0a"/><path d="m482.85 225.35c-11.131-12.275-30.101-13.204-42.376-2.075l-169.008 153.224c-12.274 11.129-13.204 30.101-2.075 42.376 5.922 6.531 14.063 9.85 22.234 9.85 7.187 0 14.397-2.567 20.142-7.774l169.008-153.225c12.274-11.129 13.204-30.101 2.075-42.376z" fill="#ffc736"/><path d="m482.85 225.35c-9.669-10.663-25.25-12.759-37.223-5.832 2.63 1.519 5.074 3.462 7.223 5.832 11.129 12.275 10.199 31.247-2.075 42.376l-169.008 153.224c-1.612 1.462-3.344 2.708-5.154 3.755 4.615 2.667 9.806 4.02 15.013 4.02 7.187 0 14.397-2.567 20.142-7.774l169.008-153.225c12.273-11.129 13.203-30.101 2.074-42.376z" fill="#faaa0a"/><path d="m341 441.5h-170v-59.43c0-15.779 12.791-28.57 28.57-28.57h112.86c15.779 0 28.57 12.791 28.57 28.57z" fill="#ef483c"/><path d="m312.43 353.5h-30c15.779 0 28.57 12.791 28.57 28.57v59.43h30v-59.43c0-15.779-12.791-28.57-28.57-28.57z" fill="#de4135"/><g fill="#f1f1f1"><circle cx="218.09" cy="397.679" r="15"/><circle cx="293.91" cy="397.68" r="15"/></g><g fill="#f1f1f1"><circle cx="218.09" cy="84.5" r="15"/><circle cx="293.91" cy="84.5" r="15"/></g><g><g><path d="m489.5 434h-73.32c-4.143 0-7.5 3.357-7.5 7.5s3.357 7.5 7.5 7.5h73.32c4.136 0 7.5 3.364 7.5 7.5s-3.364 7.5-7.5 7.5h-467c-4.136 0-7.5-3.364-7.5-7.5s3.364-7.5 7.5-7.5h361.68c4.143 0 7.5-3.357 7.5-7.5s-3.357-7.5-7.5-7.5h-35.68v-36.226l137.307-124.487c7.423-6.729 11.782-15.945 12.273-25.952.49-10.008-2.945-19.605-9.674-27.022-.553-.611-139.906-134.4-139.906-134.4v-20.567c0-17.836-14.51-32.346-32.346-32.346h-16.282c-4.143 0-7.5 3.357-7.5 7.5s3.357 7.5 7.5 7.5h16.282c9.564 0 17.346 7.781 17.346 17.346v38.309c0 9.564-7.781 17.346-17.346 17.346h-120.308c-9.564 0-17.346-7.781-17.346-17.346v-38.309c0-9.564 7.781-17.346 17.346-17.346h71.821c4.143 0 7.5-3.357 7.5-7.5s-3.357-7.5-7.5-7.5h-71.821c-17.836 0-32.346 14.51-32.346 32.346v20.567s-139.352 133.787-139.905 134.397c-6.73 7.419-10.166 17.017-9.676 27.024.491 10.007 4.851 19.224 12.273 25.952l26.336 23.877c3.067 2.782 7.811 2.55 10.594-.52 2.782-3.068 2.55-7.812-.52-10.594l-26.336-23.877c-4.455-4.038-7.07-9.569-7.365-15.574-.295-6.004 1.767-11.761 5.805-16.213 8.334-9.195 22.594-9.893 31.785-1.562l129.434 117.358c-16.765 1.69-30.168 14.909-32.16 31.584l-77.467-70.234c-3.067-2.782-7.812-2.549-10.594.52s-2.55 7.812.52 10.594l87.275 79.126v36.229h-141c-12.405 0-22.499 10.094-22.499 22.5s10.094 22.5 22.5 22.5h467c12.406 0 22.5-10.094 22.5-22.5s-10.094-22.5-22.5-22.5zm-6.402-187.4c-.295 6.005-2.91 11.536-7.365 15.574l-127.499 115.594c-1.992-16.675-15.395-29.894-32.16-31.584l129.43-117.354c9.199-8.332 23.46-7.631 31.791 1.56 4.036 4.449 6.098 10.206 5.803 16.21zm-265.044 99.4-111.706-101.285 113.279-108.715h72.746l113.279 108.715-111.706 101.285zm130.308-239.428 106.216 101.941c-6.909 1.118-13.583 4.164-19.146 9.201l-18.64 16.901-102.756-98.615h2.118c16.852 0 30.728-12.955 32.208-29.428zm-290.936 101.937 106.212-101.938c1.48 16.473 15.356 29.428 32.208 29.428h2.118l-102.755 98.616-18.643-16.903c-5.56-5.038-12.233-8.085-19.14-9.203zm121.074 173.561c0-11.618 9.452-21.07 21.07-21.07h112.86c11.618 0 21.07 9.452 21.07 21.07v51.93h-155z"/><path d="m54.919 238.225c-3.14-2.703-7.873-2.35-10.577.79-2.703 3.14-2.349 7.875.79 10.577l4.051 3.487c1.417 1.22 3.157 1.816 4.891 1.816 2.107 0 4.203-.884 5.687-2.606 2.703-3.14 2.349-7.875-.79-10.577z"/><path d="m457.081 238.225-4.051 3.487c-3.139 2.702-3.493 7.438-.79 10.577 1.483 1.723 3.579 2.606 5.687 2.606 1.733 0 3.475-.597 4.891-1.816l4.051-3.487c3.139-2.702 3.493-7.438.79-10.577s-7.44-3.494-10.578-.79z"/><path d="m218.09 375.18c-12.406 0-22.5 10.094-22.5 22.5s10.094 22.5 22.5 22.5 22.5-10.094 22.5-22.5-10.094-22.5-22.5-22.5zm0 30c-4.136 0-7.5-3.364-7.5-7.5s3.364-7.5 7.5-7.5 7.5 3.364 7.5 7.5-3.364 7.5-7.5 7.5z"/><path d="m293.91 375.18c-12.406 0-22.5 10.094-22.5 22.5s10.094 22.5 22.5 22.5 22.5-10.094 22.5-22.5-10.094-22.5-22.5-22.5zm0 30c-4.136 0-7.5-3.364-7.5-7.5s3.364-7.5 7.5-7.5 7.5 3.364 7.5 7.5-3.364 7.5-7.5 7.5z"/><path d="m195.59 84.5c0 12.406 10.094 22.5 22.5 22.5s22.5-10.094 22.5-22.5-10.094-22.5-22.5-22.5-22.5 10.094-22.5 22.5zm30 0c0 4.136-3.364 7.5-7.5 7.5s-7.5-3.364-7.5-7.5 3.364-7.5 7.5-7.5 7.5 3.364 7.5 7.5z"/><path d="m293.91 107c12.406 0 22.5-10.094 22.5-22.5s-10.094-22.5-22.5-22.5-22.5 10.094-22.5 22.5 10.094 22.5 22.5 22.5zm0-30c4.136 0 7.5 3.364 7.5 7.5s-3.364 7.5-7.5 7.5-7.5-3.364-7.5-7.5 3.364-7.5 7.5-7.5z"/></g></g></g></svg>