<svg id="Layer_1" enable-background="new 0 0 512 512" height="512" viewBox="0 0 512 512" width="512" xmlns="http://www.w3.org/2000/svg"><g><g><path d="m487.462 312.5h-465.231v-94.385l82.308-6.615h258.976l103.659 11.706c11.555 1.305 20.287 11.079 20.287 22.707v66.587z" fill="#ffde5c"/><path d="m204.461 211.5h29v101h-29z" fill="#ffc736"/><path d="m467.174 223.206-103.659-11.706h-30l103.659 11.706c11.555 1.305 20.287 11.079 20.287 22.707v66.587h30v-66.587c.001-11.628-8.732-21.403-20.287-22.707z" fill="#ffc736"/><path d="m489.5 342.5h-467c-8.284 0-15-6.716-15-15 0-8.284 6.716-15 15-15h467c8.284 0 15 6.716 15 15 0 8.284-6.716 15-15 15z" fill="#d2d5d4"/><path d="m489.5 312.5h-30c8.284 0 15 6.716 15 15 0 8.284-6.716 15-15 15h30c8.284 0 15-6.716 15-15 0-8.284-6.716-15-15-15z" fill="#c7c9c8"/><path d="m363.515 211.5h-258.977l28.77-88h200.923z" fill="#b9f5ff"/><path d="m334.231 123.5h-30l29.284 88h30z" fill="#8aeeff"/><circle cx="404" cy="341.5" fill="#497285" r="45"/><circle cx="404" cy="341.5" fill="#d2d5d4" r="16"/><circle cx="100.661" cy="341.5" fill="#497285" r="45"/><path d="m334.269 123.5h-201.615c-2.315 0-4.192-1.877-4.192-4.192v-4.692c0-10.557 8.558-19.115 19.115-19.115h171.769c10.557 0 19.115 8.558 19.115 19.115v4.692c0 2.315-1.876 4.192-4.192 4.192z" fill="#ffde5c"/><path d="m319.346 95.5h-30c10.557 0 19.115 8.558 19.115 19.115v4.692c0 2.315-1.877 4.192-4.192 4.192h30c2.315 0 4.192-1.877 4.192-4.192v-4.692c0-10.557-8.558-19.115-19.115-19.115z" fill="#ffc736"/><circle cx="100.661" cy="341.5" fill="#d2d5d4" r="16"/><path d="m29.231 248.423h-7v-59.231c0-2.634 2.135-4.769 4.769-4.769h24.462c2.634 0 4.769 2.135 4.769 4.769v32.231c0 14.912-12.089 27-27 27z" fill="#497285"/><path d="m487.462 289.91h-21.821c-13.354 0-24.179-10.826-24.179-24.179v-5.795c0-5.537 4.489-10.026 10.026-10.026h35.974z" fill="#b9f5ff"/><path d="m457.462 249.91v38.578c2.555.919 5.308 1.422 8.18 1.422h21.821v-40z" fill="#8aeeff"/><path d="m218 123.5h30v88h-30z" fill="#ffde5c"/></g><path d="m489.5 416.5h-467c-8.284 0-15-6.716-15-15 0-8.284 6.716-15 15-15h467c8.284 0 15 6.716 15 15 0 8.284-6.716 15-15 15z" fill="#d2d5d4"/><path d="m489.5 386.5h-30c8.284 0 15 6.716 15 15 0 8.284-6.716 15-15 15h30c8.284 0 15-6.716 15-15 0-8.284-6.716-15-15-15z" fill="#c7c9c8"/><g fill="#de4135"><path d="m73.077 386.5h-38v-13.496c0-6.906 5.598-12.504 12.504-12.504h12.991c6.906 0 12.504 5.598 12.504 12.504v13.496z"/><path d="m168.462 386.5h-38v-13.496c0-6.906 5.598-12.504 12.504-12.504h12.991c6.906 0 12.504 5.598 12.504 12.504v13.496z"/><path d="m375.308 386.5h-38v-13.496c0-6.906 5.598-12.504 12.504-12.504h12.991c6.906 0 12.504 5.598 12.504 12.504v13.496z"/><path d="m470.692 386.5h-38v-13.496c0-6.906 5.598-12.504 12.504-12.504h12.991c6.906 0 12.504 5.598 12.504 12.504v13.496z"/></g><g><path d="m404 365c12.958 0 23.5-10.542 23.5-23.5s-10.542-23.5-23.5-23.5-23.5 10.542-23.5 23.5 10.542 23.5 23.5 23.5zm0-32c4.687 0 8.5 3.813 8.5 8.5s-3.813 8.5-8.5 8.5-8.5-3.813-8.5-8.5 3.813-8.5 8.5-8.5z"/><path d="m124.161 341.5c0-12.958-10.542-23.5-23.5-23.5s-23.5 10.542-23.5 23.5 10.542 23.5 23.5 23.5 23.5-10.542 23.5-23.5zm-23.5 8.5c-4.687 0-8.5-3.813-8.5-8.5s3.813-8.5 8.5-8.5 8.5 3.813 8.5 8.5-3.813 8.5-8.5 8.5z"/><path d="m284.385 238.308c-4.142 0-7.5 3.357-7.5 7.5s3.358 7.5 7.5 7.5h14.769c4.142 0 7.5-3.357 7.5-7.5s-3.358-7.5-7.5-7.5z"/><path d="m196.333 238.308h-14.769c-4.142 0-7.5 3.357-7.5 7.5s3.358 7.5 7.5 7.5h14.769c4.142 0 7.5-3.357 7.5-7.5s-3.357-7.5-7.5-7.5z"/><path d="m489.5 379h-11.308v-5.995c0-11.03-8.974-20.005-20.004-20.005h-2.958c.223-.993.411-1.994.575-3h33.695c6.018 0 11.67-2.347 15.894-6.588 4.26-4.244 6.606-9.896 6.606-15.912 0-10.523-7.264-19.38-17.04-21.827v-15.734c0-.01.001-.02.001-.029v-40c0-.01-.001-.019-.001-.029v-3.971c0-15.463-11.587-28.426-26.948-30.152l-28.76-3.249c-4.118-.479-7.829 2.494-8.294 6.61s2.495 7.829 6.611 8.294l28.764 3.25c6.573.739 11.763 5.55 13.21 11.747h-28.055c-9.664 0-17.526 7.862-17.526 17.525v5.795c0 17.468 14.211 31.68 31.68 31.68h14.319v7.59h-38.243c-9.87-10.203-23.417-16-37.717-16s-27.848 5.797-37.717 16h-125.323v-86h122.126l42.48 4.799c.286.033.57.049.851.049 3.765 0 7.011-2.829 7.443-6.659.465-4.116-2.495-7.829-6.611-8.294l-38.133-4.308-25.885-77.786c1.7-2.031 2.728-4.643 2.728-7.493v-4.692c0-14.676-11.939-26.615-26.615-26.615h-127.422c-4.142 0-7.5 3.357-7.5 7.5s3.358 7.5 7.5 7.5h127.423c6.405 0 11.615 5.211 11.615 11.615v1.384h-195v-1.385c0-6.404 5.21-11.615 11.615-11.615h12.346c4.142 0 7.5-3.357 7.5-7.5s-3.358-7.5-7.5-7.5h-12.346c-14.676 0-26.615 11.939-26.615 26.615v4.692c0 3.104 1.224 5.922 3.205 8.018l-25.206 77.1-35.23 2.836v-18.069c0-6.766-5.504-12.27-12.27-12.27h-24.46c-6.765 0-12.269 5.504-12.269 12.27v28.908c0 .007-.001.013-.001.019v88.279c-3.02 1.111-5.794 2.849-8.124 5.188-4.26 4.246-6.606 9.897-6.606 15.914 0 12.406 10.093 22.5 22.5 22.5h26.357c.164 1.006.352 2.007.574 3h-1.85c-11.03 0-20.004 8.975-20.004 20.005v5.995h-5.077c-12.407 0-22.5 10.094-22.5 22.5s10.093 22.5 22.5 22.5h265.731c4.142 0 7.5-3.357 7.5-7.5s-3.358-7.5-7.5-7.5h-265.731c-4.136 0-7.5-3.364-7.5-7.5s3.364-7.5 7.5-7.5h467c4.136 0 7.5 3.364 7.5 7.5s-3.364 7.5-7.5 7.5h-168.808c-4.142 0-7.5 3.357-7.5 7.5s3.358 7.5 7.5 7.5h168.808c12.407 0 22.5-10.094 22.5-22.5s-10.093-22.5-22.5-22.5zm-23.859-96.59c-9.197 0-16.68-7.482-16.68-16.68v-5.795c0-1.393 1.133-2.525 2.526-2.525h28.473v25zm23.859 37.59c4.136 0 7.5 3.364 7.5 7.5 0 2-.779 3.877-2.214 5.307-1.409 1.414-3.286 2.193-5.286 2.193h-33.412c-.649-5.195-2.074-10.25-4.204-15zm-85.5-16c11.076 0 21.528 4.86 28.679 13.338 5.688 6.738 8.821 15.319 8.821 24.162 0 .257.001.521-.008.836-.087 3.975-.788 7.836-2.081 11.525-8.036 2.434-13.932 9.797-14.189 18.555-6.216 4.264-13.634 6.584-21.222 6.584s-15.006-2.32-21.222-6.584c-.257-8.758-6.153-16.122-14.188-18.555-1.294-3.692-1.995-7.563-2.083-11.583-.007-.257-.006-.521-.006-.778 0-8.843 3.133-17.424 8.823-24.164 7.148-8.476 17.6-13.336 28.676-13.336zm-74.192 69.005v5.995h-153.847v-5.995c0-11.03-8.974-20.005-20.004-20.005h-4.069c.223-.994.412-1.995.576-3h199.732c.164 1.006.352 2.007.575 3h-2.959c-11.03 0-20.004 8.975-20.004 20.005zm-249.231.163v-.163c0-9.457-6.603-17.383-15.436-19.458-1.224-3.603-1.889-7.369-1.975-11.269-.007-.257-.006-.521-.006-.778 0-8.843 3.133-17.424 8.823-24.164 7.149-8.476 17.601-13.336 28.677-13.336s21.528 4.86 28.679 13.338c5.688 6.738 8.821 15.319 8.821 24.162 0 .253.001.514-.008.837-.09 4.128-.852 8.141-2.252 11.976-7.128 2.705-12.31 9.356-12.867 17.28-6.437 4.793-14.267 7.407-22.373 7.407-7.21 0-14.084-2.01-20.083-5.832zm275.54-53.168c-2.131 4.75-3.556 9.805-4.205 15h-199.164c-.649-5.195-2.074-10.25-4.204-15zm-130.156-15h-87.585c-9.87-10.203-23.417-16-37.716-16-14.3 0-27.848 5.797-37.717 16h-33.213v-49.09c18.496-.265 33.508-15.152 33.978-33.599l41.133-3.311h121.12zm127.154-101h-97.615v-73h73.322zm-112.615-73v73h-15v-73zm-101.753 0h71.753v73h-95.619zm-109.016 60.923h19v29.5c0 10.585-8.478 19.228-19 19.494zm-14.731 135.577c0-2 .779-3.877 2.214-5.307 1.409-1.414 3.286-2.193 5.286-2.193h30.277c-2.131 4.75-3.556 9.805-4.205 15h-26.072c-4.136 0-7.5-3.364-7.5-7.5zm27.577 51.5v-5.995c0-2.76 2.245-5.005 5.004-5.005h12.991c2.759 0 5.004 2.245 5.004 5.005v5.995zm95.384 0v-5.995c0-2.76 2.245-5.005 5.005-5.005h12.991c2.759 0 5.004 2.245 5.004 5.005v5.995zm206.847 0v-5.995c0-2.76 2.245-5.005 5.004-5.005h12.991c2.759 0 5.004 2.245 5.004 5.005v5.995zm95.384 0v-5.995c0-2.76 2.245-5.005 5.004-5.005h12.991c2.759 0 5.004 2.245 5.004 5.005v5.995z"/></g></g></svg>