<svg id="Layer_1" enable-background="new 0 0 512 512" height="512" viewBox="0 0 512 512" width="512" xmlns="http://www.w3.org/2000/svg"><g><path d="m503.95 465.92-244.44-423.895c-1.56-2.7-5.46-2.7-7.02 0l-244.44 423.895c-1.56 2.7.39 6.08 3.51 6.08h488.88c3.12 0 5.07-3.38 3.51-6.08zm-157.48-83.919h-180.94c-2.31 0-3.75-2.5-2.6-4.5l90.47-156.898c1.16-2 4.04-2 5.2 0l90.47 156.898c1.15 2-.29 4.5-2.6 4.5z" fill="#f1f1f1"/><g><path d="m503.95 465.92-244.44-423.895c-1.56-2.7-5.46-2.7-7.02 0l-9.182 15.923 235.257 407.972c1.56 2.7-.39 6.08-3.51 6.08h25.385c3.12 0 5.07-3.38 3.51-6.08z" fill="#e2e2e2"/></g><path d="m454.66 440.5-197.79-343.01c-.39-.67-1.35-.67-1.74 0l-197.79 343.01c-.38.66.1 1.5.87 1.5h395.58c.77 0 1.25-.84.87-1.5zm-108.19-58.5h-180.94c-2.31 0-3.75-2.5-2.6-4.5l90.47-156.9c1.16-2 4.04-2 5.2 0l90.47 156.9c1.15 2-.29 4.5-2.6 4.5z" fill="#ef483c"/><g><path d="m454.66 440.5-197.79-343.01c-.39-.67-1.35-.67-1.74 0l-14.13 24.504 183.66 318.506c.38.66-.1 1.5-.87 1.5h30c.77 0 1.25-.84.87-1.5z" fill="#de4135"/></g><g><path d="m204.871 124.604c3.588 2.069 8.174.838 10.244-2.751l40.885-70.897 168.075 291.453c1.389 2.407 3.911 3.754 6.504 3.754 1.272 0 2.56-.323 3.74-1.004 3.589-2.069 4.82-6.655 2.751-10.244l-171.064-296.635c-2.056-3.565-5.89-5.78-10.006-5.78s-7.95 2.215-10.006 5.779l-43.874 76.081c-2.069 3.589-.838 8.175 2.751 10.244z"/><path d="m510.461 462.18-57.407-99.547c-2.069-3.587-6.657-4.818-10.244-2.75-3.589 2.069-4.82 6.655-2.751 10.244l54.423 94.373h-476.964l181.641-314.977c2.069-3.589.838-8.175-2.751-10.244-3.589-2.07-8.175-.838-10.244 2.75l-184.624 320.151c-2.054 3.563-2.053 7.987.004 11.548s5.889 5.772 10.001 5.772h488.909c4.112 0 7.944-2.212 10.001-5.771 2.058-3.561 2.06-7.986.006-11.549z"/><path d="m120.674 441.999c0 4.143 3.358 7.5 7.5 7.5h325.624c3.027 0 5.849-1.629 7.362-4.251s1.513-5.879.001-8.494l-197.796-343.01c-1.513-2.626-4.335-4.258-7.366-4.258-3.03 0-5.853 1.632-7.364 4.255l-197.794 343.007c-1.514 2.621-1.515 5.878-.001 8.5s4.335 4.251 7.362 4.251h38.586c4.142 0 7.5-3.357 7.5-7.5s-3.358-7.5-7.5-7.5h-27.334l186.546-323.5 186.546 323.5h-314.372c-4.142 0-7.5 3.357-7.5 7.5z"/><path d="m165.527 389.496h180.946c3.738 0 7.223-2.011 9.092-5.247 1.87-3.237 1.872-7.26.004-10.497l-90.473-156.895c-1.869-3.242-5.355-5.256-9.097-5.256s-7.227 2.014-9.096 5.256l-90.473 156.894c-1.868 3.238-1.866 7.261.004 10.498 1.87 3.236 5.354 5.247 9.093 5.247zm90.473-158.385 82.683 143.385h-165.366z"/></g></g></svg>