<svg id="Layer_1" enable-background="new 0 0 512 512" height="512" viewBox="0 0 512 512" width="512" xmlns="http://www.w3.org/2000/svg"><g><path d="m176.557 38.459-65.598 65.598-27.778-27.779c-4.241-4.241-4.241-11.116 0-15.357l50.241-50.241c4.241-4.241 11.116-4.241 15.357 0z" fill="#f1f1f1"/><path d="m148.778 10.681c-4.241-4.241-11.116-4.241-15.357 0l-8.164 8.164 12.975 12.975c2.89 2.89 2.89 7.576 0 10.466l-44.522 44.522 17.249 17.249 65.598-65.598z" fill="#e2e2e2"/><path d="m211.866 38.956-100.41 100.41-22.537-22.537c-2.393-2.393-2.393-6.273 0-8.666l91.743-91.743c2.393-2.393 6.273-2.393 8.666 0z" fill="#497285"/><path d="m189.329 16.419c-2.393-2.393-6.273-2.393-8.666 0l-11.513 11.513 3.091 3.091c4.147 4.147 4.147 10.872 0 15.02l-77.053 77.053 16.269 16.269 100.408-100.409z" fill="#426778"/><path d="m393.9 7.5h-150.65c-10.1 0-19.79 4.01-26.94 11.16l-125.15 125.15c-7.15 7.15-11.16 16.84-11.16 26.94v295.65c0 21.04 17.06 38.1 38.1 38.1h275.8c21.04 0 38.1-17.06 38.1-38.1v-420.8c0-21.04-17.06-38.1-38.1-38.1zm1.66 67.56c-3.98 3.98-9.48 6.44-15.56 6.44h-118.1c-12.15 0-22-9.85-22-22 0-6.08 2.46-11.58 6.44-15.56s9.48-6.44 15.56-6.44h118.1c12.15 0 22 9.85 22 22 0 6.08-2.46 11.58-6.44 15.56z" fill="#ef483c"/><g><path d="m393.9 7.5h-30c21.04 0 38.1 17.06 38.1 38.1v420.8c0 21.04-17.06 38.1-38.1 38.1h30c21.04 0 38.1-17.06 38.1-38.1v-420.8c0-21.04-17.06-38.1-38.1-38.1z" fill="#de4135"/></g><path d="m348.613 184.572 10.456-10.456c5.858-5.858 5.858-15.355 0-21.213-5.858-5.858-15.355-5.858-21.213 0l-10.456 10.456c-2.813 2.813-6.628 4.393-10.607 4.393h-121.147c-3.978 0-7.794-1.58-10.607-4.393l-10.456-10.456c-5.858-5.858-15.355-5.858-21.213 0-5.858 5.858-5.858 15.355 0 21.213l10.456 10.456c2.813 2.813 4.393 6.628 4.393 10.607v207.147c0 3.978-1.58 7.794-4.393 10.607l-10.456 10.456c-5.858 5.858-5.858 15.355 0 21.213 5.858 5.858 15.355 5.858 21.213 0l10.456-10.456c2.813-2.813 6.628-4.393 10.607-4.393h121.147c3.978 0 7.794 1.58 10.607 4.393l10.456 10.456c5.858 5.858 15.355 5.858 21.213 0 5.858-5.858 5.858-15.355 0-21.213l-10.456-10.456c-2.813-2.813-4.393-6.628-4.393-10.607v-207.147c0-3.979 1.58-7.794 4.393-10.607z" fill="#d13a2e"/><g><path d="m393.904 0h-150.654c-12.18 0-23.63 4.743-32.241 13.354l-7.069 7.069-9.307-9.307c-5.303-5.303-13.945-5.306-19.276 0l-7.767 7.767-13.507-13.507c-7.159-7.158-18.807-7.156-25.966 0l-50.24 50.24c-3.467 3.468-5.377 8.079-5.377 12.984s1.91 9.517 5.377 12.984l13.507 13.506-7.777 7.777c-5.299 5.319-5.294 13.963.01 19.266l9.307 9.307-7.068 7.068c-8.613 8.612-13.356 20.062-13.356 32.242v295.654c0 25.142 20.454 45.596 45.596 45.596h169.878c4.143 0 7.5-3.357 7.5-7.5s-3.357-7.5-7.5-7.5h-169.878c-16.871 0-30.596-13.726-30.596-30.596v-295.654c0-8.173 3.183-15.856 8.961-21.635l125.155-125.154c5.778-5.778 13.461-8.961 21.634-8.961h150.654c16.87 0 30.596 13.726 30.596 30.596v49.494c0 4.143 3.357 7.5 7.5 7.5s7.5-3.357 7.5-7.5v-49.494c0-25.142-20.454-45.596-45.596-45.596zm-305.421 70.977c-1.311-1.311-1.311-3.442 0-4.753l50.239-50.24c1.312-1.311 3.443-1.311 4.754 0l13.506 13.507-54.992 54.992zm6.708 41.518 77.697-77.697c.002-.002.003-.003.005-.005s.003-.003.005-.005l12.097-12.097 8.338 8.338-89.804 89.804z"/><path d="m432 120.27c-4.143 0-7.5 3.357-7.5 7.5v338.635c0 16.87-13.726 30.596-30.596 30.596h-73.52c-4.143 0-7.5 3.357-7.5 7.5s3.357 7.5 7.5 7.5h73.52c25.142 0 45.596-20.454 45.596-45.596v-338.635c0-4.143-3.357-7.5-7.5-7.5z"/><path d="m380 89c16.267 0 29.5-13.233 29.5-29.5s-13.233-29.5-29.5-29.5h-118.104c-16.266 0-29.5 13.233-29.5 29.5s13.233 29.5 29.5 29.5zm-132.604-29.5c0-7.995 6.504-14.5 14.5-14.5h118.104c7.995 0 14.5 6.505 14.5 14.5s-6.505 14.5-14.5 14.5h-118.104c-7.996 0-14.5-6.505-14.5-14.5z"/><path d="m169.13 418.235c4.25-4.25 6.59-9.9 6.59-15.909v-18.146c0-4.143-3.358-7.5-7.5-7.5s-7.5 3.357-7.5 7.5v18.146c0 2.003-.78 3.887-2.197 5.303l-10.456 10.456c-8.772 8.772-8.772 23.047 0 31.82 4.387 4.386 10.148 6.579 15.91 6.579s11.524-2.193 15.91-6.58l10.456-10.456c1.416-1.416 3.299-2.196 5.303-2.196h121.146c2.004 0 3.888.78 5.304 2.196l10.456 10.457c8.771 8.771 23.047 8.771 31.82-.001 8.771-8.772 8.771-23.047-.001-31.82l-10.455-10.455c-1.417-1.416-2.197-3.3-2.197-5.303v-207.147c0-2.004.78-3.887 2.197-5.303l10.456-10.457c8.771-8.773 8.771-23.047 0-31.819-4.25-4.25-9.9-6.59-15.911-6.59-6.01 0-11.66 2.34-15.91 6.59l-10.455 10.455c-1.416 1.417-3.3 2.197-5.304 2.197h-121.146c-2.003 0-3.887-.78-5.303-2.197l-10.456-10.454c-4.25-4.25-9.9-6.591-15.91-6.591s-11.66 2.341-15.91 6.59c-4.25 4.25-6.59 9.899-6.59 15.91 0 6.01 2.34 11.659 6.59 15.909l10.456 10.457c1.416 1.416 2.196 3.3 2.196 5.303v156.591c0 4.143 3.358 7.5 7.5 7.5s7.5-3.357 7.5-7.5v-156.591c0-6.011-2.341-11.661-6.59-15.909l-10.455-10.456c-1.417-1.417-2.197-3.301-2.197-5.304 0-2.004.78-3.887 2.197-5.304 1.417-1.416 3.3-2.196 5.303-2.196s3.886.78 5.303 2.197l10.456 10.454c4.25 4.25 9.9 6.591 15.91 6.591h121.147c6.011 0 11.661-2.341 15.911-6.59l10.455-10.455c2.923-2.926 7.682-2.926 10.606 0 2.925 2.924 2.924 7.682 0 10.605l-10.455 10.455c-4.25 4.249-6.591 9.899-6.591 15.911v207.147c0 6.01 2.341 11.66 6.591 15.91l10.455 10.454c2.924 2.925 2.924 7.684.001 10.607-2.925 2.924-7.683 2.923-10.607.001l-10.455-10.457c-4.25-4.249-9.9-6.59-15.911-6.59h-121.147c-6.011 0-11.661 2.341-15.91 6.591l-10.456 10.455c-2.924 2.926-7.683 2.924-10.606.001-2.924-2.925-2.924-7.684 0-10.607z"/></g></g></svg>