<svg id="Layer_1" enable-background="new 0 0 512 512" height="512" viewBox="0 0 512 512" width="512" xmlns="http://www.w3.org/2000/svg"><g><path d="m344.97 390h-236.989c-55.494 0-100.481-44.987-100.481-100.481v-7.989c0-88.106 71.424-159.53 159.53-159.53h252.271c47.054 0 85.199 38.145 85.199 85.199v23.271c0 88.106-71.424 159.53-159.53 159.53z" fill="#b9f5ff"/><path d="m419.301 122h-30c47.054 0 85.199 38.145 85.199 85.199v23.271c0 88.106-71.424 159.53-159.53 159.53h30c88.106 0 159.53-71.424 159.53-159.53v-23.271c0-47.054-38.145-85.199-85.199-85.199z" fill="#8aeeff"/><path d="m107.98 360c-38.925 0-70.48-31.555-70.48-70.48v-7.989c0-71.538 57.993-129.531 129.53-129.531h252.271c30.485 0 55.199 24.713 55.199 55.199v23.271c0 71.538-57.993 129.53-129.53 129.53z" fill="#497285"/><path d="m419.302 152h-30c30.485 0 55.198 24.713 55.198 55.199v23.271c0 71.538-57.993 129.53-129.53 129.53h30c71.538 0 129.53-57.993 129.53-129.53v-23.271c0-30.486-24.713-55.199-55.198-55.199z" fill="#426778"/><circle cx="135.015" cy="267.003" fill="#ffde5c" r="63"/><path d="m135.015 204.003c-5.171 0-10.191.636-15 1.812 27.549 6.731 48 31.565 48 61.188s-20.451 54.457-48 61.188c4.809 1.175 9.829 1.812 15 1.812 34.794 0 63-28.206 63-63s-28.206-63-63-63z" fill="#ffc736"/><circle cx="135.015" cy="267.003" fill="#63e5ff" r="19"/><circle cx="323.071" cy="255.435" fill="#ffde5c" r="87"/><path d="m323.071 168.435c-5.115 0-10.126.446-15 1.292 40.9 7.109 72 42.774 72 85.708s-31.1 78.599-72 85.708c4.874.847 9.885 1.292 15 1.292 48.049 0 87-38.951 87-87s-38.951-87-87-87z" fill="#ffc736"/><circle cx="323.071" cy="255.435" fill="#8aeeff" r="32.355"/><path d="m323.071 223.08c-5.415 0-10.515 1.337-15 3.688 10.314 5.409 17.355 16.212 17.355 28.667s-7.041 23.258-17.355 28.667c4.485 2.352 9.585 3.688 15 3.688 17.869 0 32.355-14.485 32.355-32.355.001-17.869-14.485-32.355-32.355-32.355z" fill="#63e5ff"/><g><path d="m30 281.53v7.989c0 42.999 34.981 77.98 77.98 77.98h236.99c75.559 0 137.03-61.472 137.03-137.03v-23.271c0-34.572-28.126-62.698-62.698-62.698h-252.272c-75.558 0-137.03 61.472-137.03 137.03zm437-74.332v23.271c0 67.288-54.742 122.03-122.03 122.03h-236.99c-34.727.001-62.98-28.252-62.98-62.979v-7.989c0-67.288 54.742-122.03 122.03-122.03h252.271c26.302-.001 47.699 21.396 47.699 47.697z"/><path d="m15 289.52v-7.989c0-83.831 68.2-152.031 152.03-152.031h184.944c4.143 0 7.5-3.357 7.5-7.5s-3.357-7.5-7.5-7.5h-184.944c-92.1 0-167.03 74.93-167.03 167.03v7.989c0 21.531 6.321 42.325 18.28 60.133 1.448 2.155 3.818 3.319 6.233 3.319 1.438 0 2.892-.413 4.175-1.274 3.438-2.31 4.354-6.97 2.045-10.408-10.293-15.325-15.733-33.227-15.733-51.769z"/><path d="m419.302 114.5h-35.122c-4.143 0-7.5 3.357-7.5 7.5s3.357 7.5 7.5 7.5h35.122c42.843 0 77.698 34.855 77.698 77.698v23.271c0 83.83-68.2 152.03-152.03 152.03h-236.99c-20.966 0-40.754-6.809-57.226-19.691-3.261-2.551-7.976-1.977-10.528 1.288-2.552 3.263-1.975 7.977 1.288 10.528 19.135 14.966 42.119 22.876 66.466 22.876h236.99c92.1 0 167.03-74.93 167.03-167.03v-23.271c0-51.115-41.584-92.699-92.698-92.699z"/><path d="m64.516 267.003c0 38.874 31.626 70.5 70.5 70.5s70.5-31.626 70.5-70.5-31.626-70.5-70.5-70.5-70.5 31.626-70.5 70.5zm126 0c0 30.603-24.897 55.5-55.5 55.5s-55.5-24.897-55.5-55.5 24.897-55.5 55.5-55.5 55.5 24.897 55.5 55.5z"/><path d="m108.516 267.003c0 14.612 11.888 26.5 26.5 26.5s26.5-11.888 26.5-26.5-11.888-26.5-26.5-26.5-26.5 11.888-26.5 26.5zm38 0c0 6.341-5.159 11.5-11.5 11.5s-11.5-5.159-11.5-11.5 5.159-11.5 11.5-11.5 11.5 5.159 11.5 11.5z"/><path d="m323.071 349.936c27.646 0 53.821-12.056 71.816-33.075 2.694-3.147 2.327-7.882-.819-10.575-3.146-2.694-7.881-2.326-10.575.819-15.142 17.688-37.164 27.831-60.422 27.831-43.837 0-79.5-35.663-79.5-79.5s35.663-79.5 79.5-79.5 79.5 35.663 79.5 79.5c0 9.087-1.519 17.995-4.514 26.478-1.379 3.906.669 8.19 4.575 9.569 3.91 1.377 8.19-.67 9.569-4.575 3.563-10.091 5.369-20.679 5.369-31.472 0-52.107-42.393-94.5-94.5-94.5s-94.5 42.393-94.5 94.5 42.394 94.5 94.501 94.5z"/><path d="m283.216 255.436c0 21.976 17.879 39.854 39.855 39.854s39.855-17.879 39.855-39.854c0-21.977-17.879-39.855-39.855-39.855s-39.855 17.878-39.855 39.855zm64.711 0c0 13.705-11.15 24.854-24.855 24.854s-24.855-11.149-24.855-24.854 11.15-24.855 24.855-24.855 24.855 11.149 24.855 24.855z"/></g></g></svg>