<svg id="Layer_1" enable-background="new 0 0 512 512" height="512" viewBox="0 0 512 512" width="512" xmlns="http://www.w3.org/2000/svg"><g><path d="m304 192h-96v-123.846c0-3.399 2.755-6.154 6.154-6.154h83.692c3.399 0 6.154 2.755 6.154 6.154z" fill="#497285"/><path d="m297.846 62h-30c3.399 0 6.154 2.755 6.154 6.154v123.846h30v-123.846c0-3.399-2.755-6.154-6.154-6.154z" fill="#426778"/><path d="m322 253.003h-132c-2.209 0-4-1.791-4-4v-53.003c0-2.209 1.791-4 4-4h132c2.209 0 4 1.791 4 4v53.003c0 2.209-1.791 4-4 4z" fill="#d2d5d4"/><path d="m283.755 253.003h-55.51c-1.456 0-2.636-1.18-2.636-2.636v-55.732c0-1.456 1.18-2.636 2.636-2.636h55.51c1.456 0 2.636 1.18 2.636 2.636v55.732c0 1.456-1.18 2.636-2.636 2.636z" fill="#c7c9c8"/><path d="m312 323.003h-112c-2.209 0-4-1.791-4-4v-32c0-2.209 1.791-4 4-4h112c2.209 0 4 1.791 4 4v32c0 2.209-1.791 4-4 4z" fill="#d2d5d4"/><path d="m279.878 323.003h-47.756c-1.469 0-2.66-1.191-2.66-2.66v-34.68c0-1.469 1.191-2.66 2.66-2.66h47.756c1.469 0 2.66 1.191 2.66 2.66v34.68c0 1.469-1.191 2.66-2.66 2.66z" fill="#c7c9c8"/><path d="m268.077 62h-27.758v-16.467c0-7.665 6.214-13.879 13.879-13.879 7.665 0 13.879 6.214 13.879 13.879z" fill="#d2d5d4"/><path d="m292.28 323.44v112.532c0 10.125-2.827 20.049-8.163 28.654l-.465.75c-5.336 8.605-8.163 18.529-8.163 28.654v.675c0 5.41-4.386 9.796-9.796 9.796h-19.388c-5.41 0-9.796-4.386-9.796-9.796 0-10.548-3.068-20.868-8.83-29.703-5.762-8.835-8.83-19.155-8.83-29.703v-111.859z" fill="#f1f1f1"/><path d="m262.28 323.44v112.532c0 10.125-2.827 20.049-8.163 28.654l-.465.75c-5.336 8.605-8.163 18.529-8.163 28.654v.674c0 3.453-1.791 6.482-4.49 8.227 1.53.989 3.349 1.569 5.306 1.569h19.388c5.41 0 9.796-4.386 9.796-9.796v-.674c0-10.125 2.827-20.049 8.163-28.654l.465-.75c5.336-8.605 8.163-18.529 8.163-28.654v-112.532z" fill="#e2e2e2"/><path d="m207 253.003h98v30h-98z" fill="#497285"/><path d="m275 253.003h30v30h-30z" fill="#426778"/><path d="m322 184.5h-10.5v-116.346c0-5.731-3.553-10.64-8.568-12.662v-38.386c0-9.432-7.674-17.106-17.107-17.106h-40.546c-4.142 0-7.5 3.357-7.5 7.5s3.358 7.5 7.5 7.5h40.546c1.161 0 2.106.945 2.106 2.106v37.394h-12.354v-8.967c0-11.788-9.591-21.379-21.379-21.379s-21.379 9.591-21.379 21.379v8.967h-18.665c-7.529 0-13.654 6.125-13.654 13.654v116.346h-10.5c-6.341 0-11.5 5.159-11.5 11.5v11.77c0 4.143 3.358 7.5 7.5 7.5s7.5-3.357 7.5-7.5v-8.27h24.609v46.003h-24.609v-5.016c0-4.143-3.358-7.5-7.5-7.5s-7.5 3.357-7.5 7.5v8.516c0 6.341 5.159 11.5 11.5 11.5h9.5v15.025c-6.109.265-11 5.303-11 11.475v32c0 6.341 5.159 11.5 11.5 11.5h11.35v104.795c0 12.033 3.475 23.722 10.048 33.8 4.98 7.637 7.612 16.491 7.612 25.606 0 9.537 7.759 17.296 17.295 17.296h19.389c9.537 0 17.296-7.759 17.296-17.296v-.675c0-8.735 2.434-17.277 7.037-24.702l.464-.749c6.077-9.8 9.289-21.075 9.289-32.606v-16.817c0-4.143-3.357-7.5-7.5-7.5s-7.5 3.357-7.5 7.5v16.817c0 8.735-2.434 17.277-7.038 24.703l-.464.749c-6.076 9.8-9.288 21.075-9.288 32.605v.675c0 1.266-1.03 2.296-2.296 2.296h-19.389c-1.266 0-2.295-1.03-2.295-2.296 0-12.032-3.475-23.721-10.048-33.8-4.98-7.636-7.612-16.49-7.612-25.606v-104.359h58.43v55.805c0 4.143 3.357 7.5 7.5 7.5s7.5-3.357 7.5-7.5v-56.241h12.22c6.341 0 11.5-5.159 11.5-11.5v-32c0-6.172-4.892-11.21-11-11.475v-15.025h9.5c6.341 0 11.5-5.159 11.5-11.5v-53.003c0-6.341-5.159-11.5-11.5-11.5zm-25.5-55.661h-81v-8.098h81zm-81 15h81v8.099h-81zm32.319-98.306c0-3.518 2.862-6.379 6.379-6.379 3.518 0 6.379 2.861 6.379 6.379v8.967h-12.758zm48.681 23.967v13.143h-8.27c-4.143 0-7.5 3.357-7.5 7.5s3.357 7.5 7.5 7.5h8.27v8.099h-81v-8.099h40.5c4.143 0 7.5-3.357 7.5-7.5s-3.357-7.5-7.5-7.5h-40.5v-13.143zm-81 97.438h81v17.562h-81zm17.609 32.562h45.782v46.003h-45.782zm-29.609 91.003h18.461v25h-18.461zm71.538 25h-38.077v-25h38.077zm33.462 0h-18.462v-25h18.462zm-11-40h-83v-15h83zm21-30h-24.609v-46.003h24.609z"/></g></svg>