<svg id="Capa_1" enable-background="new 0 0 512 512" height="512" viewBox="0 0 512 512" width="512" xmlns="http://www.w3.org/2000/svg"><g><path d="m382 213.064-72.754-97.266h-301.746v213.213c0 20.394 16.532 36.926 36.926 36.926h423.148c20.394 0 36.926-16.532 36.926-36.926v-78.735c0-20.346-16.457-36.858-36.803-36.926z" fill="#4e8a80"/><path d="m467.697 213.35-85.697-.286-72.754-97.266h-301.746v213.213c0 20.394 16.532 36.926 36.926 36.926h-5.132l20.284-61.748c2.797-8.516 10.748-14.273 19.712-14.273h106.26c9.072 0 17.093 5.895 19.801 14.553l19.23 61.468h74.339l15.391-63.827c2.133-8.844 10.046-15.076 19.143-15.076h171.046v-36.758c0-20.346-16.457-36.858-36.803-36.926z" fill="#92e0c4"/><g fill="#77d1b3"><path d="m44.426 365.937c-1.703 0-3.376-.125-5.017-.349l-.114.349z"/><path d="m467.697 213.35-25.666-.086v.362c18.297 2.203 32.468 17.771 32.468 36.649v36.758h30v-36.758c.001-20.345-16.456-36.857-36.802-36.925z"/><path d="m381.433 212.305-72.187-96.507h-30l72.754 97.266 29.433.098z"/></g><path d="m44.426 365.937c-1.703 0-3.376-.125-5.017-.348l-.114.348z" fill="#92e0c4"/><path d="m467.697 213.35-9.2-.031v73.715h46.003v-36.758c0-20.346-16.457-36.858-36.803-36.926z" fill="#faeaa3"/><path d="m247.869 76.379h-220.945c-10.727 0-19.424 8.696-19.424 19.424v19.995h301.331l-18.706-20.67c-10.804-11.938-26.155-18.749-42.256-18.749z" fill="#fbfbfb"/><path d="m55.414 154.12v50.934c0 4.424 3.586 8.01 8.01 8.01h117.646c4.424 0 8.01-3.586 8.01-8.01v-50.934c0-3.719-3.015-6.735-6.735-6.735h-120.196c-3.719 0-6.735 3.016-6.735 6.735z" fill="#9ec8fc"/><path d="m182.345 147.385h-30c3.719 0 6.735 3.015 6.735 6.735v50.934c0 4.424-3.586 8.01-8.01 8.01h30c4.424 0 8.01-3.586 8.01-8.01v-50.934c0-3.719-3.016-6.735-6.735-6.735z" fill="#80b6fc"/><path d="m232.654 153.182v54.084c0 3.202 2.596 5.797 5.797 5.797h143.549l-49.127-65.679h-94.422c-3.202.001-5.797 2.597-5.797 5.798z" fill="#9ec8fc"/><path d="m474.5 284.354v44.657c0 20.394-16.532 36.926-36.926 36.926h30c20.394 0 36.926-16.532 36.926-36.926v-44.657z" fill="#477d73"/><path d="m467.697 213.35-9.199-.031v6.533c9.666 6.66 16.002 17.802 16.002 30.423v36.758h30v-36.758c0-20.345-16.457-36.857-36.803-36.925z" fill="#f8e076"/><path d="m290.125 95.128c-10.804-11.938-26.154-18.75-42.256-18.75h-30c16.102 0 31.452 6.811 42.256 18.75l18.706 20.67h30z" fill="#e7e7e7"/><path d="m332.873 147.385h-30l49.127 65.679h30z" fill="#80b6fc"/><ellipse cx="405.708" cy="376.996" fill="#8c818f" rx="58.977" ry="58.625"/><ellipse cx="405.708" cy="376.996" fill="#c8c3ca" rx="20.692" ry="20.568"/><ellipse cx="131.937" cy="376.996" fill="#8c818f" rx="58.977" ry="58.625"/><path d="m405.708 318.371c-5.184 0-10.21.671-15 1.919 25.306 6.597 43.977 29.481 43.977 56.706 0 27.224-18.671 50.109-43.977 56.706 4.79 1.249 9.816 1.919 15 1.919 32.572 0 58.977-26.247 58.977-58.625s-26.405-58.625-58.977-58.625z" fill="#766d78"/><path d="m132.475 319.406c-5.184 0-10.21.67-15 1.919 25.306 6.597 43.977 29.481 43.977 56.706 0 27.224-18.671 50.109-43.977 56.706 4.79 1.249 9.816 1.919 15 1.919 32.572 0 58.977-26.247 58.977-58.625s-26.405-58.625-58.977-58.625z" fill="#766d78"/><ellipse cx="131.937" cy="376.996" fill="#c8c3ca" rx="20.692" ry="20.568"/><path d="m467.722 205.85-81.957-.274-81.263-108.355c-13.547-17.747-34.964-28.343-57.291-28.343h-136.021c-4.142 0-7.5 3.358-7.5 7.5s3.358 7.5 7.5 7.5h136.021c17.68 0 34.64 8.39 45.367 22.444l1.508 1.976h-279.086v-12.495c0-6.575 5.349-11.925 11.924-11.925h54.266c4.142 0 7.5-3.358 7.5-7.5s-3.358-7.5-7.5-7.5h-54.266c-14.846.001-26.924 12.079-26.924 26.925v233.208c0 24.497 19.929 44.426 44.426 44.426h21.133c-.063 1.179-.099 2.365-.099 3.56 0 36.461 29.821 66.125 66.477 66.125s66.477-29.664 66.477-66.125c0-1.195-.036-2.381-.099-3.56h141.015c-.063 1.179-.099 2.365-.099 3.56 0 36.461 29.821 66.125 66.477 66.125s66.477-29.664 66.477-66.125c0-1.272-.045-2.532-.117-3.786 22.394-2.261 39.932-21.221 39.932-44.2v-78.735c0-24.415-19.863-44.344-44.278-44.426zm29.278 44.426v29.258h-31.002v-58.689l1.675.006c16.171.053 29.327 13.254 29.327 29.425zm-167.892-95.403 37.916 50.691h-126.87v-50.679h88.717c.08 0 .157-.01.237-.012zm-197.171 273.248c-28.385 0-51.477-22.935-51.477-51.125s23.092-51.125 51.477-51.125 51.477 22.935 51.477 51.125-23.092 51.125-51.477 51.125zm0-117.25c-30.178 0-55.707 20.113-63.793 47.565h-19.164l18.126-53.523c1.518-4.484 5.72-7.498 10.454-7.498h109.613c4.853 0 9.086 3.111 10.535 7.742l16.668 53.278h-18.646c-8.086-27.451-33.615-47.564-63.793-47.564zm273.771 117.25c-28.385 0-51.477-22.935-51.477-51.125s23.092-51.125 51.477-51.125 51.477 22.935 51.477 51.125-23.092 51.125-51.477 51.125zm63.773-69.753c-8.109-27.417-33.62-47.497-63.773-47.497-30.178 0-55.707 20.113-63.793 47.565h-33.472l13.371-55.453c1.2-4.975 5.612-8.45 10.73-8.45h48.888c4.142 0 7.5-3.358 7.5-7.5s-3.358-7.5-7.5-7.5h-48.888c-12.074 0-22.483 8.197-25.313 19.934l-14.036 58.209c-.061.253-.108.507-.143.76h-62.961l-18.069-57.756c-3.417-10.924-13.404-18.264-24.851-18.264h-109.611c-11.169 0-21.08 7.107-24.662 17.686l-19.082 56.348c-10.996-4.267-18.816-14.953-18.816-27.439v-205.713h290.49l12.407 16.587h-79.446c-7.332 0-13.297 5.965-13.297 13.297v54.085c0 7.332 5.965 13.297 13.297 13.297h143.524l69.022.231v58.739h-39.565c-4.142 0-7.5 3.358-7.5 7.5s3.358 7.5 7.5 7.5h85.568v34.477c0 15.584-12.179 28.37-27.519 29.357z"/><path d="m182.345 139.885h-120.196c-7.849 0-14.234 6.385-14.234 14.235v50.934c0 8.552 6.958 15.51 15.51 15.51h117.645c8.552 0 15.51-6.958 15.51-15.51v-50.934c0-7.849-6.386-14.235-14.235-14.235zm-.765 65.169c0 .281-.229.51-.51.51h-117.646c-.281 0-.51-.229-.51-.51v-50.168h118.666z"/><path d="m250.889 233.367h-18.235c-4.142 0-7.5 3.358-7.5 7.5s3.358 7.5 7.5 7.5h18.235c4.142 0 7.5-3.358 7.5-7.5s-3.358-7.5-7.5-7.5z"/><path d="m405.708 348.928c-15.545 0-28.192 12.591-28.192 28.068s12.647 28.068 28.192 28.068 28.192-12.591 28.192-28.068-12.647-28.068-28.192-28.068zm0 41.137c-7.274 0-13.192-5.862-13.192-13.068s5.918-13.068 13.192-13.068 13.192 5.862 13.192 13.068c0 7.205-5.918 13.068-13.192 13.068z"/><path d="m131.937 348.928c-15.545 0-28.192 12.591-28.192 28.068s12.647 28.068 28.192 28.068 28.192-12.591 28.192-28.068-12.647-28.068-28.192-28.068zm0 41.137c-7.274 0-13.192-5.862-13.192-13.068s5.918-13.068 13.192-13.068 13.192 5.862 13.192 13.068c0 7.205-5.918 13.068-13.192 13.068z"/></g></svg>