<svg id="Capa_1" enable-background="new 0 0 511.999 511.999" height="512" viewBox="0 0 511.999 511.999" width="512" xmlns="http://www.w3.org/2000/svg"><g><circle cx="256" cy="264.71" fill="#544f56" r="231.079"/><path d="m256 33.631c-5.041 0-10.039.18-15 .498 120.628 7.731 216.079 108.001 216.079 230.581s-95.451 222.85-216.079 230.582c4.961.318 9.959.498 15 .498 127.621 0 231.079-103.458 231.079-231.079s-103.458-231.08-231.079-231.08z" fill="#444145"/><path d="m497.77 322.343c4.587-19.3 6.928-39.469 6.716-60.222-1.391-136.166-113.244-246.409-249.417-245.909-136.815.501-247.569 111.566-247.569 248.498 0 19.866 2.339 39.183 6.745 57.7 2.079 8.736 9.947 14.862 18.926 14.862h445.652c9.007 0 16.865-6.167 18.947-14.929z" fill="#fbfbfb"/><circle cx="256" cy="264.71" fill="#e3e0e4" r="167.224"/><circle cx="256" cy="264.71" fill="#b1abb4" r="107.807"/><path d="m504.487 262.121c-1.392-136.166-113.245-246.408-249.418-245.909-4.755.017-9.475.182-14.163.463 128.901 7.71 232.244 114.599 233.581 245.446.212 20.752-2.129 40.922-6.716 60.221-2.083 8.762-9.941 14.929-18.947 14.929h30c9.006 0 16.864-6.167 18.947-14.929 4.587-19.299 6.928-39.468 6.716-60.221z" fill="#e3e0e4"/><path d="m256 97.486c-5.057 0-10.057.238-15 .677 85.326 7.587 152.224 79.249 152.224 166.547s-66.898 158.96-152.224 166.547c4.943.44 9.943.677 15 .677 92.355 0 167.224-74.869 167.224-167.224s-74.869-167.224-167.224-167.224z" fill="#c8c3ca"/><path d="m256 156.903c-5.091 0-10.097.361-15 1.044 52.439 7.301 92.807 52.314 92.807 106.763s-40.368 99.462-92.807 106.763c4.903.683 9.909 1.044 15 1.044 59.54 0 107.807-48.267 107.807-107.807s-48.267-107.807-107.807-107.807z" fill="#a29aa5"/><path d="m309.824 284.911h-107.649c-2.414 0-4.371-1.957-4.371-4.371v-31.66c0-2.414 1.957-4.371 4.371-4.371h107.649c2.414 0 4.371 1.957 4.371 4.371v31.659c.001 2.415-1.957 4.372-4.371 4.372z" fill="#fbfbfb"/><path d="m511.986 262.045c-1.429-139.894-116.168-253.335-255.997-253.335-.308 0-.639 0-.947.002-64.349.236-125.775 24.438-172.964 68.147-3.039 2.815-3.22 7.56-.406 10.599s7.56 3.22 10.599.406c44.422-41.147 102.248-63.93 162.825-64.152.298-.001.594-.002.892-.002 131.626 0 239.653 106.801 240.999 238.488.202 19.727-1.989 39.379-6.513 58.41-1.282 5.396-6.073 9.164-11.65 9.164h-60.672c8.102-20.12 12.572-42.077 12.572-65.062 0-96.343-78.381-174.725-174.724-174.725s-174.725 78.382-174.725 174.725c0 22.984 4.47 44.942 12.572 65.062h-60.676c-5.573 0-10.355-3.741-11.63-9.098-4.34-18.239-6.541-37.068-6.541-55.964 0-58.205 21.029-114.399 59.214-158.23 2.721-3.124 2.395-7.861-.728-10.582s-7.861-2.395-10.582.728c-40.564 46.563-62.904 106.256-62.904 168.084 0 20.065 2.338 40.062 6.949 59.436 2.735 11.488 12.535 19.688 24.209 20.541 16.063 45.216 45.045 84.089 84.035 112.639 41.065 30.069 89.756 45.963 140.808 45.963 100.825 0 191.08-63.707 224.835-158.603 11.681-.855 21.491-9.082 24.232-20.609 4.805-20.216 7.132-41.087 6.918-62.032zm-255.986-157.06c88.072 0 159.724 71.652 159.724 159.725 0 88.072-71.652 159.725-159.724 159.725s-159.725-71.653-159.725-159.725 71.653-159.725 159.725-159.725zm0 383.304c-47.843 0-93.469-14.892-131.946-43.066-35.069-25.678-61.491-60.264-76.87-100.452h53.545c29.085 56.178 87.766 94.663 155.272 94.663s126.187-38.485 155.271-94.663h53.538c-33.011 86.096-116.145 143.518-208.81 143.518z"/><path d="m256 380.017c63.58 0 115.307-51.727 115.307-115.307 0-4.142-3.358-7.5-7.5-7.5s-7.5 3.358-7.5 7.5c0 55.309-44.997 100.307-100.307 100.307s-100.307-44.998-100.307-100.307 44.997-100.307 100.307-100.307c45.89 0 85.858 31.01 97.194 75.411 1.025 4.014 5.11 6.434 9.123 5.412 4.013-1.025 6.436-5.109 5.412-9.123-13.034-51.048-58.978-86.7-111.729-86.7-63.581 0-115.307 51.727-115.307 115.307s51.726 115.307 115.307 115.307z"/><path d="m202.175 237.009c-6.546 0-11.871 5.326-11.871 11.872v31.659c0 6.546 5.325 11.871 11.871 11.871h107.649c6.546 0 11.872-5.325 11.872-11.871v-31.659c0-6.546-5.326-11.872-11.872-11.872zm104.521 40.402h-101.392v-25.402h101.392z"/></g></svg>