<svg id="Capa_1" enable-background="new 0 0 511.994 511.994" height="512" viewBox="0 0 511.994 511.994" width="512" xmlns="http://www.w3.org/2000/svg"><g><path d="m358.299 229.126h-201.713v-30.456c0-7.492 6.074-13.566 13.567-13.566h174.58c7.493 0 13.567 6.074 13.567 13.566v30.456z" fill="#c8c3ca"/><path d="m167.109 273.274c-11.209 0-20.296-9.087-20.296-20.296v-20.296h40.591v20.296c0 11.209-9.086 20.296-20.295 20.296z" fill="#e3e0e4"/><circle cx="166.945" cy="298.489" fill="#f7d958" r="28.402"/><circle cx="166.945" cy="298.489" r="7.5"/><path d="m332.103 268.472c-4.395-3.723-7.185-9.282-7.185-15.494v-20.296h40.591v20.296c0 6.222-2.8 11.791-7.209 15.513" fill="#e3e0e4"/><path d="m358.3 268.492c-3.533 2.984-8.1 4.782-13.087 4.782-4.998 0-9.574-1.806-13.11-4.802" fill="#e3e0e4"/><circle cx="345.049" cy="298.489" fill="#f7d958" r="28.402"/><circle cx="345.049" cy="298.489" r="7.5"/><path d="m504.392 201.692c-1.268-10.767-11.054-16.111-21.071-11.964l-44.791 9.577c-37.647 8.05-76.039 12.108-114.537 12.108h-67.995-67.995c-38.499 0-76.89-4.059-114.537-12.108l-44.791-9.577c-10.017-4.147-19.803 1.197-21.071 11.964-.798 6.77 3.006 13.12 9.163 15.682l50.684 11.958c41.222 9.726 83.434 14.638 125.788 14.638h62.76 62.76c42.354 0 84.565-4.912 125.788-14.638l50.684-11.958c6.155-2.562 9.959-8.912 9.161-15.682z" fill="#62a4fb"/><path d="m504.392 201.692c-1.268-10.767-11.054-16.111-21.071-11.964l-13.094 2.8c2.199 2.269 3.718 5.371 4.165 9.164.798 6.77-3.006 13.12-9.163 15.682l-50.684 11.958c-41.222 9.726-83.433 14.638-125.788 14.638h30c42.354 0 84.565-4.912 125.788-14.638l50.684-11.958c6.157-2.562 9.961-8.912 9.163-15.682z" fill="#5392f9"/><path d="m511.84 200.815c-.866-7.353-4.759-13.562-10.682-17.036-5.873-3.445-13.131-3.89-20.021-1.253l-44.176 9.446c-23.431 5.01-47.241 8.454-71.162 10.313v-3.614c0-11.616-9.45-21.067-21.066-21.067h-113.623c-4.142 0-7.5 3.358-7.5 7.5s3.358 7.5 7.5 7.5h113.623c3.345 0 6.066 2.722 6.066 6.067v4.567c-8.932.445-17.872.677-26.807.677h-135.99c-7.971 0-15.946-.189-23.916-.543v-4.701c0-3.345 2.721-6.067 6.066-6.067h30.958c4.142 0 7.5-3.358 7.5-7.5s-3.358-7.5-7.5-7.5h-30.958c-11.616 0-21.066 9.451-21.066 21.067v3.824c-24.893-1.801-49.678-5.311-74.053-10.523l-44.176-9.446c-6.89-2.637-14.149-2.191-20.021 1.253-5.922 3.474-9.815 9.683-10.681 17.036-1.176 9.974 4.47 19.631 13.73 23.484.375.156.763.282 1.159.376l50.684 11.958c24.213 5.713 48.82 9.78 73.586 12.197v4.149c0 6.246 2.073 12.199 5.818 17.023-8.557 6.568-14.088 16.892-14.088 28.488 0 19.796 16.105 35.902 35.902 35.902 19.796 0 35.902-16.105 35.902-35.902 0-11.504-5.445-21.754-13.887-28.329 3.824-4.852 5.944-10.866 5.944-17.181v-1.508h122.513v1.508c0 6.228 2.079 12.189 5.824 17.018-8.56 6.568-14.094 16.894-14.094 28.492 0 19.796 16.105 35.902 35.902 35.902s35.902-16.105 35.902-35.902c0-11.507-5.448-21.76-13.893-28.335 3.823-4.856 5.95-10.878 5.95-17.176v-4.171c14.038-1.377 28.019-3.286 41.867-5.72 4.08-.717 6.806-4.605 6.089-8.685s-4.606-6.805-8.685-6.088c-30.794 5.412-62.26 8.156-93.522 8.156h-125.52c-41.718 0-83.459-4.857-124.065-14.438l-49.985-11.793c-2.825-1.408-4.51-4.489-4.135-7.67.32-2.722 1.487-4.746 3.374-5.852 2.008-1.178 4.629-1.199 7.38-.059.42.174.855.31 1.3.404l44.791 9.577c38.091 8.145 77.154 12.274 116.105 12.274h135.991c38.951 0 78.015-4.129 116.105-12.274l44.791-9.577c.444-.095.88-.23 1.301-.404 2.749-1.139 5.371-1.119 7.38.059 1.887 1.106 3.053 3.13 3.374 5.853.375 3.18-1.311 6.261-4.136 7.669l-49.985 11.793c-1.921.454-3.842.896-5.767 1.328-4.042.907-6.582 4.919-5.676 8.96.907 4.042 4.923 6.582 8.961 5.675 1.978-.444 3.953-.898 5.927-1.364l50.684-11.958c.396-.094.783-.219 1.158-.376 9.259-3.853 14.905-13.51 13.729-23.483zm-344.895 118.576c-11.525 0-20.902-9.377-20.902-20.902s9.376-20.902 20.902-20.902c11.525 0 20.902 9.377 20.902 20.902s-9.376 20.902-20.902 20.902zm0-56.804c-2.541 0-5.019.269-7.412.774-.167-.165-.34-.325-.525-.476-2.983-2.445-4.695-6.055-4.695-9.906v-2.885c8.52.6 17.054.997 25.591 1.203v1.682c0 3.851-1.712 7.461-4.696 9.906-.208.17-.403.35-.587.537-2.475-.542-5.041-.835-7.676-.835zm178.104 56.804c-11.525 0-20.902-9.377-20.902-20.902s9.377-20.902 20.902-20.902 20.902 9.377 20.902 20.902c.001 11.525-9.376 20.902-20.902 20.902zm12.959-66.413c0 3.777-1.657 7.343-4.547 9.783-.249.21-.475.437-.689.671-2.489-.548-5.071-.845-7.723-.845-2.556 0-5.049.273-7.455.783-.201-.216-.413-.426-.644-.621-2.881-2.44-4.533-6.001-4.533-9.77v-1.684c8.53-.211 17.066-.622 25.591-1.227z"/></g></svg>