<svg id="Capa_1" enable-background="new 0 0 512 512" height="512" viewBox="0 0 512 512" width="512" xmlns="http://www.w3.org/2000/svg"><g><circle cx="208.976" cy="419.965" fill="#a29aa5" r="84.535"/><circle cx="208.976" cy="418.821" fill="#fbfbfb" r="46.214"/><path d="m208.976 335.429c-5.122 0-10.129.481-15 1.354 39.528 7.083 69.535 41.616 69.535 83.181 0 41.566-30.007 76.099-69.535 83.182 4.871.873 9.878 1.354 15 1.354 46.688 0 84.535-37.848 84.535-84.535 0-46.688-37.848-84.536-84.535-84.536z" fill="#8c818f"/><path d="m208.976 372.607c-5.253 0-10.295.889-15 2.503 18.158 6.23 31.214 23.44 31.214 43.711s-13.056 37.481-31.214 43.711c4.705 1.615 9.747 2.503 15 2.503 25.524 0 46.214-20.691 46.214-46.214s-20.691-46.214-46.214-46.214z" fill="#e7e7e7"/><path d="m235.332 218.805-43.669 184.888 46.743 6.561 38.157-209.539h-18.371c-10.892 0-20.356 7.488-22.86 18.09z" fill="#655e67"/><path d="m286.627 343.006 55.221-303.246h-28.013l-66.188 280.227" fill="#b1abb4"/><path d="m247.647 319.987-20.813 88.115 46.744 6.561 13.049-71.657" fill="#b1abb4"/><g fill="#e3e0e4"><path d="m383.699 14.214-61.553-5.915c-4.456-.428-8.311 3.075-8.311 7.551v23.91h69.864z"/><circle cx="383.699" cy="29.881" r="22.381"/><path d="m312.031 410.658c-4.709-52.793-49.037-94.186-103.055-94.186s-98.346 41.392-103.055 94.186z"/></g><path d="m208.976 316.472c-5.095 0-10.103.369-15 1.08 47.027 6.83 83.79 45.291 88.055 93.105h30c-4.709-52.793-49.037-94.185-103.055-94.185z" fill="#c8c3ca"/><path d="m383.698 0c-6.204 0-11.972 1.902-16.753 5.151-.337-.081-.681-.148-1.036-.182l-43.047-4.137c-4.221-.404-8.446.998-11.587 3.852-3.141 2.853-4.941 6.922-4.941 11.165v23.038l-36.451 154.327h-11.691c-14.439 0-26.841 9.814-30.159 23.866l-21.718 91.95c-24.985.603-49.17 9.641-68.366 25.652-3.181 2.653-3.609 7.383-.956 10.564 2.652 3.181 7.382 3.609 10.563.956 17.187-14.335 38.999-22.229 61.419-22.229 24.132 0 47.195 8.99 64.941 25.315 15.602 14.352 25.917 33.245 29.56 53.871h-189c2.503-14.131 8.168-27.572 16.604-39.274 2.422-3.36 1.662-8.048-1.698-10.47-3.359-2.422-8.047-1.662-10.47 1.698-11.622 16.122-18.697 35.099-20.462 54.879-.187 2.097.516 4.176 1.937 5.728 1.421 1.553 3.429 2.438 5.534 2.438h11.048c-.012.603-.028 1.205-.028 1.807 0 50.749 41.287 92.036 92.035 92.036 26.777 0 52.179-11.634 69.69-31.919 2.707-3.135 2.359-7.871-.775-10.578-3.137-2.707-7.872-2.359-10.578.776-14.661 16.98-35.924 26.72-58.337 26.72-42.477 0-77.035-34.558-77.035-77.036 0-.602.014-1.205.028-1.807h23.308c-.003.221-.015.443-.015.664 0 29.618 24.096 53.714 53.714 53.714s53.715-24.096 53.715-53.714c0-.221-.014-.442-.017-.664h23.306c.014.602.031 1.204.031 1.807 0 10.866-2.215 21.367-6.582 31.211-1.68 3.786.027 8.217 3.814 9.897.989.439 2.021.646 3.038.646 2.875 0 5.618-1.663 6.859-4.46 5.223-11.771 7.871-24.319 7.871-37.294 0-.602-.019-1.204-.031-1.807h11.05c2.104 0 4.113-.885 5.534-2.438s2.123-3.632 1.936-5.729c-2.059-23.086-11.257-44.742-26.217-62.199.123-.357.226-.724.296-1.106l54.527-299.425h11.309c5.427 7.562 14.287 12.502 24.284 12.502 16.477 0 29.881-13.404 29.881-29.881-.001-16.477-13.405-29.881-29.882-29.881zm-136.007 418.821c0 21.347-17.367 38.714-38.715 38.714-21.347 0-38.714-17.367-38.714-38.714 0-.221.011-.442.015-.664h77.397c.003.222.017.444.017.664zm-5.06-198.292c1.713-7.25 8.111-12.314 15.562-12.314h8.148l-24.939 105.585c-6.441-1.965-13.075-3.346-19.83-4.113zm37.819 114.533c-7.622-6.428-16.002-11.743-24.911-15.865l64.23-271.938h13.09zm61.398-302.802h-20.514v-16.41l.094-.085 34.421 3.308c-1.306 3.354-2.031 6.997-2.031 10.809 0 .802.041 1.593.103 2.379h-12.073zm41.85 12.502c-8.205 0-14.881-6.675-14.881-14.881s6.676-14.881 14.881-14.881 14.881 6.675 14.881 14.881c0 8.205-6.676 14.881-14.881 14.881z"/></g></svg>