<svg id="Capa_1" enable-background="new 0 0 512.018 512.018" height="512" viewBox="0 0 512.018 512.018" width="512" xmlns="http://www.w3.org/2000/svg"><path d="m398.969 233.507-230.511 74.105v-119.09c0-6.818 5.527-12.345 12.345-12.345h116.877c39.634 0 75.783 4.711 93.071 40.376z" fill="#fbfbfb"/><path d="m360.751 216.554 8.218 16.954-52.024 16.725h30l52.024-16.725-8.218-16.954c-17.289-35.665-53.437-40.376-93.071-40.376h-30c39.634 0 75.782 4.711 93.071 40.376z" fill="#e7e7e7"/><path d="m132.239 294.622h-34.782v-94.183c0-2.729 2.212-4.941 4.941-4.941h8.621c11.72 0 21.22 9.501 21.22 21.22z" fill="#c8c3ca"/><path d="m499.638 234.762h-331.123c-34.099 0-67.086 12.135-93.057 34.232l-65.763 55.956c-4.38 3.727-1.745 10.891 4.006 10.891h373.141c20.786 0 37.023-8.538 53.754-25.269l63.265-68.54c1.848-3.241-.492-7.27-4.223-7.27z" fill="#9ec8fc"/><path d="m499.638 234.762h-30c3.731 0 6.072 4.029 4.223 7.27l-63.265 68.539c-16.731 16.731-32.967 25.269-53.754 25.269h30c20.786 0 37.023-8.538 53.754-25.269l63.265-68.539c1.848-3.241-.492-7.27-4.223-7.27z" fill="#80b6fc"/><path d="m510.326 233.414c-2.238-3.852-6.233-6.151-10.688-6.151h-35.098v-26.377c0-4.142-3.357-7.5-7.5-7.5s-7.5 3.358-7.5 7.5v26.377h-45.263l-6.777-13.98c-19.951-41.158-61.986-44.604-99.82-44.604h-62.965c-4.143 0-7.5 3.358-7.5 7.5s3.357 7.5 7.5 7.5h62.965c32.136 0 56.698 3.471 73.074 18.192h-125.995c-4.143 0-7.5 3.358-7.5 7.5s3.357 7.5 7.5 7.5h137.005c.233 0 .463-.014.691-.035.532.971 1.05 1.964 1.547 2.99l3.605 7.437h-211.648v-38.74c0-2.671 2.173-4.845 4.845-4.845h23.911c4.143 0 7.5-3.358 7.5-7.5s-3.357-7.5-7.5-7.5h-23.911c-10.942 0-19.845 8.902-19.845 19.845v38.936c-7.152.359-14.242 1.227-21.22 2.583v-13.323c0-15.836-12.884-28.72-28.721-28.72h-8.621c-6.859 0-12.44 5.581-12.44 12.441v48.86c-6.778 4.123-13.256 8.79-19.358 13.982l-65.764 55.956c-4.416 3.758-5.977 9.702-3.975 15.145 2.002 5.442 7.042 8.958 12.841 8.958h285.247c4.143 0 7.5-3.358 7.5-7.5s-3.357-7.5-7.5-7.5h-281.664l63.035-53.634c24.588-20.922 55.91-32.444 88.196-32.444h324.927l-49.059 53.149c-.083-.003-.165-.013-.249-.013h-282.146c-4.143 0-7.5 3.358-7.5 7.5s3.357 7.5 7.5 7.5h267.863c-14.056 12.5-27.238 17.942-43.008 17.942h-57.895c-4.143 0-7.5 3.358-7.5 7.5s3.357 7.5 7.5 7.5h57.895c21.848 0 40.062-8.471 59.057-27.465.071-.071.141-.143.208-.216l63.265-68.54c.386-.418.724-.878 1.005-1.373 2.205-3.871 2.186-8.481-.052-12.333zm-405.369-30.416h6.062c7.565 0 13.721 6.155 13.721 13.72v17.042c-6.76 2.048-13.371 4.565-19.782 7.537v-38.299z"/><path d="m220.201 273.927v-10.747c0-4.142-3.357-7.5-7.5-7.5s-7.5 3.358-7.5 7.5v10.747c0 4.142 3.357 7.5 7.5 7.5s7.5-3.358 7.5-7.5z"/><path d="m255.259 273.927v-10.747c0-4.142-3.357-7.5-7.5-7.5s-7.5 3.358-7.5 7.5v10.747c0 4.142 3.357 7.5 7.5 7.5 4.142 0 7.5-3.358 7.5-7.5z"/><path d="m290.316 273.927v-10.747c0-4.142-3.357-7.5-7.5-7.5s-7.5 3.358-7.5 7.5v10.747c0 4.142 3.357 7.5 7.5 7.5s7.5-3.358 7.5-7.5z"/><path d="m325.374 273.927v-10.747c0-4.142-3.357-7.5-7.5-7.5s-7.5 3.358-7.5 7.5v10.747c0 4.142 3.357 7.5 7.5 7.5s7.5-3.358 7.5-7.5z"/><path d="m360.431 273.927v-10.747c0-4.142-3.357-7.5-7.5-7.5s-7.5 3.358-7.5 7.5v10.747c0 4.142 3.357 7.5 7.5 7.5s7.5-3.358 7.5-7.5z"/><path d="m395.489 273.927v-10.747c0-4.142-3.357-7.5-7.5-7.5s-7.5 3.358-7.5 7.5v10.747c0 4.142 3.357 7.5 7.5 7.5s7.5-3.358 7.5-7.5z"/><path d="m430.547 273.927v-10.747c0-4.142-3.357-7.5-7.5-7.5-4.142 0-7.5 3.358-7.5 7.5v10.747c0 4.142 3.358 7.5 7.5 7.5s7.5-3.358 7.5-7.5z"/></svg>