<svg id="Capa_1" enable-background="new 0 0 512 512" height="512" viewBox="0 0 512 512" width="512" xmlns="http://www.w3.org/2000/svg"><g><path d="m342.199 40.964c-68.352 42.424-119.26 107.986-143.406 184.808l-24.778 78.834c-1.694 5.391 2.332 10.876 7.982 10.876h158.806" fill="#bed9fd"/><path d="m426.887 408.784-44.092-44.092c-3.82-3.82-9.001-5.966-14.403-5.966h-139.918c-8.32 0-15.803 5.06-18.902 12.781l-14.963 37.276 98.973 22.856z" fill="#e3e0e4"/><path d="m486.704 408.784h-313.557c-32.291 0-63.527 11.491-88.12 32.416l-62.275 52.987c-4.147 3.529-1.652 10.313 3.794 10.313h353.347c19.684 0 35.059-8.085 50.902-23.928l59.908-64.904c1.751-3.069-.465-6.884-3.999-6.884z" fill="#fbfbfb"/><path d="m345.312 39.055c-10.409 6.305-20.413 13.155-30 20.484v255.943h30z" fill="#9ec8fc"/><path d="m396.887 408.784-7.092 1.216h30l7.092-1.216-44.092-44.092c-3.82-3.82-9-5.966-14.403-5.966h-30c5.402 0 10.583 2.146 14.403 5.966z" fill="#c8c3ca"/><path d="m486.704 408.784h-30c3.533 0 5.749 3.815 3.999 6.884l-59.908 64.904c-15.844 15.844-31.219 23.928-50.902 23.928h30c19.684 0 35.059-8.085 50.902-23.928l59.908-64.904c1.751-3.069-.466-6.884-3.999-6.884z" fill="#e7e7e7"/><path d="m497.171 407.307c-2.191-3.772-6.103-6.023-10.466-6.023h-57.59c-.366-.929-.921-1.8-1.672-2.551l-39.345-39.345c-5.264-5.263-12.263-8.162-19.706-8.162h-15.58v-343.726c0-4.142-3.357-7.5-7.5-7.5-4.142 0-7.5 3.358-7.5 7.5v27.386c-69.69 43.4-121.527 110.221-146.173 188.637l-24.778 78.834c-1.532 4.873-.677 10.029 2.345 14.146 3.022 4.118 7.684 6.479 12.792 6.479h155.814v28.244h-78.344c-4.143 0-7.5 3.358-7.5 7.5s3.357 7.5 7.5 7.5h108.924c3.438 0 6.669 1.339 9.1 3.769l4.828 4.828h-37.007c-4.142 0-7.5 3.358-7.5 7.5s3.358 7.5 7.5 7.5h49.113c.866 0 1.695-.154 2.469-.425l11.885 11.885h-203.08l10.832-26.982c1.969-4.906 6.656-8.075 11.942-8.075h.995c4.142 0 7.5-3.358 7.5-7.5s-3.358-7.5-7.5-7.5h-.995c-11.447 0-21.599 6.864-25.862 17.487l-13.074 32.57h-16.39c-34.037 0-67.058 12.148-92.98 34.204l-62.275 52.987c-4.311 3.668-5.833 9.47-3.879 14.782 1.954 5.311 6.874 8.743 12.533 8.743h255.027c4.143 0 7.5-3.358 7.5-7.5s-3.357-7.5-7.5-7.5h-250.554l58.868-50.088c23.212-19.75 52.781-30.628 83.26-30.628h306.781l-30.329 32.859h-265.83c-4.142 0-7.5 3.358-7.5 7.5s3.358 7.5 7.5 7.5h251.985l-10.366 11.23c-15.192 15.159-28.804 21.628-45.496 21.628h-68.32c-4.143 0-7.5 3.358-7.5 7.5s3.357 7.5 7.5 7.5h68.32c20.803 0 38.138-8.057 56.206-26.125.07-.07.14-.143.207-.216l59.908-64.904c.386-.418.723-.878 1.005-1.372 2.161-3.79 2.143-8.304-.048-12.076zm-315.173-99.325c-.108 0-.439 0-.699-.354s-.161-.67-.128-.773l24.778-78.834c22.627-71.991 69.21-133.782 131.864-175.331v255.293h-155.815z"/><path d="m301.677 237.351c-2.93-2.929-7.679-2.93-10.606 0-2.93 2.929-2.93 7.677-.001 10.606l11.143 11.143-11.143 11.143c-2.929 2.929-2.929 7.678 0 10.606 1.465 1.465 3.385 2.197 5.304 2.197s3.839-.732 5.304-2.197l16.445-16.446c2.929-2.929 2.929-7.677 0-10.606z"/><path d="m286.877 253.797-16.445-16.446c-2.929-2.929-7.678-2.93-10.607 0-2.93 2.929-2.93 7.677-.001 10.606l11.142 11.143-11.142 11.143c-2.929 2.929-2.929 7.678 0 10.606 1.465 1.465 3.385 2.197 5.304 2.197s3.839-.732 5.304-2.197l16.445-16.446c2.928-2.928 2.928-7.676 0-10.606z"/></g></svg>