<svg id="Capa_1" enable-background="new 0 0 512 512" height="512" viewBox="0 0 512 512" width="512" xmlns="http://www.w3.org/2000/svg"><g><path d="m419.643 305.235h-327.805c-28.905 0-55.945-14.275-72.25-38.143l-11.652-17.057c-1.123-1.644.054-3.874 2.045-3.874h492.038c1.991 0 3.168 2.23 2.045 3.874l-11.361 16.63c-16.487 24.135-43.83 38.57-73.06 38.57z" fill="#f7d958"/><path d="m502.019 246.161h-30c1.991 0 3.168 2.23 2.045 3.873l-11.361 16.63c-16.488 24.135-43.831 38.57-73.06 38.57h30c29.229 0 56.572-14.435 73.06-38.57l11.361-16.63c1.123-1.643-.054-3.873-2.045-3.873z" fill="#f5d339"/><path d="m415.72 246.161h-43.203l-60 59.074h43.203z" fill="#fbfbfb"/><path d="m204.708 246.876h-43.202l-60 59.074h43.202z" fill="#fbfbfb"/><path d="m199.848 246.161v-33.601c0-3.201-2.595-5.796-5.796-5.796h-19.863c-25.609 0-47.357 16.474-55.263 39.397z" fill="#c8c3ca"/><path d="m192.421 206.764h-19.863c-2.196 0-4.362.13-6.495.366 2.208.819 3.785 2.937 3.785 5.43v33.601h-52.553 80.922v-33.601c0-3.201-2.595-5.796-5.796-5.796z" fill="#b1abb4"/><path d="m267.459 206.765c-3.471 0-6.284 2.813-6.284 6.284v33.113h45.293v-.388c0-21.545-17.465-39.009-39.009-39.009z" fill="#c8c3ca"/><path d="m474.242 246.161h-102.431v-.096c0-15.054 12.204-27.258 27.258-27.258h47.914c15.054 0 27.258 12.204 27.258 27.258v.096z" fill="#f7d958"/><path d="m440.668 218.807h6.316c15.054 0 27.258 12.204 27.258 27.258v.096h-102.431v-.096c0-15.054 12.204-27.258 27.258-27.258h11.598" fill="#ecb822"/><path d="m510.842 243.98c-1.731-3.281-5.112-5.319-8.822-5.319h-21.08c-3.401-15.621-17.33-27.355-33.955-27.355h-6.316c-4.143 0-7.5 3.358-7.5 7.5s3.357 7.5 7.5 7.5h6.316c8.262 0 15.355 5.097 18.302 12.355h-84.535c2.936-7.237 10.041-12.355 18.319-12.355h11.598c4.142 0 7.5-3.358 7.5-7.5s-3.358-7.5-7.5-7.5h-11.599c-16.603 0-30.516 11.703-33.941 27.355h-51.454c-1.161-10.401-5.856-19.837-13.528-26.966-8.627-8.017-20.236-12.431-32.689-12.431-7.6 0-13.783 6.183-13.783 13.784v25.613h-46.328v-26.101c0-7.331-5.965-13.296-13.296-13.296h-19.863c-26.302 0-49.919 15.626-60.37 39.397h-9.863c-4.143 0-7.5 3.358-7.5 7.5s3.357 7.5 7.5 7.5h39.97l-44.002 43.323c-.241.237-.456.491-.658.751h-7.426c-26.445 0-51.14-13.037-66.058-34.874l-6.285-9.2h54.459c4.143 0 7.5-3.358 7.5-7.5s-3.357-7.5-7.5-7.5h-63.975c-3.71 0-7.091 2.038-8.822 5.319-1.732 3.281-1.508 7.222.585 10.286l11.652 17.057c17.715 25.931 47.039 41.412 78.443 41.412h327.805c31.728 0 61.355-15.641 79.252-41.839l11.362-16.63c2.092-3.064 2.317-7.005.585-10.286zm-180.017 53.755 43.204-42.537c.476-.468.867-.988 1.191-1.537h22.057l-45.367 44.074zm-167.197 0 44.165-44.074h146.417l-44.766 44.074zm105.048-83.451c15.504.499 27.474 10.524 29.852 24.377h-29.852zm-94.488-.02h18.159v24.397h-61.65c9.118-14.926 25.492-24.397 43.491-24.397zm-9.902 39.397h22.841l-44.766 44.074h-22.009zm322.224 8.774c-15.1 22.104-40.097 35.3-66.866 35.3h-45.362l46.239-44.074h71.983z"/></g></svg>