<svg id="Capa_1" enable-background="new 0 0 511.999 511.999" height="512" viewBox="0 0 511.999 511.999" width="512" xmlns="http://www.w3.org/2000/svg"><g><path d="m313.486 229.641-47.288-155.957h-187.425v116.116" fill="#fbfbfb"/><path d="m313.486 229.641-47.288-155.957h-30l45.66 150.588z" fill="#e7e7e7"/><path d="m86.657 172.243h137.888c7.815 0 15.309 3.104 20.835 8.63l15.319 15.319c4.8 4.8 11.11 7.795 17.863 8.48l168.959 17.132c7.928.804 13.961 7.479 13.961 15.448v37.592c0 7.498-3.982 14.431-10.459 18.209l-76.454 44.6h-295.796v-157.526c0-4.354 3.53-7.884 7.884-7.884z" fill="#df646e"/><path d="m272.169 73.684h-200.037c-2.831 0-5.127-2.295-5.127-5.127v-24.164c0-2.832 2.295-5.127 5.127-5.127h200.037c2.831 0 5.127 2.295 5.127 5.127v24.165c0 2.831-2.296 5.126-5.127 5.126z" fill="#b1abb4"/><path d="m272.169 39.266h-30c2.832 0 5.127 2.295 5.127 5.127v24.165c0 2.831-2.295 5.127-5.127 5.127h30c2.832 0 5.127-2.295 5.127-5.127v-24.165c0-2.832-2.296-5.127-5.127-5.127z" fill="#a29aa5"/><path d="m447.522 221.805-16.603-1.684c.363 1.481.564 3.036.564 4.639v42.269c0 8.431-3.982 16.227-10.459 20.475l-76.454 50.149h30l76.454-44.6c6.476-3.778 10.459-10.711 10.459-18.209v-37.592c-.001-7.968-6.033-14.644-13.961-15.447z" fill="#dc4955"/><ellipse cx="405.169" cy="397.399" fill="#c8c3ca" rx="74.728" ry="74.728" transform="matrix(.224 -.975 .975 .224 -72.77 703.441)"/><path d="m405.169 322.671c-5.138 0-10.154.52-15 1.507 34.082 6.945 59.728 37.087 59.728 73.221s-25.646 66.276-59.728 73.221c4.846.987 9.862 1.507 15 1.507 41.271 0 74.728-33.457 74.728-74.729s-33.456-74.727-74.728-74.727z" fill="#b1abb4"/><path d="m434.681 403.47c-2.809 13.727-14.954 24.052-29.511 24.052-14.384 0-26.413-10.082-29.407-23.564" fill="#766d78"/><path d="m375.762 403.958c-.469-2.112-.716-4.306-.716-6.559 0-16.637 13.487-30.123 30.123-30.123 16.637 0 30.123 13.487 30.123 30.123 0 2.079-.211 4.11-.612 6.071" fill="#766d78"/><path d="m405.169 367.276c-5.158 0-10.013 1.299-14.257 3.584 9.445 5.085 15.866 15.061 15.866 26.539s-6.421 21.455-15.866 26.539c4.245 2.285 9.099 3.584 14.257 3.584 16.637 0 30.123-13.487 30.123-30.123.001-16.637-13.486-30.123-30.123-30.123z" fill="#655e67"/><path d="m461.482 268.987v-31.734c0-7.969-6.032-14.643-13.961-15.448l-37.908-3.844v29.689c0 11.784 9.553 21.337 21.337 21.337z" fill="#fbfbfb"/><path d="m401.505 398.558v-67.621h-97.879c-11.355-71.152-72.991-125.53-147.341-125.53-78.433 0-142.729 60.51-148.761 137.393-.354 4.507 3.217 8.361 7.738 8.361h186.579v47.397z" fill="#d82f3c"/><ellipse cx="156.285" cy="354.635" fill="#c8c3ca" rx="118.098" ry="118.098" transform="matrix(.707 -.707 .707 .707 -204.99 214.38)"/><ellipse cx="156.285" cy="354.635" fill="#766d78" rx="49.322" ry="49.322" transform="matrix(.924 -.382 .382 .924 -123.676 86.656)"/><path d="m156.285 305.313c-4.959 0-9.743.74-14.258 2.101 20.287 6.117 35.065 24.94 35.065 47.221s-14.778 41.104-35.065 47.221c4.515 1.361 9.299 2.101 14.258 2.101 27.24 0 49.322-22.082 49.322-49.322s-22.082-49.322-49.322-49.322z" fill="#655e67"/><path d="m156.285 236.537c-4.826 0-9.583.297-14.258.859 58.5 7.04 103.84 56.841 103.84 117.239s-45.341 110.198-103.84 117.239c4.675.563 9.431.859 14.258.859 65.224 0 118.098-52.874 118.098-118.098 0-65.223-52.874-118.098-118.098-118.098z" fill="#b1abb4"/><path d="m504.499 398.558c-.983-54.021-45.075-97.511-99.33-97.511s-98.347 43.49-99.33 97.511z" fill="#df646e"/><path d="m163.665 172.243h-51.927v-49.962c0-9.779 7.927-17.706 17.706-17.706 18.9 0 34.221 15.322 34.221 34.221z" fill="#c8c3ca"/><path d="m405.169 301.047c-5.099 0-10.108.384-15 1.125 47.162 7.142 83.439 47.442 84.33 96.385h30c-.983-54.02-45.074-97.51-99.33-97.51z" fill="#dc4955"/><path d="m156.285 411.457c31.332 0 56.822-25.49 56.822-56.822s-25.49-56.822-56.822-56.822-56.822 25.49-56.822 56.822 25.49 56.822 56.822 56.822zm0-98.644c23.061 0 41.822 18.761 41.822 41.822s-18.761 41.822-41.822 41.822-41.822-18.761-41.822-41.822 18.761-41.822 41.822-41.822z"/><path d="m480.07 324.197c-9.158-9.004-19.668-16.158-31.059-21.286l5.791-3.378c8.747-5.102 14.18-14.561 14.18-24.688v-37.592c0-11.864-8.901-21.713-20.704-22.91l-79.71-8.083c-4.116-.415-7.801 2.584-8.219 6.705-.417 4.121 2.585 7.801 6.705 8.219l35.059 3.555v22.911c0 15.901 12.936 28.837 28.837 28.837h22.927c-.513 4.174-2.955 7.943-6.634 10.089l-16.997 9.915c-.004.003-.008.005-.012.008-8.118-1.945-16.518-2.952-25.066-2.952-27.943 0-54.314 10.695-74.353 30.124-.587-.148-1.198-.235-1.831-.235h-19.096c-6.87-33.936-24.967-64.859-51.417-87.631-28.389-24.439-64.679-37.899-102.187-37.899-24.592 0-48.48 5.712-70.012 16.474v-24.58-10.057h138.272c5.867 0 11.383 2.285 15.532 6.434l15.319 15.319c6.003 6.004 13.962 9.782 22.409 10.639l61.471 6.233c4.114.415 7.801-2.584 8.219-6.705s-2.585-7.801-6.705-8.219l-28.279-2.868-36.395-120.032c5.034-1.662 8.681-6.403 8.681-11.987v-24.164c0-6.962-5.665-12.627-12.627-12.627h-92.924c-4.142 0-7.5 3.358-7.5 7.5s3.358 7.5 7.5 7.5h90.551v19.418h-195.291v-19.418h74.74c4.142 0 7.5-3.358 7.5-7.5s-3.358-7.5-7.5-7.5h-77.113c-6.962 0-12.627 5.665-12.627 12.627v24.164c0 6.673 5.207 12.139 11.769 12.584v140.771c0 .338.03.668.073.994-7.651 4.944-14.916 10.573-21.697 16.871-28.911 26.855-46.528 63.234-49.604 102.437-.332 4.224 1.13 8.432 4.008 11.545 2.881 3.116 6.965 4.902 11.207 4.902h15.497c2.134 67.398 57.62 121.572 125.527 121.572 50.943 0 94.897-30.488 114.581-74.175h52.54c4.334 41.627 39.347 73.569 81.764 73.569 42.055 0 77.401-32.085 81.758-73.569h17.572c2.013 0 3.941-.809 5.352-2.245 1.41-1.436 2.184-3.379 2.147-5.391-.513-28.126-11.852-54.487-31.929-74.225zm-62.956-76.547v-21.39l29.652 3.007c4.114.417 7.217 3.85 7.217 7.986v24.234h-23.032c-7.63 0-13.837-6.207-13.837-13.837zm-260.949-82.907h-36.927v-42.462c0-5.628 4.578-10.206 10.206-10.206 14.734 0 26.722 11.987 26.722 26.722v25.946zm123.154 32.467c-5.019-.509-9.748-2.753-13.315-6.321l-15.319-15.319c-6.982-6.982-16.265-10.827-26.139-10.827h-53.38v-25.947c0-23.005-18.716-41.722-41.722-41.722-13.898 0-25.206 11.308-25.206 25.206v42.462h-17.965v-83.558h174.362l35.704 117.752zm-206.324 84.742 6.505 6.505c1.464 1.465 3.384 2.197 5.303 2.197s3.839-.732 5.303-2.197c2.929-2.929 2.929-7.677 0-10.606l-6.505-6.505c17.687-15.455 40.322-25.375 65.183-27.049v9.248c0 4.142 3.358 7.5 7.5 7.5s7.5-3.358 7.5-7.5v-9.248c24.861 1.673 47.496 11.594 65.183 27.049l-6.505 6.505c-2.929 2.929-2.929 7.678 0 10.606 1.464 1.464 3.384 2.197 5.303 2.197s3.839-.732 5.303-2.197l6.505-6.505c15.454 17.687 25.375 40.322 27.049 65.183h-9.249c-4.142 0-7.5 3.358-7.5 7.5s3.358 7.5 7.5 7.5h9.249c-1.673 24.861-11.594 47.496-27.049 65.183l-6.505-6.505c-2.929-2.93-7.678-2.929-10.606 0-2.929 2.929-2.929 7.678 0 10.606l6.505 6.505c-17.687 15.455-40.322 25.375-65.183 27.049v-9.249c0-4.142-3.358-7.5-7.5-7.5s-7.5 3.358-7.5 7.5v9.249c-24.861-1.673-47.496-11.594-65.183-27.049l6.505-6.505c2.929-2.929 2.929-7.678 0-10.606-2.929-2.929-7.678-2.929-10.606 0l-6.505 6.505c-16.171-18.508-26.284-42.433-27.227-68.657h9.427c4.142 0 7.5-3.358 7.5-7.5s-3.358-7.5-7.5-7.5h-8.965c2.326-23.494 12.033-44.849 26.765-61.709zm208.888 72.683c0-69.255-56.343-125.598-125.598-125.598-65.557 0-119.535 50.49-125.113 114.624h-15.911c-.04 0-.114 0-.193-.086-.076-.082-.071-.149-.068-.189 2.781-35.44 18.712-68.333 44.858-92.619 26.285-24.415 60.529-37.86 96.427-37.86 33.917 0 66.732 12.169 92.4 34.267 25.401 21.868 42.282 52.035 47.534 84.945.581 3.64 3.72 6.318 7.406 6.318h14.472c-11.038 15.451-17.72 33.517-19.368 52.621h-22.239c3.502-11.533 5.393-23.761 5.393-36.423zm123.286 109.992c-34.144 0-62.413-25.312-66.66-58.569h30.047c3.95 16.759 19.046 28.964 36.613 28.964 17.416 0 32.649-12.259 36.611-28.964h30.051c-4.272 33.147-32.809 58.569-66.662 58.569zm-20.899-58.569h41.777c-3.448 8.232-11.645 13.964-20.878 13.964-9.318 0-17.473-5.708-20.899-13.964zm-70.48-15c2.141-21.281 11.566-40.997 26.995-56.165 17.281-16.989 40.146-26.346 64.384-26.346s47.103 9.356 64.384 26.346c15.429 15.168 24.854 34.884 26.995 56.165z"/></g></svg>