<svg id="Capa_1" enable-background="new 0 0 511.999 511.999" height="512" viewBox="0 0 511.999 511.999" width="512" xmlns="http://www.w3.org/2000/svg"><g><path d="m471.552 317.644h-98.805l16.646-65.566c3.805-14.987 17.295-25.48 32.757-25.48 15.462 0 28.952 10.493 32.757 25.48z" fill="#fbfbfb"/><path d="m189.839 317.644h-148.043l10.788-72.676c7.469-50.318 50.665-87.575 101.534-87.575h25.038z" fill="#ddebfd"/><path d="m190.374 318.144h-149.157l10.872-73.249c3.63-24.455 15.939-46.815 34.66-62.962s42.646-25.04 67.368-25.04h25.506zm-147.998-1h146.929l-10.617-159.251h-24.57c-24.483 0-48.176 8.807-66.715 24.797-18.539 15.991-30.729 38.134-34.324 62.352z" fill="#fff"/><path d="m419.643 376.718h-327.805c-28.905 0-55.945-14.275-72.25-38.142l-11.652-17.058c-1.123-1.644.054-3.874 2.045-3.874h492.038c1.991 0 3.168 2.23 2.045 3.874l-11.361 16.63c-16.487 24.135-43.83 38.57-73.06 38.57z" fill="#9ec8fc"/><path d="m355.72 317.644h-43.203l-60 59.074h43.203z" fill="#fbfbfb"/><path d="m298 317.644h-172.693v-34.338c0-7.292 5.911-13.203 13.203-13.203h146.287c7.292 0 13.203 5.911 13.203 13.203z" fill="#b1abb4"/><path d="m263.326 270.103h-104.45v-129.827c0-2.758 2.236-4.994 4.995-4.994h13.967c14.759 0 28.156 8.628 34.261 22.065z" fill="#e3e0e4"/><path d="m454.907 252.078c-3.805-14.987-17.295-25.48-32.757-25.48-5.342 0-10.447 1.254-15 3.511 8.626 4.277 15.266 12.16 17.757 21.969l16.645 65.566h30z" fill="#e7e7e7"/><path d="m502.019 317.644h-30c1.991 0 3.168 2.23 2.045 3.874l-11.361 16.63c-16.487 24.135-43.831 38.57-73.06 38.57h30c29.229 0 56.572-14.435 73.06-38.57l11.361-16.63c1.123-1.644-.054-3.874-2.045-3.874z" fill="#80b6fc"/><path d="m284.797 270.103h-30c7.292 0 13.203 5.911 13.203 13.203v34.338h30v-34.338c0-7.291-5.911-13.203-13.203-13.203z" fill="#a29aa5"/><path d="m212.098 157.347c-6.105-13.438-19.502-22.065-34.261-22.065h-13.967c-1.633 0-3.069.795-3.98 2.006 9.692 3.281 17.83 10.422 22.208 20.059l51.228 112.757h30z" fill="#c8c3ca"/><path d="m510.841 315.463c-1.731-3.281-5.112-5.319-8.822-5.319h-24.633l-15.21-59.912c-4.654-18.332-21.113-31.134-40.026-31.134s-35.372 12.803-40.026 31.134l-12.434 48.975-18.192-15.466 3.726-3.897c2.862-2.994 2.756-7.741-.238-10.604-2.993-2.861-7.741-2.756-10.603.239l-18.367 19.212c-2.862 2.994-2.756 7.741.238 10.604 1.453 1.389 3.318 2.079 5.182 2.079 1.975 0 3.949-.776 5.422-2.317l4.259-4.455 18.281 15.542h-53.898v-26.838c0-11.415-9.287-20.703-20.703-20.703h-16.801c-.111-.471-.266-.939-.474-1.396l-48.595-106.963c-7.303-16.076-23.432-26.463-41.089-26.463h-13.968c-6.89 0-12.495 5.605-12.495 12.495v9.652c-14.338.348-28.241 3.427-41.364 9.168-3.795 1.66-5.525 6.082-3.865 9.877 1.232 2.817 3.985 4.496 6.875 4.496 1.003 0 2.024-.203 3.002-.631 11.217-4.907 23.097-7.559 35.353-7.903v97.669h-12.866c-11.416 0-20.703 9.287-20.703 20.703v26.838h-67.315l9.511-64.075c3.708-24.986 16.896-47.086 37.134-62.229 3.316-2.481 3.994-7.182 1.512-10.498-2.482-3.317-7.183-3.995-10.498-1.512-23.426 17.529-38.692 43.112-42.986 72.037l-9.838 66.277h-25.346c-3.71 0-7.09 2.038-8.823 5.319-1.732 3.281-1.508 7.222.585 10.286l11.653 17.058c17.714 25.931 47.039 41.412 78.443 41.412h61.933c4.142 0 7.5-3.358 7.5-7.5s-3.358-7.5-7.5-7.5h-61.934c-26.445 0-51.14-13.037-66.057-34.873l-6.286-9.201h274.717l-44.28 43.609c-.152.149-.291.307-.427.465h-65.734c-4.142 0-7.5 3.358-7.5 7.5s3.358 7.5 7.5 7.5h235.872c31.729 0 61.355-15.641 79.253-41.84l11.36-16.63c2.094-3.065 2.317-7.006.585-10.287zm-114.179-61.539c2.963-11.673 13.444-19.826 25.487-19.826s22.524 8.152 25.487 19.826l14.273 56.22h-79.521zm-230.286-111.143h11.462c11.789 0 22.556 6.935 27.433 17.667l46.411 102.155h-85.305v-119.822zm-33.569 140.525c0-3.145 2.558-5.703 5.703-5.703h146.288c3.145 0 5.703 2.558 5.703 5.703v26.838h-157.694zm181.222 43.375c.475-.468.867-.988 1.191-1.537h22.2l-44.662 44.01c-.021.021-.038.044-.059.064h-21.863zm172.481 7.236c-15.1 22.104-40.097 35.301-66.866 35.301h-105.578l43.901-43.261c.26-.256.489-.531.704-.814h112.881 20.952z"/></g></svg>