<svg id="Capa_1" enable-background="new 0 0 512 512" height="512" viewBox="0 0 512 512" width="512" xmlns="http://www.w3.org/2000/svg"><g><path d="m473.336 312.606h-121.76v-142.584c0-8.858 7.18-16.038 16.038-16.038h53.994c2.929 0 5.73 1.196 7.757 3.31l52.857 55.158c1.895 1.977 2.952 4.609 2.952 7.348v80.969c-.001 6.537-5.301 11.837-11.838 11.837z" fill="#dc4955"/><path d="m482.221 212.451-52.857-55.158c-2.026-2.114-4.828-3.31-7.757-3.31h-30c2.929 0 5.73 1.196 7.757 3.31l52.857 55.158c1.895 1.977 2.952 4.609 2.952 7.348v80.969c0 6.538-5.3 11.837-11.838 11.837h30c6.538 0 11.838-5.3 11.838-11.837v-80.969c0-2.738-1.057-5.371-2.952-7.348z" fill="#d82f3c"/><path d="m304.306 215.94h47.27v96.666h-47.27z" fill="#444145"/><path d="m319.444 312.606h-176.305v-18.011c0-31.082 25.197-56.278 56.278-56.278h120.027z" fill="#766d78"/><path d="m456.341 264.547v1.366c0 7.108 5.762 12.869 12.869 12.869h15.963v-27.105h-15.963c-7.108 0-12.869 5.762-12.869 12.87z" fill="#f8e076"/><path d="m484.892 214.213-33.521-34.98h-53.193c-5.348 0-9.683 4.335-9.683 9.683v27.944c0 5.348 4.335 9.683 9.683 9.683h86.996v-11.63c-.001-.261-.101-.512-.282-.7z" fill="#fbfbfb"/><path d="m484.892 214.213-33.521-34.98h-30l33.521 34.98c.181.188.281.439.281.7v11.629h30v-11.629c0-.261-.1-.512-.281-.7z" fill="#e3e0e4"/><path d="m491.1 342.32h-470.2c-7.401 0-13.4-5.999-13.4-13.4v-3.878c0-7.401 6-13.4 13.4-13.4h470.2c7.401 0 13.4 5.999 13.4 13.4v3.878c0 7.4-6 13.4-13.4 13.4z" fill="#c8c3ca"/><ellipse cx="405.397" cy="342.32" fill="#8c818f" rx="49.449" ry="49.153"/><ellipse cx="405.397" cy="342.32" fill="#c8c3ca" rx="17.349" ry="17.245"/><ellipse cx="82.996" cy="342.32" fill="#8c818f" rx="49.449" ry="49.153"/><ellipse cx="82.996" cy="342.32" fill="#c8c3ca" rx="17.349" ry="17.245"/><ellipse cx="211.85" cy="342.32" fill="#8c818f" rx="49.449" ry="49.153"/><g fill="#766d78"><path d="m405.397 293.167c-5.23 0-10.268.813-15 2.309 19.975 6.315 34.449 24.897 34.449 46.844s-14.474 40.529-34.449 46.844c4.732 1.496 9.77 2.309 15 2.309 27.31 0 49.449-22.007 49.449-49.153-.001-27.147-22.14-49.153-49.449-49.153z"/><path d="m82.996 293.167c-5.23 0-10.268.813-15 2.309 19.975 6.315 34.449 24.897 34.449 46.844s-14.474 40.529-34.449 46.844c4.732 1.496 9.77 2.309 15 2.309 27.31 0 49.449-22.007 49.449-49.153-.001-27.147-22.14-49.153-49.449-49.153z"/><path d="m211.85 293.167c-5.23 0-10.268.813-15 2.309 19.975 6.315 34.449 24.897 34.449 46.844s-14.474 40.529-34.449 46.844c4.732 1.496 9.77 2.309 15 2.309 27.31 0 49.449-22.007 49.449-49.153 0-27.147-22.139-49.153-49.449-49.153z"/></g><ellipse cx="211.85" cy="342.32" fill="#c8c3ca" rx="17.349" ry="17.245"/><path d="m34.74 153.31c.297-.185.602-.374.913-.566 80.459-49.63 183.866-41.165 255.663 20.333l23.28 19.941c4.891 4.189 7.493 10.459 7.006 16.881l-4.226 55.699-99.028 7.666c-27.248 2.109-54.684-.816-80.777-8.942-28.977-9.024-66.364-25.129-102.221-53.641-8.125-6.461-12.439-16.591-11.653-26.942l1.06-13.97c.514-6.766 4.226-12.868 9.983-16.459z" fill="#e3e0e4"/><path d="m314.597 193.018-23.28-19.941c-44.522-38.135-101.199-55.869-157.022-52.011 45.734 3.153 90.474 20.706 127.022 52.011l23.28 19.941c4.891 4.189 7.493 10.459 7.006 16.881l-4.226 55.699-.295.023v2.322l30.295-2.345 4.226-55.699c.487-6.422-2.115-12.691-7.006-16.881z" fill="#c8c3ca"/><path d="m74.345 133.903c-13.31 4.911-26.275 11.182-38.692 18.841-.311.192-.615.381-.913.566-5.757 3.591-9.469 9.693-9.983 16.459l-1.06 13.97c-.785 10.351 3.528 20.481 11.653 26.942 10.411 8.279 20.95 15.505 31.376 21.822 10.532-31.454 15.465-66.614 7.619-98.6z" fill="#b1abb4"/><path d="m492.358 304.206c.202-1.125.315-84.407.315-84.407 0-4.695-1.789-9.147-5.037-12.537l-52.857-55.158c-3.423-3.572-8.224-5.621-13.171-5.621h-8.609c-4.142 0-7.5 3.358-7.5 7.5s3.358 7.5 7.5 7.5h8.609c.88 0 1.733.364 2.342.999l8.864 9.25h-34.637c-9.475 0-17.183 7.708-17.183 17.183v27.944c0 9.475 7.708 17.183 17.183 17.183h79.496v10.135h-8.463c-11.232 0-20.369 9.138-20.369 20.369v1.366c0 11.232 9.138 20.369 20.369 20.369h8.463v14.486c0 1.123-.427 2.187-1.202 2.997-.116.121-.219.25-.326.376h-28.031c-.22 0-.436.014-.651.033-10.422-11.365-25.421-18.508-42.067-18.508-16.635 0-31.625 7.135-42.047 18.487-.079-.003-.156-.012-.236-.012h-4.039v-134.12c0-4.708 3.83-8.538 8.538-8.538h15.385c4.142 0 7.5-3.358 7.5-7.5s-3.358-7.5-7.5-7.5h-15.385c-12.979 0-23.538 10.559-23.538 23.538v38.419h-14.925c.014-8.062-3.511-15.837-9.675-21.118l-23.281-19.941c-36.474-31.242-81.034-49.783-128.862-53.619-47.914-3.844-94.812 7.429-135.618 32.599l-.938.581c-.002.001-.004.003-.006.004-7.758 4.839-12.802 13.158-13.492 22.255l-1.06 13.969c-.98 12.92 4.426 25.398 14.463 33.38 9.584 7.621 19.615 14.666 30.062 21.12l-3.767 24.382-42.678 4.56c-4.119.44-7.101 4.136-6.661 8.254.411 3.848 3.664 6.704 7.448 6.704.267 0 49.219-5.216 49.219-5.216 3.381-.361 6.096-2.952 6.615-6.313l3.749-24.27c19.027 10.45 39.3 19.056 60.67 25.71 1.385.432 2.774.847 4.166 1.25-2.554 6.979-3.868 14.306-3.868 21.861v9.547h-10.608c-10.421-11.345-25.406-18.475-42.036-18.475-16.693 0-31.731 7.183-42.157 18.604-.441-.081-19.938-.129-19.938-.129-11.524 0-20.9 9.376-20.9 20.9v3.878c0 11.524 9.376 20.9 20.9 20.9h4.983c.227 0 .451-.014.674-.034 3.687 27.721 27.582 49.188 56.438 49.188 28.845 0 52.732-21.449 56.434-49.153h15.986c3.702 27.704 27.59 49.153 56.434 49.153s52.732-21.449 56.434-49.153h14.471c4.142 0 7.5-3.358 7.5-7.5s-3.358-7.5-7.5-7.5h-14.471c-.737-5.515-2.272-10.779-4.49-15.678h89.659c-2.218 4.899-3.753 10.163-4.49 15.678h-36.207c-4.142 0-7.5 3.358-7.5 7.5s3.358 7.5 7.5 7.5h36.207c3.702 27.704 27.59 49.153 56.434 49.153 28.845 0 52.732-21.449 56.434-49.153h29.274c11.524 0 20.9-9.376 20.9-20.9v-3.878c0-11.097-8.704-20.177-19.642-20.833zm-148.282-.064h-18.549l-.645-38.324 3.215-42.378h15.979zm-312.9-119.836 1.06-13.969c.331-4.353 2.748-8.337 6.467-10.659l.887-.55c9.413-5.806 19.175-10.816 29.211-15.021 4.732 27.748-.182 55.739-6.333 76.888-7.742-5.048-15.231-10.444-22.45-16.184-6.14-4.884-9.446-12.549-8.842-20.505zm45.942 45.632 1.985-12.853c.01-.064.012-.127.02-.192 5.658-22.362 9.295-50.298 3.945-78.147 23.577-7.895 48.428-11.489 73.697-10.57l.932 5.057c5.45 29.549.806 60.499-13.076 87.149-1.914 3.674-.487 8.203 3.187 10.117 1.107.577 2.291.85 3.458.85 2.707 0 5.321-1.47 6.658-4.037 15.419-29.6 20.576-63.978 14.523-96.799l-.223-1.212c5.693.62 11.333 1.464 16.909 2.529l1.649 8.943c5.45 29.549.807 60.499-13.076 87.148-1.913 3.673-.487 8.203 3.187 10.117 1.107.577 2.291.85 3.458.85 2.707 0 5.321-1.47 6.658-4.037 15.419-29.6 20.577-63.977 14.523-96.798l-.467-2.533c29.807 8.139 57.452 22.767 81.37 43.254l23.281 19.941c3.064 2.624 4.711 6.594 4.406 10.617l-3.739 49.285-92.615 7.17c-26.713 2.069-52.949-.834-77.968-8.625-22.207-6.917-43.161-16.037-62.682-27.224zm82.788 89.204c-2.218 4.899-3.753 10.163-4.49 15.678h-15.986c-.737-5.515-2.272-10.779-4.49-15.678zm-139.006 15.678c-3.253 0-5.9-2.647-5.9-5.9v-3.878c0-3.253 2.647-5.9 5.9-5.9h10.152c-2.222 4.909-3.759 10.185-4.495 15.712-.222-.02-.446-.034-.674-.034zm62.096 49.153c-23.13 0-41.948-18.686-41.948-41.653 0-22.968 18.818-41.653 41.948-41.653s41.949 18.686 41.949 41.653c-.001 22.968-18.819 41.653-41.949 41.653zm128.854 0c-23.13 0-41.949-18.686-41.949-41.653 0-22.968 18.818-41.653 41.949-41.653s41.948 18.686 41.948 41.653c0 22.968-18.818 41.653-41.948 41.653zm0-98.306c-16.63 0-31.615 7.13-42.036 18.475h-19.174v-9.547c0-6.308 1.175-12.407 3.494-18.169 15.365 3.328 31.073 5.008 46.992 5.008 5.906 0 11.845-.23 17.802-.691l91.084-7.052.512 30.452h-56.639c-10.421-11.347-25.406-18.476-42.035-18.476zm184.144-68.808v-27.944c0-1.204.98-2.183 2.183-2.183h49.011l29.618 30.908c.38.396.633.881.763 1.402h-79.392c-1.203.001-2.183-.979-2.183-2.183zm73.216 54.423c-2.961 0-5.369-2.409-5.369-5.369v-1.366c0-2.96 2.409-5.369 5.369-5.369h8.463v12.104zm-63.814 112.691c-23.13 0-41.948-18.686-41.948-41.653 0-22.968 18.818-41.653 41.948-41.653s41.949 18.686 41.949 41.653c0 22.968-18.818 41.653-41.949 41.653zm91.604-55.053c0 3.253-2.647 5.9-5.9 5.9h-29.269c-.737-5.515-2.273-10.779-4.49-15.678h33.759c3.253 0 5.9 2.647 5.9 5.9z"/><path d="m405.396 317.574c-13.702 0-24.849 11.101-24.849 24.746 0 13.644 11.147 24.745 24.849 24.745s24.849-11.101 24.849-24.745c.001-13.645-11.147-24.746-24.849-24.746zm0 34.491c-5.431 0-9.849-4.372-9.849-9.745 0-5.374 4.418-9.746 9.849-9.746s9.849 4.372 9.849 9.746c.001 5.373-4.418 9.745-9.849 9.745z"/><path d="m397.54 262.887c4.142 0 7.5-3.358 7.5-7.5s-3.358-7.5-7.5-7.5h-8.532c-4.142 0-7.5 3.358-7.5 7.5s3.358 7.5 7.5 7.5z"/><path d="m82.996 317.574c-13.702 0-24.849 11.101-24.849 24.746 0 13.644 11.147 24.745 24.849 24.745s24.849-11.101 24.849-24.745c0-13.645-11.148-24.746-24.849-24.746zm0 34.491c-5.431 0-9.849-4.372-9.849-9.745 0-5.374 4.418-9.746 9.849-9.746s9.849 4.372 9.849 9.746c0 5.373-4.419 9.745-9.849 9.745z"/><path d="m211.85 317.574c-13.702 0-24.849 11.101-24.849 24.746 0 13.644 11.147 24.745 24.849 24.745s24.849-11.101 24.849-24.745c0-13.645-11.147-24.746-24.849-24.746zm0 34.491c-5.431 0-9.849-4.372-9.849-9.745 0-5.374 4.418-9.746 9.849-9.746s9.849 4.372 9.849 9.746c0 5.373-4.418 9.745-9.849 9.745z"/></g></svg>