<svg id="Capa_1" enable-background="new 0 0 509.356 509.356" height="512" viewBox="0 0 509.356 509.356" width="512" xmlns="http://www.w3.org/2000/svg"><g><path d="m493.406 295.853h-477.456v-55.976c0-9.011 7.305-16.315 16.315-16.315h419.357c23.077 0 41.784 18.708 41.784 41.784z" fill="#655e67"/><path d="m40.331 221.615v-33.612c0-16.787 13.609-30.396 30.396-30.396h274.417c6.108 0 11.922 2.624 15.962 7.205l44.09 54.309" fill="#fbfbfb"/><path d="m451.622 223.561h-30c23.077 0 41.784 18.708 41.784 41.785v30.507h30v-30.507c0-23.077-18.707-41.785-41.784-41.785z" fill="#544f56"/><path d="m331.107 164.813 44.09 54.309h30l-44.09-54.309c-4.041-4.581-9.854-7.205-15.962-7.205h-30c6.107-.001 11.921 2.624 15.962 7.205z" fill="#e7e7e7"/><path d="m70.331 221.615v-33.612c0-16.787 13.609-30.396 30.396-30.396h-30c-16.787 0-30.396 13.609-30.396 30.396v33.612z" fill="#655e67"/><path d="m493.406 261.71v-4.153c0-18.775-15.22-33.995-33.995-33.995h-5.376v24.358c0 7.616 6.174 13.79 13.79 13.79z" fill="#f8e076"/><path d="m497.022 318.123h-484.688c-2.67 0-4.834-2.164-4.834-4.834v-16.535c0-2.67 2.164-4.834 4.834-4.834h484.689c2.669 0 4.834 2.164 4.834 4.834v16.535c-.001 2.669-2.165 4.834-4.835 4.834z" fill="#c8c3ca"/><ellipse cx="395.035" cy="310.258" fill="#8c818f" rx="41.74" ry="41.491"/><ellipse cx="395.035" cy="310.258" fill="#c8c3ca" rx="14.644" ry="14.557"/><ellipse cx="88.264" cy="310.258" fill="#8c818f" rx="41.74" ry="41.491"/><ellipse cx="88.264" cy="310.258" fill="#c8c3ca" rx="14.644" ry="14.557"/><path d="m395.035 268.767c-5.289 0-10.343.988-15 2.771 15.639 5.991 26.74 21.062 26.74 38.72 0 17.657-11.101 32.729-26.74 38.719 4.656 1.784 9.711 2.771 15 2.771 23.052 0 41.74-18.576 41.74-41.491.001-22.914-18.687-41.49-41.74-41.49z" fill="#766d78"/><path d="m88.264 268.767c-5.289 0-10.343.988-15 2.771 15.639 5.991 26.74 21.062 26.74 38.72 0 17.657-11.101 32.729-26.74 38.719 4.657 1.784 9.711 2.771 15 2.771 23.052 0 41.74-18.576 41.74-41.491 0-22.914-18.688-41.49-41.74-41.49z" fill="#766d78"/><path d="m500.907 285.057v-19.711c0-27.176-22.108-49.285-49.284-49.285h-39.587c-.262-.584-.594-1.146-1.017-1.667l-44.089-54.309c-.065-.08-.131-.158-.199-.235-5.463-6.192-13.331-9.743-21.587-9.743h-90.328c-4.142 0-7.5 3.358-7.5 7.5s3.358 7.5 7.5 7.5h6.488v50.954h-53.823v-50.954h17.334c4.142 0 7.5-3.358 7.5-7.5s-3.358-7.5-7.5-7.5h-154.088c-20.895 0-37.895 17-37.895 37.896v28.058h-.567c-13.131 0-23.815 10.684-23.815 23.816v45.18c-4.902 1.632-8.45 6.254-8.45 11.697v16.535c0 6.801 5.533 12.333 12.334 12.333h28.731c.15 0 .297-.014.445-.022 6.488 19.52 24.988 33.648 46.754 33.648 21.758 0 40.251-14.118 46.746-33.626h90.162c4.142 0 7.5-3.358 7.5-7.5s-3.358-7.5-7.5-7.5h-87.677c.001-.122.009-.243.009-.365 0-3.725-.434-7.349-1.229-10.838h210.75c-.795 3.489-1.229 7.113-1.229 10.838 0 .122.008.243.009.365h-90.632c-4.142 0-7.5 3.358-7.5 7.5s3.358 7.5 7.5 7.5h93.117c6.494 19.508 24.988 33.626 46.746 33.626s40.251-14.118 46.746-33.626h55.241c6.801 0 12.334-5.533 12.334-12.333v-16.535c-.001-5.442-3.549-10.065-8.45-11.697zm-39.371-52.529c10.534 3.189 18.934 11.318 22.504 21.682h-16.214c-3.469 0-6.29-2.822-6.29-6.291zm-185.232-67.421h68.84c3.908 0 7.636 1.662 10.248 4.565l37.659 46.389h-116.747zm-141.977 0h58.155v50.954h-58.155zm-56.495 22.896c0-11.755 8.798-21.543 20.466-22.769.269-.028.532-.072.79-.127h20.239v50.954h-41.495zm-30 0c0-12.544 10.141-22.759 22.653-22.89-4.82 6.375-7.653 14.315-7.653 22.89v28.058h-15zm-32.832 122.62v-11.203h25.253c-.795 3.489-1.229 7.113-1.229 10.838 0 .122.008.243.009.365zm73.264 33.626c-18.88 0-34.24-15.248-34.24-33.991s15.36-33.991 34.24-33.991 34.24 15.248 34.24 33.991-15.36 33.991-34.24 33.991zm0-82.982c-17.625 0-33.108 9.266-41.809 23.153h-23.005v-44.543c0-4.861 3.955-8.816 8.815-8.816h229.039v53.359h-131.231c-8.702-13.887-24.185-23.153-41.809-23.153zm306.772 82.982c-18.88 0-34.24-15.248-34.24-33.991s15.36-33.991 34.24-33.991 34.24 15.248 34.24 33.991-15.36 33.991-34.24 33.991zm0-82.982c-17.625 0-33.108 9.266-41.809 23.153h-76.922v-53.359h170.232v16.858c0 11.74 9.551 21.291 21.29 21.291h18.081v15.21h-47.641c-.458 0-.905.047-1.34.126-8.687-13.958-24.213-23.279-41.891-23.279zm99.32 49.356h-50.089c.001-.122.009-.243.009-.365 0-3.725-.434-7.349-1.229-10.838h51.309z"/><path d="m395.036 288.201c-12.211 0-22.145 9.895-22.145 22.057s9.934 22.057 22.145 22.057 22.145-9.895 22.145-22.057c-.001-12.162-9.934-22.057-22.145-22.057zm0 29.113c-3.94 0-7.145-3.165-7.145-7.057 0-3.891 3.205-7.057 7.145-7.057 3.939 0 7.145 3.166 7.145 7.057-.001 3.892-3.206 7.057-7.145 7.057z"/><path d="m88.264 288.201c-12.21 0-22.144 9.895-22.144 22.057s9.934 22.057 22.144 22.057 22.145-9.895 22.145-22.057c-.001-12.162-9.935-22.057-22.145-22.057zm0 29.113c-3.939 0-7.144-3.165-7.144-7.057 0-3.891 3.205-7.057 7.144-7.057s7.145 3.166 7.145 7.057c-.001 3.892-3.206 7.057-7.145 7.057z"/><path d="m188.995 237.818h-10.023c-4.142 0-7.5 3.358-7.5 7.5s3.358 7.5 7.5 7.5h10.023c4.142 0 7.5-3.358 7.5-7.5s-3.358-7.5-7.5-7.5z"/><path d="m309.601 235.136h-10.023c-4.143 0-7.5 3.358-7.5 7.5s3.357 7.5 7.5 7.5h10.023c4.143 0 7.5-3.358 7.5-7.5s-3.357-7.5-7.5-7.5z"/></g></svg>