<svg id="Capa_1" enable-background="new 0 0 512 512" height="512" viewBox="0 0 512 512" width="512" xmlns="http://www.w3.org/2000/svg"><g><g fill="#655e67"><circle cx="122.679" cy="374.156" r="24.618"/><circle cx="195.439" cy="374.156" r="24.618"/><circle cx="324.107" cy="374.156" r="24.618"/><circle cx="396.867" cy="374.156" r="24.618"/></g><path d="m480.534 361.145h-449.067c-5.46 0-9.886-4.426-9.886-9.886v-143.156c0-12.75 10.336-23.086 23.086-23.086h422.667c12.75 0 23.086 10.336 23.086 23.086v143.155c0 5.461-4.426 9.887-9.886 9.887z" fill="#fbfbfb"/><path d="m104.47 330.736-23.955 30.409h350.97l-23.955-30.409c-3.817-4.845-9.645-7.673-15.813-7.673h-271.434c-6.168 0-11.996 2.827-15.813 7.673z" fill="#a29aa5"/><path d="m316.55 361.145h-121.099v-120.273c0-8.969 7.271-16.239 16.24-16.239h88.62c8.969 0 16.24 7.271 16.24 16.239v120.273z" fill="#c8c3ca"/><path d="m467.334 185.017h-30c12.75 0 23.086 10.336 23.086 23.086v143.155c0 5.46-4.426 9.886-9.886 9.886h30c5.46 0 9.886-4.426 9.886-9.886v-143.154c0-12.751-10.336-23.087-23.086-23.087z" fill="#e7e7e7"/><path d="m300.31 224.633h-30c8.969 0 16.24 7.271 16.24 16.239v120.273h30v-120.273c0-8.969-7.271-16.239-16.24-16.239z" fill="#b1abb4"/><path d="m131.062 291.985h25.83c3.913 0 7.085-3.172 7.085-7.085v-48.208c0-3.913-3.172-7.085-7.085-7.085h-25.83c-3.913 0-7.085 3.172-7.085 7.085v48.208c0 3.913 3.172 7.085 7.085 7.085z" fill="#80b6fc"/><path d="m58.725 291.985h25.83c3.913 0 7.085-3.172 7.085-7.085v-48.208c0-3.913-3.172-7.085-7.085-7.085h-25.83c-3.913 0-7.085 3.172-7.085 7.085v48.208c0 3.913 3.172 7.085 7.085 7.085z" fill="#80b6fc"/><path d="m427.446 291.985h25.829c3.913 0 7.085-3.172 7.085-7.085v-48.208c0-3.913-3.172-7.085-7.085-7.085h-25.829c-3.913 0-7.085 3.172-7.085 7.085v48.208c-.001 3.913 3.172 7.085 7.085 7.085z" fill="#80b6fc"/><path d="m355.109 291.985h25.83c3.913 0 7.085-3.172 7.085-7.085v-48.208c0-3.913-3.172-7.085-7.085-7.085h-25.83c-3.913 0-7.085 3.172-7.085 7.085v48.208c-.001 3.913 3.172 7.085 7.085 7.085z" fill="#80b6fc"/><path d="m504.5 105.726h-497c-4.143 0-7.5 3.358-7.5 7.5s3.357 7.5 7.5 7.5h170.241l13.153 23.244c.259.457.184 1.038-.182 1.414l-31.205 32.133h-16.982c-4.143 0-7.5 3.358-7.5 7.5s3.357 7.5 7.5 7.5h324.809c8.594 0 15.586 6.992 15.586 15.586v108.052c0 4.142 3.358 7.5 7.5 7.5 4.143 0 7.5-3.358 7.5-7.5v-108.051c0-16.865-13.721-30.586-30.586-30.586h-135.011l21.056-21.683c4.973-5.122 5.991-13.038 2.476-19.253l-8.973-15.856h157.618c4.143 0 7.5-3.358 7.5-7.5s-3.357-7.5-7.5-7.5zm-161.7 38.243c.258.457.184 1.039-.183 1.416l-31.205 32.133h-130.995l21.056-21.683c4.974-5.123 5.991-13.04 2.475-19.253l-8.973-15.856h134.67z"/><path d="m490.42 338.655c-4.142 0-7.5 3.358-7.5 7.5v5.103c0 1.316-1.07 2.386-2.386 2.386h-45.483c-.154-.252-.32-.5-.507-.738l-21.122-26.814c-5.273-6.693-13.185-10.531-21.704-10.531h-67.668v-74.69c0-13.09-10.649-23.739-23.739-23.739h-88.62c-13.09 0-23.739 10.649-23.739 23.739v74.69h-67.668c-8.521 0-16.433 3.839-21.704 10.532l-21.122 26.813c-.188.238-.353.486-.507.738h-45.484c-1.316 0-2.387-1.07-2.387-2.386v-143.154c0-8.594 6.992-15.586 15.587-15.586h67.858c4.143 0 7.5-3.358 7.5-7.5s-3.357-7.5-7.5-7.5h-67.858c-16.865 0-30.587 13.721-30.587 30.586v143.155c0 9.587 7.8 17.386 17.387 17.386h59.583c-.314 1.813-.489 3.653-.489 5.511 0 17.71 14.408 32.118 32.118 32.118s32.118-14.408 32.118-32.118c0-1.865-.167-3.703-.48-5.511h9.48c-.313 1.81-.477 3.65-.477 5.511 0 17.71 14.408 32.118 32.118 32.118s32.117-14.408 32.117-32.118c0-1.865-.166-3.704-.479-5.511h65.392c-.313 1.808-.48 3.647-.48 5.511 0 17.71 14.408 32.118 32.118 32.118s32.117-14.408 32.117-32.118c0-1.86-.161-3.701-.475-5.511h9.48c-.313 1.808-.48 3.647-.48 5.511 0 17.71 14.407 32.118 32.117 32.118s32.118-14.408 32.118-32.118c0-1.864-.167-3.703-.48-5.511h52.029c9.587 0 17.386-7.799 17.386-17.386v-5.103c.002-4.143-3.355-7.501-7.498-7.501zm-98.702-8.092c3.895 0 7.511 1.755 9.921 4.814l14.391 18.268h-91.98v-23.082zm-82.668-89.691v112.773h-45.289l-.248-121.512h36.797c4.82 0 8.74 3.92 8.74 8.739zm-106.099 0c0-4.819 3.921-8.739 8.739-8.739h36.823l.248 121.512h-45.81zm-92.589 94.504c2.41-3.059 6.025-4.814 9.921-4.814h67.668v23.082h-91.98zm29.435 38.78c0 9.439-7.679 17.118-17.118 17.118s-17.118-7.679-17.118-17.118c0-1.789.272-3.546.811-5.224.031-.095.05-.191.076-.287h32.43c.601 1.766.919 3.611.919 5.511zm72.76 0c0 9.439-7.679 17.118-17.117 17.118-9.439 0-17.118-7.679-17.118-17.118 0-1.895.32-3.743.922-5.511h16.208 16.187c.6 1.765.918 3.61.918 5.511zm128.668 0c0 9.439-7.679 17.118-17.117 17.118-9.439 0-17.118-7.679-17.118-17.118 0-1.9.321-3.746.922-5.511h8.638 23.756c.6 1.767.919 3.616.919 5.511zm72.76 0c0 9.439-7.679 17.118-17.118 17.118-9.438 0-17.117-7.679-17.117-17.118 0-1.9.321-3.746.922-5.511h32.391c.602 1.765.922 3.61.922 5.511z"/><path d="m116.478 284.9c0 8.042 6.543 14.585 14.585 14.585h25.829c8.043 0 14.586-6.543 14.586-14.585v-48.208c0-8.042-6.543-14.585-14.586-14.585h-25.829c-8.042 0-14.585 6.543-14.585 14.585zm14.999-47.793h25v47.378h-25z"/><path d="m58.726 222.107c-8.042 0-14.585 6.543-14.585 14.585v48.208c0 8.042 6.543 14.585 14.585 14.585h25.829c8.043 0 14.586-6.543 14.586-14.585v-48.208c0-8.042-6.543-14.585-14.586-14.585zm25.415 62.378h-25v-47.378h25z"/><path d="m427.445 299.485h25.83c8.042 0 14.585-6.543 14.585-14.585v-48.208c0-8.042-6.543-14.585-14.585-14.585h-25.83c-8.042 0-14.585 6.543-14.585 14.585v48.208c0 8.042 6.543 14.585 14.585 14.585zm.415-62.378h25v47.378h-25z"/><path d="m380.939 299.485c8.042 0 14.585-6.543 14.585-14.585v-48.208c0-8.042-6.543-14.585-14.585-14.585h-25.83c-8.042 0-14.585 6.543-14.585 14.585v48.208c0 8.042 6.543 14.585 14.585 14.585zm-25.416-62.378h25v47.378h-25z"/></g></svg>