<svg id="Capa_1" enable-background="new 0 0 509.182 509.182" height="512" viewBox="0 0 509.182 509.182" width="512" xmlns="http://www.w3.org/2000/svg"><g><path d="m323.85 304.769h-306.374v-161.362c0-4.852 3.933-8.785 8.785-8.785h288.804c4.852 0 8.785 3.933 8.785 8.785z" fill="#77d1b3"/><path d="m315.065 134.622h-30c4.852 0 8.785 3.933 8.785 8.785v161.361h30v-161.361c0-4.852-3.934-8.785-8.785-8.785z" fill="#67b59f"/><path d="m469.652 305.66h-117.016v-152.441h67.303c2.814 0 5.504 1.146 7.445 3.171l50.806 53.018c1.821 1.9 2.837 4.43 2.837 7.061v77.814c.001 6.284-5.092 11.377-11.375 11.377z" fill="#fbfbfb"/><path d="m478.191 209.409-50.807-53.018c-1.941-2.025-4.631-3.171-7.445-3.171h-30c2.814 0 5.504 1.146 7.445 3.171l50.807 53.018c1.82 1.9 2.837 4.43 2.837 7.061v77.814c0 6.283-5.093 11.376-11.376 11.376h30c6.283 0 11.376-5.093 11.376-11.376v-77.814c0-2.632-1.016-5.161-2.837-7.061z" fill="#e7e7e7"/><path d="m17.475 252.241h306.374v52.528h-306.374z" fill="#56988c"/><path d="m17.475 252.241h25.559v52.528h-25.559z" fill="#e27f86"/><path d="m324.176 211.627h28.46v93.192h-28.46z" fill="#c8c3ca"/><path d="m480.758 211.102-32.215-33.617h-51.121c-5.139 0-9.306 4.166-9.306 9.306v26.855c0 5.139 4.166 9.306 9.306 9.306h83.606v-11.176c0-.252-.097-.493-.27-.674z" fill="#9ec8fc"/><path d="m293.85 252.241h30v52.528h-30z" fill="#477d73"/><path d="m480.758 211.102-32.215-33.617h-30l32.215 33.617c.174.181.27.422.27.673v11.176h30v-11.176c0-.251-.097-.492-.27-.673z" fill="#80b6fc"/><path d="m488.281 331.619h-467.381c-7.401 0-13.4-5.999-13.4-13.4 0-7.401 5.999-13.4 13.4-13.4h467.381c7.401 0 13.4 5.999 13.4 13.4 0 7.401-5.999 13.4-13.4 13.4z" fill="#c8c3ca"/><ellipse cx="415.104" cy="331.619" fill="#8c818f" rx="43.199" ry="42.941"/><ellipse cx="415.104" cy="331.619" fill="#c8c3ca" rx="15.156" ry="15.066"/><ellipse cx="203.719" cy="331.619" fill="#8c818f" rx="43.199" ry="42.941"/><ellipse cx="203.719" cy="331.619" fill="#c8c3ca" rx="15.156" ry="15.066"/><ellipse cx="73.453" cy="331.619" fill="#8c818f" rx="43.199" ry="42.941"/><g fill="#766d78"><path d="m415.104 288.678c-5.275 0-10.327.943-15 2.663 16.463 6.061 28.199 21.805 28.199 40.277s-11.736 34.217-28.199 40.277c4.673 1.72 9.725 2.663 15 2.663 23.858 0 43.199-19.225 43.199-42.941 0-23.714-19.341-42.939-43.199-42.939z"/><path d="m203.719 288.678c-5.275 0-10.327.943-15 2.663 16.463 6.061 28.199 21.805 28.199 40.277s-11.736 34.217-28.199 40.277c4.673 1.72 9.725 2.663 15 2.663 23.858 0 43.199-19.225 43.199-42.941 0-23.714-19.341-42.939-43.199-42.939z"/><path d="m73.453 288.678c-5.275 0-10.327.943-15 2.663 16.463 6.061 28.199 21.805 28.199 40.277s-11.736 34.217-28.199 40.277c4.673 1.72 9.725 2.663 15 2.663 23.858 0 43.199-19.225 43.199-42.941 0-23.714-19.341-42.939-43.199-42.939z"/></g><ellipse cx="73.453" cy="331.619" fill="#c8c3ca" rx="15.156" ry="15.066"/><path d="m276.744 213.113c1.465 1.464 3.385 2.197 5.304 2.197s3.839-.732 5.304-2.197l13.283-13.284c2.929-2.929 2.929-7.677 0-10.606l-13.283-13.283c-2.929-2.928-7.677-2.929-10.607 0-2.929 2.929-2.929 7.678 0 10.607l7.98 7.98-7.98 7.98c-2.93 2.928-2.93 7.677-.001 10.606z"/><path d="m246.419 213.113c1.465 1.464 3.385 2.197 5.304 2.197s3.839-.732 5.304-2.197l13.283-13.284c2.929-2.929 2.929-7.677 0-10.606l-13.283-13.283c-2.929-2.928-7.677-2.929-10.607 0-2.929 2.929-2.929 7.678 0 10.607l7.98 7.98-7.98 7.98c-2.93 2.928-2.93 7.677-.001 10.606z"/><path d="m488.281 297.319h-.014c.161-.997.261-2.008.261-3.035v-77.814c0-4.587-1.748-8.937-4.922-12.251l-50.798-53.009c-3.346-3.49-8.036-5.491-12.869-5.491h-58.681c-8.89 0-16.122 7.232-16.122 16.122v42.285h-13.786v-60.72c0-8.98-7.306-16.285-16.285-16.285h-215.162c-4.143 0-7.5 3.358-7.5 7.5s3.357 7.5 7.5 7.5h215.161c.709 0 1.285.576 1.285 1.285v101.334h-291.373v-101.333c0-.709.576-1.285 1.285-1.285h43.643c4.143 0 7.5-3.358 7.5-7.5s-3.357-7.5-7.5-7.5h-43.643c-8.979 0-16.285 7.305-16.285 16.285v157.028c-5.973 3.683-9.976 10.267-9.976 17.784 0 11.524 9.376 20.9 20.9 20.9h2.418c3.652 24.268 24.742 42.941 50.135 42.941 25.395 0 46.484-18.672 50.136-42.941h29.995c3.652 24.268 24.742 42.941 50.136 42.941s46.483-18.672 50.135-42.941h30.049c4.143 0 7.5-3.358 7.5-7.5s-3.357-7.5-7.5-7.5h-30.049c-.619-4.116-1.743-8.07-3.303-11.8h117.72c-1.559 3.731-2.683 7.684-3.302 11.8h-51.066c-4.143 0-7.5 3.358-7.5 7.5s3.357 7.5 7.5 7.5h51.066c3.652 24.268 24.741 42.941 50.135 42.941 25.393 0 46.483-18.672 50.135-42.941h23.042c11.525 0 20.9-9.376 20.9-20.9 0-11.525-9.376-20.9-20.901-20.9zm-14.952-81.868h-75.907c-.996 0-1.806-.81-1.806-1.806v-26.855c0-.996.81-1.806 1.806-1.806h46.976l28.377 29.613c.241.251.426.541.554.854zm-128.192 3.676v78.192h-13.787v-78.192zm-309.603 40.614v37.578h-10.558v-37.578zm-20.534 58.478c0-3.253 2.646-5.9 5.9-5.9h5.72c-1.559 3.731-2.683 7.684-3.302 11.8h-2.418c-3.254 0-5.9-2.647-5.9-5.9zm58.453 48.841c-19.685 0-35.698-15.899-35.698-35.441s16.014-35.441 35.698-35.441c19.685 0 35.699 15.899 35.699 35.441s-16.014 35.441-35.699 35.441zm80.131-42.941h-29.995c-.619-4.116-1.743-8.07-3.303-11.8h36.6c-1.559 3.73-2.683 7.684-3.302 11.8zm50.136 42.941c-19.684 0-35.699-15.899-35.699-35.441s16.015-35.441 35.699-35.441c19.685 0 35.698 15.899 35.698 35.441s-16.014 35.441-35.698 35.441zm0-85.882c-14.651 0-27.862 6.222-37.127 16.14h-56.013c-9.264-9.919-22.476-16.14-37.127-16.14-8.246 0-16.03 1.981-22.919 5.471v-26.908h265.816v37.578h-75.504c-9.265-9.919-22.476-16.141-37.126-16.141zm156.417 16.141v-135.478c0-.619.503-1.122 1.122-1.122h58.681c.767 0 1.51.318 2.04.87l8.044 8.395h-32.602c-9.267 0-16.806 7.539-16.806 16.806v26.855c0 9.267 7.539 16.806 16.806 16.806h76.106v63.833c0 .994-.375 1.939-1.057 2.66-.114.121-.215.248-.319.374h-19.922c-9.264-9.919-22.476-16.14-37.126-16.14s-27.862 6.222-37.126 16.14h-17.841zm54.967 69.741c-19.685 0-35.698-15.899-35.698-35.441s16.014-35.441 35.698-35.441 35.698 15.899 35.698 35.441c.001 19.542-16.013 35.441-35.698 35.441zm73.177-42.941h-23.041c-.619-4.116-1.743-8.07-3.302-11.8h26.344c3.254 0 5.9 2.647 5.9 5.9s-2.647 5.9-5.901 5.9z"/><path d="m415.104 309.053c-12.493 0-22.656 10.123-22.656 22.566s10.163 22.565 22.656 22.565 22.656-10.123 22.656-22.565c.001-12.443-10.162-22.566-22.656-22.566zm0 30.131c-4.222 0-7.656-3.394-7.656-7.565s3.435-7.566 7.656-7.566c4.222 0 7.656 3.394 7.656 7.566s-3.434 7.565-7.656 7.565z"/><path d="m388.609 258.171h8.2c4.142 0 7.5-3.358 7.5-7.5s-3.358-7.5-7.5-7.5h-8.2c-4.143 0-7.5 3.358-7.5 7.5s3.358 7.5 7.5 7.5z"/><path d="m203.72 309.053c-12.493 0-22.656 10.123-22.656 22.566s10.163 22.565 22.656 22.565c12.492 0 22.655-10.123 22.655-22.565 0-12.443-10.163-22.566-22.655-22.566zm0 30.131c-4.222 0-7.656-3.394-7.656-7.565s3.434-7.566 7.656-7.566c4.221 0 7.655 3.394 7.655 7.566s-3.435 7.565-7.655 7.565z"/><path d="m73.453 309.053c-12.493 0-22.656 10.123-22.656 22.566s10.163 22.565 22.656 22.565 22.656-10.123 22.656-22.565c0-12.443-10.163-22.566-22.656-22.566zm0 30.131c-4.222 0-7.656-3.394-7.656-7.565s3.435-7.566 7.656-7.566c4.222 0 7.656 3.394 7.656 7.566s-3.434 7.565-7.656 7.565z"/></g></svg>